<svg width="1100" height="388" viewBox="0 0 1100 388" fill="none" xmlns="http://www.w3.org/2000/svg">
<path d="M78.4113 10C68.5553 10 60.1874 17.2215 58.7456 26.9715L10.2178 355.147C8.4424 367.153 17.7465 377.934 29.8835 377.934H116.048C125.904 377.934 134.272 370.713 135.714 360.963L157.842 211.316C161.188 188.687 193.827 188.687 197.174 211.316L219.302 360.963C220.744 370.713 229.112 377.934 238.968 377.934H328C337.856 377.934 346.224 370.713 347.666 360.963L369.786 211.371C373.132 188.742 405.771 188.742 409.117 211.371L431.238 360.963C432.68 370.713 441.047 377.934 450.903 377.934H649.097C658.953 377.934 667.32 370.713 668.762 360.963L690.891 211.316C694.237 188.687 726.876 188.687 730.222 211.316L752.351 360.963C753.792 370.713 762.16 377.934 772.016 377.934H861.049C870.905 377.934 879.273 370.713 880.714 360.963L902.835 211.371C906.181 188.742 938.82 188.742 942.166 211.371L964.286 360.963C965.728 370.713 974.096 377.934 983.952 377.934H1070.12C1082.25 377.934 1091.56 367.153 1089.78 355.147L1041.25 26.9715C1039.81 17.2215 1031.44 10 1021.59 10H877.984C868.128 10 859.76 17.2215 858.319 26.9715L836.198 176.563C832.852 199.192 800.213 199.192 796.867 176.563L774.746 26.9715C773.305 17.2215 764.937 10 755.081 10H611.46C601.604 10 593.236 17.2215 591.794 26.9715L569.666 176.618C566.32 199.247 533.68 199.247 530.334 176.619L508.206 26.9715C506.764 17.2215 498.396 10 488.54 10H344.936C335.08 10 326.712 17.2215 325.27 26.9715L303.15 176.563C299.803 199.192 267.164 199.192 263.818 176.563L241.698 26.9715C240.256 17.2215 231.888 10 222.032 10H78.4113Z" fill="#F0F0EC"/>
</svg>
