<svg width="1934" height="438" viewBox="0 0 1934 438" fill="none" xmlns="http://www.w3.org/2000/svg">
<path d="M431.603 10.1318C420.416 10.1318 410.917 18.3292 409.28 29.3966L354.195 401.917C352.18 415.546 362.741 427.783 376.518 427.783H474.326C485.513 427.783 495.012 419.586 496.649 408.519L521.767 238.65C525.566 212.964 562.615 212.964 566.413 238.65L591.532 408.519C593.169 419.586 602.667 427.783 613.855 427.783H714.918C726.106 427.783 735.604 419.586 737.241 408.519L762.35 238.713C766.149 213.027 803.198 213.027 806.996 238.713L832.106 408.519C833.742 419.586 843.241 427.783 854.429 427.783H1079.4C1090.59 427.783 1100.09 419.586 1101.73 408.519L1126.84 238.65C1130.64 212.964 1167.69 212.964 1171.49 238.65L1196.61 408.519C1198.25 419.586 1207.74 427.783 1218.93 427.783H1320C1331.18 427.783 1340.68 419.586 1342.32 408.519L1367.43 238.713C1371.23 213.027 1408.28 213.027 1412.07 238.713L1437.18 408.519C1438.82 419.586 1448.32 427.783 1459.51 427.783H1557.31C1571.09 427.783 1581.65 415.546 1579.64 401.917L1524.55 29.3966C1522.91 18.3292 1513.42 10.1318 1502.23 10.1318H1339.22C1328.03 10.1318 1318.53 18.3292 1316.9 29.3966L1291.79 199.202C1287.99 224.888 1250.94 224.888 1247.14 199.202L1222.03 29.3966C1220.39 18.3292 1210.9 10.1318 1199.71 10.1318H1036.68C1025.49 10.1318 1015.99 18.3292 1014.36 29.3966L989.239 199.265C985.441 224.951 948.391 224.951 944.593 199.265L919.474 29.3966C917.838 18.3292 908.339 10.1318 897.151 10.1318H734.142C722.954 10.1318 713.456 18.3292 711.819 29.3966L686.71 199.202C682.911 224.888 645.862 224.888 642.064 199.202L616.954 29.3966C615.318 18.3292 605.819 10.1318 594.631 10.1318H431.603Z" fill="#FF3D02"/>
<path d="M1923.66 166.789C1923.66 253.308 1853.52 323.445 1767 323.445C1680.48 323.445 1610.34 253.308 1610.34 166.789C1610.34 80.2695 1680.48 10.1318 1767 10.1318C1853.52 10.1318 1923.66 80.2695 1923.66 166.789Z" fill="#FF3D02"/>
<path d="M323.502 166.789C323.502 253.308 253.365 323.445 166.846 323.445C80.3266 323.445 10.189 253.308 10.189 166.789C10.189 80.2695 80.3266 10.1318 166.846 10.1318C253.365 10.1318 323.502 80.2695 323.502 166.789Z" fill="#FF3D02"/>
</svg>
