<svg width="1100" height="644" viewBox="0 0 1100 644" fill="none" xmlns="http://www.w3.org/2000/svg">
<path d="M169.708 10C161.791 10 155.07 15.8005 153.912 23.6319L114.933 287.229C113.507 296.873 120.981 305.533 130.729 305.533H199.938C207.855 305.533 214.576 299.732 215.734 291.901L233.508 171.701C236.196 153.525 262.413 153.525 265.1 171.701L282.874 291.901C284.032 299.732 290.754 305.533 298.67 305.533H370.183C378.1 305.533 384.821 299.732 385.979 291.901L403.746 171.746C406.434 153.57 432.65 153.57 435.338 171.746L453.106 291.901C454.264 299.732 460.985 305.533 468.902 305.533H628.095C636.011 305.533 642.732 299.732 643.89 291.901L661.665 171.701C664.352 153.525 690.569 153.525 693.256 171.701L711.031 291.901C712.189 299.732 718.91 305.533 726.826 305.533H798.339C806.256 305.533 812.977 299.732 814.135 291.901L831.902 171.746C834.59 153.57 860.807 153.57 863.494 171.746L881.262 291.901C882.42 299.732 889.141 305.533 897.058 305.533H966.267C976.016 305.533 983.489 296.873 982.063 287.229L943.084 23.6319C941.926 15.8005 935.205 10 927.288 10H811.942C804.025 10 797.304 15.8005 796.146 23.6319L778.379 143.787C775.691 161.963 749.475 161.963 746.787 143.787L729.019 23.6319C727.861 15.8005 721.14 10 713.223 10H597.864C589.947 10 583.226 15.8005 582.068 23.6319L564.294 143.832C561.606 162.007 535.39 162.007 532.702 143.832L514.928 23.6319C513.77 15.8005 507.049 10 499.132 10H383.786C375.869 10 369.148 15.8005 367.99 23.6319L350.223 143.787C347.535 161.963 321.318 161.963 318.631 143.787L300.863 23.6319C299.705 15.8005 292.984 10 285.067 10H169.708Z" fill="#F0F0EC"/>
<path d="M14.4871 632.939C12.009 632.939 10 630.93 10 628.451V498.427C10 495.948 12.009 493.94 14.4871 493.94H62.1072C64.1611 493.94 65.9528 495.334 66.457 497.325L81.0551 554.965C82.1997 559.484 88.6238 559.476 89.7573 554.954L104.2 497.336C104.7 495.339 106.494 493.94 108.552 493.94H156.163C158.641 493.94 160.65 495.949 160.65 498.427V628.451C160.65 630.93 158.641 632.939 156.163 632.939H120.576C118.098 632.939 116.089 630.93 116.089 628.451V587.143C116.089 581.921 108.677 580.91 107.279 585.941L95.1302 629.653C94.5905 631.595 92.8223 632.939 90.8069 632.939H79.8435C77.828 632.939 76.0599 631.595 75.5202 629.653L63.3718 585.942C61.9734 580.91 54.5614 581.921 54.5614 587.143V628.451C54.5614 630.93 52.5525 632.939 50.0743 632.939H14.4871Z" fill="#F0F0EC"/>
<path d="M172.458 632.961C169.623 632.961 167.499 630.366 168.059 627.587L194.255 497.563C194.677 495.468 196.517 493.962 198.654 493.962H252.835C254.971 493.962 256.811 495.468 257.233 497.563L283.43 627.587C283.989 630.366 281.865 632.961 279.031 632.961H243.65C241.412 632.961 239.516 631.311 239.206 629.095L237.629 617.816C237.32 615.6 235.424 613.951 233.185 613.951H217.936C215.68 613.951 213.774 615.626 213.486 617.863L212.043 629.048C211.754 631.285 209.849 632.961 207.592 632.961H172.458ZM218.752 577.19C218.396 579.879 220.488 582.267 223.2 582.267H227.897C230.604 582.267 232.694 579.889 232.348 577.206L230.031 559.253C229.359 554.045 221.823 554.032 221.133 559.238L218.752 577.19Z" fill="#F0F0EC"/>
<path d="M295.747 632.961C293.269 632.961 291.26 630.952 291.26 628.474V498.449C291.26 495.971 293.269 493.962 295.747 493.962H365.666C387.946 493.962 401.642 507.248 401.642 528.711V544.655C401.642 558.232 396.334 567.438 386.809 572.681C384.524 573.938 383.373 576.714 384.482 579.074L406.811 626.564C408.21 629.54 406.039 632.961 402.75 632.961H367.59C365.801 632.961 364.183 631.898 363.473 630.257L343.157 583.345C342.551 581.946 341.171 581.04 339.647 581.04C337.534 581.04 335.822 582.753 335.822 584.865V628.474C335.822 630.952 333.813 632.961 331.335 632.961H295.747ZM335.822 545.892C335.822 548.37 337.831 550.379 340.309 550.379H349.313C354.832 550.379 358.307 547.108 358.307 541.998V534.844C358.307 529.733 354.832 526.463 349.313 526.463H340.309C337.831 526.463 335.822 528.472 335.822 530.95V545.892Z" fill="#F0F0EC"/>
<path d="M419.462 632.961C416.984 632.961 414.974 630.952 414.974 628.474V498.449C414.974 495.971 416.984 493.962 419.462 493.962H455.049C457.527 493.962 459.536 495.971 459.536 498.449V518.954C459.536 523.079 464.636 525.018 467.377 521.935L490.903 495.468C491.754 494.51 492.975 493.962 494.257 493.962H531.573C535.499 493.962 537.532 498.647 534.851 501.514L502.754 535.835C501.473 537.205 501.179 539.228 502.018 540.906L544.799 626.467C546.29 629.45 544.121 632.961 540.785 632.961H502.644C500.91 632.961 499.331 631.962 498.589 630.395L473.029 576.454C471.662 573.571 467.809 572.994 465.659 575.351L460.708 580.778C459.954 581.604 459.536 582.683 459.536 583.802V628.474C459.536 630.952 457.527 632.961 455.049 632.961H419.462Z" fill="#F0F0EC"/>
<path d="M558.814 632.961C556.336 632.961 554.327 630.952 554.327 628.474V498.449C554.327 495.971 556.336 493.962 558.814 493.962H650.614C653.092 493.962 655.101 495.971 655.101 498.449V524.633C655.101 527.111 653.092 529.12 650.614 529.12H603.375C600.897 529.12 598.888 531.129 598.888 533.607V541.395C598.888 543.873 600.897 545.882 603.375 545.882H650.614C653.092 545.882 655.101 547.891 655.101 550.369V575.531C655.101 578.009 653.092 580.018 650.614 580.018H603.375C600.897 580.018 598.888 582.027 598.888 584.506V593.315C598.888 595.793 600.897 597.802 603.375 597.802H650.614C653.092 597.802 655.101 599.811 655.101 602.289V628.474C655.101 630.952 653.092 632.961 650.614 632.961H558.814Z" fill="#F0F0EC"/>
<path d="M704.458 632.961C701.979 632.961 699.971 630.952 699.971 628.474V533.57C699.971 531.092 697.961 529.083 695.483 529.083H667.922C665.444 529.083 663.435 527.074 663.435 524.596V498.449C663.435 495.971 665.444 493.962 667.922 493.962H776.377C778.855 493.962 780.864 495.971 780.864 498.449V524.596C780.864 527.074 778.855 529.083 776.377 529.083H749.019C746.541 529.083 744.532 531.092 744.532 533.57V628.474C744.532 630.952 742.523 632.961 740.045 632.961H704.458Z" fill="#F0F0EC"/>
<path d="M792.357 632.961C789.879 632.961 787.87 630.952 787.87 628.474V498.449C787.87 495.971 789.879 493.962 792.357 493.962H827.945C830.423 493.962 832.432 495.971 832.432 498.449V628.474C832.432 630.952 830.423 632.961 827.945 632.961H792.357Z" fill="#F0F0EC"/>
<path d="M850.018 632.961C847.54 632.961 845.531 630.952 845.531 628.474V498.449C845.531 495.971 847.54 493.962 850.018 493.962H887.12C888.922 493.962 890.549 495.04 891.252 496.699L910.296 541.675C912.202 546.178 918.915 544.815 918.915 539.925V498.449C918.915 495.971 920.924 493.962 923.402 493.962H958.785C961.263 493.962 963.272 495.971 963.272 498.449V628.474C963.272 630.952 961.263 632.961 958.785 632.961H921.852C920.068 632.961 918.454 631.904 917.74 630.269L898.693 586.636C896.747 582.179 890.093 583.568 890.093 588.431V628.474C890.093 630.952 888.084 632.961 885.606 632.961H850.018Z" fill="#F0F0EC"/>
<path d="M1018.25 633.778C990.452 633.778 973.895 616.608 973.895 589.012V537.91C973.895 510.519 990.452 493.348 1018.25 493.348H1045.64C1073.65 493.348 1090 510.519 1090 537.91V539.76C1090 542.238 1087.99 544.247 1085.51 544.247H1049.93C1047.45 544.247 1045.44 542.238 1045.44 539.76V538.932C1045.44 532.391 1041.55 528.916 1035.22 528.916H1028.68C1022.34 528.916 1018.46 532.391 1018.46 538.932V588.195C1018.46 594.532 1022.34 598.211 1028.68 598.211H1036.44C1042.78 598.211 1046.05 595.962 1046.05 589.83V589.207C1046.05 586.729 1044.04 584.72 1041.56 584.72H1036.03C1033.55 584.72 1031.54 582.711 1031.54 580.233V558.954C1031.54 556.476 1033.55 554.467 1036.03 554.467H1085.51C1087.99 554.467 1090 556.476 1090 558.954V590.034C1090 617.63 1073.65 633.778 1045.64 633.778H1018.25Z" fill="#F0F0EC"/>
<path d="M73.3568 471.71C70.8786 471.71 68.8697 469.702 68.8697 467.223V337.199C68.8697 334.721 70.8786 332.712 73.3568 332.712H120.977C123.031 332.712 124.822 334.106 125.327 336.097L139.925 393.737C141.069 398.256 147.493 398.249 148.627 393.726L163.069 336.108C163.57 334.112 165.364 332.712 167.422 332.712H215.033C217.511 332.712 219.52 334.721 219.52 337.199V467.223C219.52 469.702 217.511 471.71 215.033 471.71H179.446C176.968 471.71 174.959 469.702 174.959 467.223V425.915C174.959 420.693 167.547 419.682 166.148 424.714L154 468.425C153.46 470.367 151.692 471.71 149.677 471.71H138.713C136.698 471.71 134.93 470.367 134.39 468.425L122.242 424.714C120.843 419.682 113.431 420.693 113.431 425.915V467.223C113.431 469.702 111.422 471.71 108.944 471.71H73.3568Z" fill="#F0F0EC"/>
<path d="M233.283 471.71C230.805 471.71 228.796 469.702 228.796 467.223V337.199C228.796 334.721 230.805 332.712 233.283 332.712H325.083C327.561 332.712 329.57 334.721 329.57 337.199V363.383C329.57 365.861 327.561 367.87 325.083 367.87H277.845C275.367 367.87 273.358 369.879 273.358 372.357V380.145C273.358 382.623 275.367 384.632 277.845 384.632H325.083C327.561 384.632 329.57 386.641 329.57 389.119V414.281C329.57 416.759 327.561 418.768 325.083 418.768H277.845C275.367 418.768 273.358 420.777 273.358 423.255V432.065C273.358 434.543 275.367 436.552 277.845 436.552H325.083C327.561 436.552 329.57 438.561 329.57 441.039V467.223C329.57 469.702 327.561 471.71 325.083 471.71H233.283Z" fill="#F0F0EC"/>
<path d="M382.869 472.324C355.069 472.324 338.103 455.153 338.103 428.171V376.251C338.103 349.269 355.069 332.098 382.869 332.098H410.464C438.264 332.098 455.23 349.269 455.23 376.251V387.299C455.23 389.777 453.221 391.786 450.743 391.786H414.952C412.473 391.786 410.464 389.777 410.464 387.299V377.273C410.464 371.141 406.581 367.666 400.04 367.666H393.294C386.753 367.666 382.869 371.141 382.869 377.273V427.149C382.869 433.281 386.753 436.756 393.294 436.756H400.04C406.581 436.756 410.464 433.281 410.464 427.149V414.261C410.464 411.783 412.473 409.774 414.952 409.774H450.743C453.221 409.774 455.23 411.783 455.23 414.261V428.171C455.23 455.153 438.264 472.324 410.464 472.324H382.869Z" fill="#F0F0EC"/>
<path d="M467.132 471.71C464.654 471.71 462.645 469.702 462.645 467.223V337.199C462.645 334.721 464.654 332.712 467.132 332.712H502.719C505.197 332.712 507.206 334.721 507.206 337.199V378.918C507.206 381.396 509.215 383.405 511.693 383.405H537.878C540.356 383.405 542.365 381.396 542.365 378.918V337.199C542.365 334.721 544.374 332.712 546.852 332.712H582.439C584.917 332.712 586.926 334.721 586.926 337.199V467.223C586.926 469.702 584.917 471.71 582.439 471.71H546.852C544.374 471.71 542.365 469.702 542.365 467.223V423.46C542.365 420.982 540.356 418.973 537.878 418.973H511.693C509.215 418.973 507.206 420.982 507.206 423.46V467.223C507.206 469.702 505.197 471.71 502.719 471.71H467.132Z" fill="#F0F0EC"/>
<path d="M597.865 471.71C595.031 471.71 592.906 469.116 593.466 466.337L619.662 336.312C620.084 334.218 621.925 332.712 624.061 332.712H678.242C680.378 332.712 682.219 334.218 682.641 336.312L708.837 466.337C709.396 469.116 707.272 471.71 704.438 471.71H669.057C666.819 471.71 664.923 470.061 664.613 467.845L663.037 456.566C662.727 454.35 660.831 452.7 658.593 452.7H643.343C641.087 452.7 639.182 454.376 638.893 456.613L637.45 467.798C637.161 470.035 635.256 471.71 633 471.71H597.865ZM644.159 415.94C643.803 418.629 645.895 421.017 648.608 421.017H653.305C656.011 421.017 658.101 418.639 657.755 415.955L655.439 398.003C654.767 392.795 647.231 392.782 646.54 397.987L644.159 415.94Z" fill="#F0F0EC"/>
<path d="M719.232 471.71C716.753 471.71 714.744 469.702 714.744 467.223V337.199C714.744 334.721 716.753 332.712 719.232 332.712H756.333C758.135 332.712 759.762 333.79 760.465 335.449L779.509 380.424C781.415 384.928 788.128 383.565 788.128 378.675V337.199C788.128 334.721 790.137 332.712 792.615 332.712H827.998C830.476 332.712 832.485 334.721 832.485 337.199V467.223C832.485 469.702 830.476 471.71 827.998 471.71H791.065C789.281 471.71 787.666 470.654 786.952 469.019L767.905 425.386C765.96 420.929 759.306 422.318 759.306 427.181V467.223C759.306 469.702 757.297 471.71 754.819 471.71H719.232Z" fill="#F0F0EC"/>
<path d="M850.842 471.71C848.364 471.71 846.355 469.702 846.355 467.223V337.199C846.355 334.721 848.364 332.712 850.842 332.712H886.429C888.907 332.712 890.916 334.721 890.916 337.199V467.223C890.916 469.702 888.907 471.71 886.429 471.71H850.842Z" fill="#F0F0EC"/>
<path d="M946.98 472.324C919.18 472.324 902.215 455.153 902.215 428.171V376.251C902.215 349.269 919.18 332.098 946.98 332.098H974.576C1002.38 332.098 1019.34 349.269 1019.34 376.251V387.299C1019.34 389.777 1017.33 391.786 1014.85 391.786H979.063C976.585 391.786 974.576 389.777 974.576 387.299V377.273C974.576 371.141 970.692 367.666 964.151 367.666H957.405C950.864 367.666 946.98 371.141 946.98 377.273V427.149C946.98 433.281 950.864 436.756 957.405 436.756H964.151C970.692 436.756 974.576 433.281 974.576 427.149V414.261C974.576 411.783 976.585 409.774 979.063 409.774H1014.85C1017.33 409.774 1019.34 411.783 1019.34 414.261V428.171C1019.34 455.153 1002.38 472.324 974.576 472.324H946.98Z" fill="#F0F0EC"/>
</svg>
