<svg width="2516" height="388" viewBox="0 0 2516 388" fill="none" xmlns="http://www.w3.org/2000/svg">
<path d="M78.4105 10.004C68.5546 10.004 60.1868 17.2254 58.7451 26.9753L10.2178 355.147C8.44242 367.153 17.7464 377.934 29.8832 377.934H116.047C125.903 377.934 134.27 370.713 135.712 360.963L157.84 211.317C161.187 188.689 193.825 188.689 197.171 211.317L219.3 360.963C220.741 370.713 229.109 377.934 238.965 377.934H327.996C337.852 377.934 346.22 370.712 347.662 360.963L369.782 211.373C373.128 188.744 405.767 188.744 409.113 211.373L431.233 360.963C432.675 370.713 441.043 377.934 450.898 377.934H649.089C658.945 377.934 667.313 370.712 668.755 360.963L690.883 211.317C694.229 188.689 726.868 188.689 730.214 211.317L752.342 360.963C753.784 370.713 762.152 377.934 772.008 377.934H861.039C870.895 377.934 879.263 370.712 880.704 360.963L902.824 211.373C906.17 188.744 938.809 188.744 942.155 211.373L964.275 360.963C965.717 370.713 974.085 377.934 983.941 377.934H1070.1C1082.24 377.934 1091.55 367.153 1089.77 355.147L1041.24 26.9753C1039.8 17.2254 1031.43 10.004 1021.58 10.004H877.974C868.118 10.004 859.751 17.2254 858.309 26.9753L836.189 176.565C832.843 199.194 800.204 199.194 796.858 176.565L774.738 26.9753C773.296 17.2254 764.928 10.004 755.072 10.004H611.453C601.597 10.004 593.229 17.2254 591.788 26.9753L569.659 176.621C566.313 199.249 533.674 199.249 530.328 176.621L508.2 26.9753C506.758 17.2254 498.391 10.004 488.535 10.004H344.932C335.076 10.004 326.708 17.2254 325.266 26.9753L303.146 176.565C299.8 199.194 267.161 199.194 263.815 176.565L241.695 26.9753C240.253 17.2254 231.886 10.004 222.03 10.004H78.4105Z" fill="black"/>
<path d="M1169.03 377.934C1165.97 377.934 1163.49 375.451 1163.49 372.388V211.681C1163.49 208.618 1165.97 206.135 1169.03 206.135L1227.89 206.135C1230.43 206.135 1232.64 207.859 1233.27 210.32L1251.31 281.561C1252.73 287.147 1260.67 287.137 1262.07 281.547L1279.92 210.333C1280.54 207.866 1282.75 206.135 1285.3 206.135H1344.14C1347.21 206.135 1349.69 208.618 1349.69 211.681V372.388C1349.69 375.451 1347.21 377.934 1344.14 377.934H1300.16C1297.09 377.934 1294.61 375.451 1294.61 372.388V321.332C1294.61 314.877 1285.45 313.628 1283.72 319.847L1268.71 373.873C1268.04 376.273 1265.85 377.934 1263.36 377.934H1249.81C1247.32 377.934 1245.14 376.273 1244.47 373.873L1229.45 319.847C1227.73 313.628 1218.57 314.877 1218.57 321.332V372.388C1218.57 375.451 1216.08 377.934 1213.02 377.934H1169.03Z" fill="black"/>
<path d="M1366.18 376.702C1362.68 376.702 1360.05 373.494 1360.74 370.06L1393.12 209.354C1393.64 206.765 1395.92 204.903 1398.56 204.903H1465.53C1468.17 204.903 1470.44 206.765 1470.96 209.354L1503.34 370.06C1504.03 373.494 1501.41 376.702 1497.9 376.702H1454.17C1451.41 376.702 1449.06 374.663 1448.68 371.924L1446.73 357.984C1446.35 355.244 1444.01 353.206 1441.24 353.206H1422.39C1419.6 353.206 1417.25 355.276 1416.89 358.042L1415.11 371.866C1414.75 374.631 1412.4 376.702 1409.61 376.702H1366.18ZM1423.4 307.771C1422.96 311.094 1425.55 314.046 1428.9 314.046H1434.7C1438.05 314.046 1440.63 311.107 1440.2 307.79L1437.34 285.602C1436.51 279.165 1427.2 279.148 1426.34 285.582L1423.4 307.771Z" fill="black"/>
<path d="M1520.46 376.702C1517.4 376.702 1514.92 374.219 1514.92 371.156V210.449C1514.92 207.386 1517.4 204.903 1520.46 204.903H1606.88C1634.42 204.903 1651.35 221.325 1651.35 247.853V267.559C1651.35 284.34 1644.79 295.717 1633.01 302.198C1630.19 303.752 1628.77 307.183 1630.14 310.1L1657.74 368.796C1659.46 372.474 1656.78 376.702 1652.72 376.702H1609.26C1607.05 376.702 1605.05 375.389 1604.17 373.36L1579.06 315.379C1578.31 313.649 1576.61 312.53 1574.72 312.53C1572.11 312.53 1569.99 314.646 1569.99 317.257V371.156C1569.99 374.219 1567.51 376.702 1564.45 376.702H1520.46ZM1569.99 269.087C1569.99 272.15 1572.48 274.633 1575.54 274.633H1586.67C1593.49 274.633 1597.79 270.591 1597.79 264.275V255.432C1597.79 249.116 1593.49 245.074 1586.67 245.074H1575.54C1572.48 245.074 1569.99 247.557 1569.99 250.62V269.087Z" fill="black"/>
<path d="M1675.27 376.702C1672.21 376.702 1669.72 374.219 1669.72 371.156V210.449C1669.72 207.386 1672.21 204.903 1675.27 204.903H1719.26C1722.32 204.903 1724.8 207.386 1724.8 210.449V235.792C1724.8 240.892 1731.1 243.288 1734.49 239.477L1763.57 206.764C1764.62 205.58 1766.13 204.903 1767.72 204.903H1813.84C1818.69 204.903 1821.2 210.693 1817.89 214.237L1778.22 256.657C1776.63 258.35 1776.27 260.851 1777.31 262.925L1830.18 368.676C1832.03 372.363 1829.35 376.702 1825.22 376.702H1778.08C1775.94 376.702 1773.99 375.467 1773.07 373.531L1741.48 306.861C1739.79 303.297 1735.03 302.585 1732.37 305.498L1726.25 312.205C1725.32 313.227 1724.8 314.56 1724.8 315.943V371.156C1724.8 374.219 1722.32 376.702 1719.26 376.702H1675.27Z" fill="black"/>
<path d="M1843.71 376.702C1840.64 376.702 1838.16 374.219 1838.16 371.156V210.449C1838.16 207.386 1840.64 204.903 1843.71 204.903H1957.17C1960.23 204.903 1962.71 207.386 1962.71 210.449V242.812C1962.71 245.875 1960.23 248.358 1957.17 248.358L1898.78 248.358C1895.72 248.358 1893.24 250.841 1893.24 253.904V263.529C1893.24 266.592 1895.72 269.075 1898.78 269.075H1957.17C1960.23 269.075 1962.71 271.558 1962.71 274.621V305.721C1962.71 308.784 1960.23 311.267 1957.17 311.267H1898.78C1895.72 311.267 1893.24 313.75 1893.24 316.813V327.701C1893.24 330.764 1895.72 333.247 1898.78 333.247H1957.17C1960.23 333.247 1962.71 335.73 1962.71 338.793V371.156C1962.71 374.219 1960.23 376.702 1957.17 376.702H1843.71Z" fill="black"/>
<path d="M2025.62 376.702C2022.56 376.702 2020.07 374.219 2020.07 371.156V254.409C2020.07 251.346 2017.59 248.863 2014.53 248.863H1980.46C1977.4 248.863 1974.91 246.38 1974.91 243.317V210.449C1974.91 207.386 1977.4 204.903 1980.46 204.903L2114.51 204.903C2117.57 204.903 2120.05 207.386 2120.05 210.449V243.317C2120.05 246.38 2117.57 248.863 2114.51 248.863H2080.69C2077.63 248.863 2075.15 251.346 2075.15 254.409V371.156C2075.15 374.219 2072.67 376.702 2069.6 376.702H2025.62Z" fill="black"/>
<path d="M2136.16 376.702C2133.1 376.702 2130.61 374.219 2130.61 371.156V210.449C2130.61 207.386 2133.1 204.903 2136.16 204.903H2180.14C2183.21 204.903 2185.69 207.386 2185.69 210.449V371.156C2185.69 374.219 2183.21 376.702 2180.14 376.702H2136.16Z" fill="black"/>
<path d="M2207.43 376.702C2204.36 376.702 2201.88 374.219 2201.88 371.156V210.449C2201.88 207.386 2204.36 204.903 2207.43 204.903H2253.28C2255.51 204.903 2257.52 206.235 2258.39 208.287L2281.93 263.875C2284.28 269.441 2292.58 267.757 2292.58 261.712V210.449C2292.58 207.386 2295.06 204.903 2298.13 204.903H2341.86C2344.92 204.903 2347.4 207.386 2347.4 210.449V371.156C2347.4 374.219 2344.92 376.702 2341.86 376.702H2296.21C2294.01 376.702 2292.01 375.395 2291.13 373.375L2267.59 319.445C2265.18 313.937 2256.96 315.654 2256.96 321.664V371.156C2256.96 374.219 2254.47 376.702 2251.41 376.702H2207.43Z" fill="black"/>
<path d="M2417.26 377.712C2382.9 377.712 2362.43 356.49 2362.43 322.383V259.222C2362.43 225.367 2382.9 204.145 2417.26 204.145L2451.11 204.145C2485.73 204.145 2505.94 225.367 2505.94 259.222V261.508C2505.94 264.571 2503.45 267.054 2500.39 267.054H2456.41C2453.34 267.054 2450.86 264.571 2450.86 261.508V260.485C2450.86 252.4 2446.06 248.105 2438.23 248.105H2430.14C2422.31 248.105 2417.51 252.4 2417.51 260.485V321.372C2417.51 329.204 2422.31 333.752 2430.14 333.752H2439.74C2447.58 333.752 2451.62 330.973 2451.62 323.394V322.623C2451.62 319.56 2449.14 317.077 2446.07 317.077H2439.23C2436.16 317.077 2433.68 314.594 2433.68 311.531V285.232C2433.68 282.169 2436.16 279.686 2439.23 279.686H2500.39C2503.45 279.686 2505.94 282.169 2505.94 285.232V323.646C2505.94 357.753 2485.73 377.712 2451.11 377.712L2417.26 377.712Z" fill="black"/>
<path d="M1169.03 182.561C1165.97 182.561 1163.49 180.078 1163.49 177.015V16.3079C1163.49 13.2449 1165.97 10.7619 1169.03 10.7619L1227.89 10.7619C1230.43 10.7619 1232.64 12.4854 1233.27 14.9463L1251.31 86.1873C1252.73 91.7735 1260.67 91.7637 1262.07 86.1741L1279.92 14.9595C1280.54 12.4922 1282.75 10.7619 1285.3 10.7619L1344.14 10.7619C1347.21 10.7619 1349.69 13.2449 1349.69 16.3079V177.015C1349.69 180.078 1347.21 182.561 1344.14 182.561H1300.16C1297.09 182.561 1294.61 180.078 1294.61 177.015V125.959C1294.61 119.504 1285.45 118.255 1283.72 124.474L1268.71 178.5C1268.04 180.9 1265.85 182.561 1263.36 182.561H1249.81C1247.32 182.561 1245.14 180.9 1244.47 178.5L1229.45 124.474C1227.73 118.255 1218.57 119.504 1218.57 125.959V177.015C1218.57 180.078 1216.08 182.561 1213.02 182.561H1169.03Z" fill="black"/>
<path d="M1368.16 182.561C1365.1 182.561 1362.61 180.078 1362.61 177.015V16.3079C1362.61 13.2449 1365.1 10.7619 1368.16 10.7619L1481.62 10.7619C1484.69 10.7619 1487.17 13.2449 1487.17 16.3079V48.6709C1487.17 51.7339 1484.69 54.2169 1481.62 54.2169L1423.24 54.2169C1420.17 54.2169 1417.69 56.6999 1417.69 59.7628V69.3878C1417.69 72.4508 1420.17 74.9338 1423.24 74.9338L1481.62 74.9338C1484.69 74.9338 1487.17 77.4168 1487.17 80.4797V111.58C1487.17 114.643 1484.69 117.126 1481.62 117.126L1423.24 117.126C1420.17 117.126 1417.69 119.609 1417.69 122.672V133.56C1417.69 136.623 1420.17 139.106 1423.24 139.106H1481.62C1484.69 139.106 1487.17 141.589 1487.17 144.652V177.015C1487.17 180.078 1484.69 182.561 1481.62 182.561L1368.16 182.561Z" fill="black"/>
<path d="M1554.08 183.319C1519.72 183.319 1498.75 162.096 1498.75 128.747V64.5753C1498.75 31.2262 1519.72 10.004 1554.08 10.004L1588.18 10.004C1622.54 10.004 1643.51 31.2262 1643.51 64.5753V78.2304C1643.51 81.2934 1641.03 83.7764 1637.97 83.7764H1593.73C1590.67 83.7764 1588.18 81.2934 1588.18 78.2304V65.8386C1588.18 58.2592 1583.38 53.9642 1575.3 53.9642H1566.96C1558.88 53.9642 1554.08 58.2592 1554.08 65.8386V127.484C1554.08 135.063 1558.88 139.358 1566.96 139.358H1575.3C1583.38 139.358 1588.18 135.063 1588.18 127.484V111.555C1588.18 108.492 1590.67 106.009 1593.73 106.009H1637.97C1641.03 106.009 1643.51 108.492 1643.51 111.555V128.747C1643.51 162.096 1622.54 183.319 1588.18 183.319H1554.08Z" fill="black"/>
<path d="M1658.66 182.561C1655.59 182.561 1653.11 180.078 1653.11 177.015V16.3079C1653.11 13.2449 1655.59 10.7619 1658.66 10.7619L1702.64 10.7619C1705.7 10.7619 1708.19 13.2449 1708.19 16.3079V67.872C1708.19 70.9349 1710.67 73.4179 1713.73 73.4179L1746.1 73.4179C1749.16 73.4179 1751.64 70.9349 1751.64 67.872V16.3079C1751.64 13.2449 1754.12 10.7619 1757.19 10.7619L1801.17 10.7619C1804.23 10.7619 1806.72 13.2449 1806.72 16.3079V177.015C1806.72 180.078 1804.23 182.561 1801.17 182.561L1757.19 182.561C1754.12 182.561 1751.64 180.078 1751.64 177.015V122.924C1751.64 119.861 1749.16 117.378 1746.1 117.378H1713.73C1710.67 117.378 1708.19 119.861 1708.19 122.924V177.015C1708.19 180.078 1705.7 182.561 1702.64 182.561H1658.66Z" fill="black"/>
<path d="M1821.83 182.561C1818.33 182.561 1815.7 179.353 1816.39 175.919L1848.77 15.2125C1849.29 12.6238 1851.57 10.7619 1854.21 10.7619L1921.17 10.7619C1923.81 10.7619 1926.09 12.6238 1926.61 15.2125L1958.99 175.919C1959.68 179.353 1957.05 182.561 1953.55 182.561H1909.82C1907.05 182.561 1904.71 180.522 1904.33 177.782L1902.38 163.843C1902 161.103 1899.65 159.065 1896.89 159.065H1878.04C1875.25 159.065 1872.89 161.135 1872.54 163.901L1870.75 177.724C1870.4 180.49 1868.04 182.561 1865.25 182.561H1821.83ZM1879.05 113.63C1878.61 116.953 1881.19 119.905 1884.54 119.905H1890.35C1893.7 119.905 1896.28 116.966 1895.85 113.649L1892.99 91.4605C1892.16 85.0236 1882.84 85.0072 1881.99 91.4411L1879.05 113.63Z" fill="black"/>
<path d="M1973.14 182.561C1970.07 182.561 1967.59 180.078 1967.59 177.015V16.3079C1967.59 13.2449 1970.07 10.7619 1973.14 10.7619L2018.99 10.7619C2021.22 10.7619 2023.23 12.0944 2024.1 14.1454L2047.64 69.7337C2049.99 75.2997 2058.29 73.6156 2058.29 67.5712V16.3079C2058.29 13.2449 2060.77 10.7619 2063.84 10.7619L2107.57 10.7619C2110.63 10.7619 2113.11 13.2449 2113.11 16.3079V177.015C2113.11 180.078 2110.63 182.561 2107.57 182.561H2061.92C2059.71 182.561 2057.72 181.254 2056.84 179.234L2033.3 125.304C2030.89 119.796 2022.67 121.513 2022.67 127.523V177.015C2022.67 180.078 2020.18 182.561 2017.12 182.561H1973.14Z" fill="black"/>
<path d="M2135.8 182.561C2132.74 182.561 2130.26 180.078 2130.26 177.015V16.3079C2130.26 13.2449 2132.74 10.7619 2135.8 10.7619L2179.79 10.7619C2182.85 10.7619 2185.33 13.2449 2185.33 16.3079V177.015C2185.33 180.078 2182.85 182.561 2179.79 182.561H2135.8Z" fill="black"/>
<path d="M2254.63 183.319C2220.27 183.319 2199.3 162.096 2199.3 128.747V64.5753C2199.3 31.2262 2220.27 10.004 2254.63 10.004L2288.73 10.004C2323.09 10.004 2344.06 31.2262 2344.06 64.5753V78.2304C2344.06 81.2934 2341.58 83.7764 2338.52 83.7764L2294.28 83.7764C2291.22 83.7764 2288.73 81.2934 2288.73 78.2304V65.8386C2288.73 58.2592 2283.93 53.9642 2275.85 53.9642L2267.51 53.9642C2259.43 53.9642 2254.63 58.2592 2254.63 65.8386V127.484C2254.63 135.063 2259.43 139.358 2267.51 139.358H2275.85C2283.93 139.358 2288.73 135.063 2288.73 127.484V111.555C2288.73 108.492 2291.22 106.009 2294.28 106.009L2338.52 106.009C2341.58 106.009 2344.06 108.492 2344.06 111.555V128.747C2344.06 162.096 2323.09 183.319 2288.73 183.319H2254.63Z" fill="black"/>
</svg>
