<svg width="1100" height="644" viewBox="0 0 1100 644" fill="none" xmlns="http://www.w3.org/2000/svg">
<path d="M169.708 9.99911C161.791 9.99911 155.07 15.7996 153.912 23.631L114.933 287.228C113.507 296.872 120.981 305.532 130.729 305.532H199.938C207.855 305.532 214.576 299.731 215.734 291.9L233.508 171.7C236.196 153.524 262.413 153.524 265.1 171.7L282.874 291.9C284.032 299.731 290.754 305.532 298.67 305.532H370.183C378.1 305.532 384.821 299.731 385.979 291.9L403.746 171.745C406.434 153.569 432.65 153.569 435.338 171.745L453.106 291.9C454.264 299.731 460.985 305.532 468.902 305.532H628.095C636.011 305.532 642.732 299.731 643.89 291.9L661.665 171.7C664.352 153.524 690.569 153.524 693.256 171.7L711.031 291.9C712.189 299.731 718.91 305.532 726.826 305.532H798.339C806.256 305.532 812.977 299.731 814.135 291.9L831.902 171.745C834.59 153.569 860.807 153.569 863.494 171.745L881.262 291.9C882.42 299.731 889.141 305.532 897.058 305.532H966.267C976.016 305.532 983.489 296.872 982.063 287.228L943.084 23.631C941.926 15.7996 935.205 9.99911 927.288 9.99911H811.942C804.025 9.99911 797.304 15.7996 796.146 23.631L778.379 143.786C775.691 161.962 749.475 161.962 746.787 143.786L729.019 23.631C727.861 15.7996 721.14 9.99911 713.223 9.99911H597.864C589.947 9.99911 583.226 15.7996 582.068 23.631L564.294 143.831C561.606 162.007 535.39 162.007 532.702 143.831L514.928 23.631C513.77 15.7996 507.049 9.99911 499.132 9.99911H383.786C375.869 9.99911 369.148 15.7996 367.99 23.631L350.223 143.786C347.535 161.962 321.318 161.962 318.631 143.786L300.863 23.631C299.705 15.7996 292.984 9.99911 285.067 9.99911H169.708Z" fill="black"/>
<path d="M14.4871 632.938C12.009 632.938 10 630.929 10 628.451V498.426C10 495.948 12.009 493.939 14.4871 493.939H62.1072C64.1611 493.939 65.9528 495.333 66.457 497.324L81.0551 554.964C82.1997 559.483 88.6238 559.476 89.7573 554.953L104.2 497.335C104.7 495.339 106.494 493.939 108.552 493.939H156.163C158.641 493.939 160.65 495.948 160.65 498.426V628.451C160.65 630.929 158.641 632.938 156.163 632.938H120.576C118.098 632.938 116.089 630.929 116.089 628.451V587.142C116.089 581.92 108.677 580.909 107.279 585.941L95.1302 629.652C94.5905 631.594 92.8223 632.938 90.8069 632.938H79.8435C77.828 632.938 76.0599 631.594 75.5202 629.652L63.3718 585.941C61.9734 580.909 54.5614 581.92 54.5614 587.142V628.451C54.5614 630.929 52.5525 632.938 50.0743 632.938H14.4871Z" fill="black"/>
<path d="M172.458 632.96C169.623 632.96 167.499 630.365 168.059 627.586L194.255 497.562C194.677 495.467 196.517 493.961 198.654 493.961H252.835C254.971 493.961 256.811 495.467 257.233 497.562L283.43 627.586C283.989 630.365 281.865 632.96 279.031 632.96H243.65C241.412 632.96 239.516 631.31 239.206 629.094L237.629 617.816C237.32 615.599 235.424 613.95 233.185 613.95H217.936C215.68 613.95 213.774 615.625 213.486 617.863L212.043 629.047C211.754 631.284 209.849 632.96 207.592 632.96H172.458ZM218.752 577.189C218.396 579.878 220.488 582.266 223.2 582.266H227.897C230.604 582.266 232.694 579.889 232.348 577.205L230.031 559.252C229.359 554.044 221.823 554.031 221.133 559.237L218.752 577.189Z" fill="black"/>
<path d="M295.747 632.96C293.269 632.96 291.26 630.951 291.26 628.473V498.448C291.26 495.97 293.269 493.961 295.747 493.961H365.666C387.946 493.961 401.642 507.247 401.642 528.711V544.655C401.642 558.231 396.334 567.437 386.809 572.68C384.524 573.938 383.373 576.713 384.482 579.073L406.811 626.563C408.21 629.539 406.039 632.96 402.75 632.96H367.59C365.801 632.96 364.183 631.897 363.473 630.256L343.157 583.344C342.551 581.945 341.171 581.04 339.647 581.04C337.534 581.04 335.822 582.752 335.822 584.864V628.473C335.822 630.951 333.813 632.96 331.335 632.96H295.747ZM335.822 545.891C335.822 548.369 337.831 550.378 340.309 550.378H349.313C354.832 550.378 358.307 547.108 358.307 541.997V534.843C358.307 529.733 354.832 526.462 349.313 526.462H340.309C337.831 526.462 335.822 528.471 335.822 530.949V545.891Z" fill="black"/>
<path d="M419.462 632.96C416.984 632.96 414.974 630.951 414.974 628.473V498.448C414.974 495.97 416.984 493.961 419.462 493.961H455.049C457.527 493.961 459.536 495.97 459.536 498.448V518.953C459.536 523.079 464.636 525.017 467.377 521.934L490.903 495.467C491.754 494.509 492.975 493.961 494.257 493.961H531.573C535.499 493.961 537.532 498.646 534.851 501.513L502.754 535.834C501.473 537.204 501.179 539.227 502.018 540.905L544.799 626.466C546.29 629.449 544.121 632.96 540.785 632.96H502.644C500.91 632.96 499.331 631.961 498.589 630.394L473.029 576.453C471.662 573.57 467.809 572.993 465.659 575.35L460.708 580.777C459.954 581.603 459.536 582.682 459.536 583.801V628.473C459.536 630.951 457.527 632.96 455.049 632.96H419.462Z" fill="black"/>
<path d="M558.814 632.96C556.336 632.96 554.327 630.951 554.327 628.473V498.448C554.327 495.97 556.336 493.961 558.814 493.961H650.614C653.092 493.961 655.101 495.97 655.101 498.448V524.632C655.101 527.11 653.092 529.119 650.614 529.119H603.375C600.897 529.119 598.888 531.128 598.888 533.606V541.394C598.888 543.872 600.897 545.881 603.375 545.881H650.614C653.092 545.881 655.101 547.89 655.101 550.368V575.53C655.101 578.009 653.092 580.018 650.614 580.018H603.375C600.897 580.018 598.888 582.026 598.888 584.505V593.314C598.888 595.792 600.897 597.801 603.375 597.801H650.614C653.092 597.801 655.101 599.81 655.101 602.288V628.473C655.101 630.951 653.092 632.96 650.614 632.96H558.814Z" fill="black"/>
<path d="M704.458 632.96C701.979 632.96 699.971 630.951 699.971 628.473V533.569C699.971 531.091 697.961 529.082 695.483 529.082H667.922C665.444 529.082 663.435 527.073 663.435 524.595V498.448C663.435 495.97 665.444 493.961 667.922 493.961H776.377C778.855 493.961 780.864 495.97 780.864 498.448V524.595C780.864 527.073 778.855 529.082 776.377 529.082H749.019C746.541 529.082 744.532 531.091 744.532 533.569V628.473C744.532 630.951 742.523 632.96 740.045 632.96H704.458Z" fill="black"/>
<path d="M792.357 632.96C789.879 632.96 787.87 630.951 787.87 628.473V498.448C787.87 495.97 789.879 493.961 792.357 493.961H827.945C830.423 493.961 832.432 495.97 832.432 498.448V628.473C832.432 630.951 830.423 632.96 827.945 632.96H792.357Z" fill="black"/>
<path d="M850.018 632.96C847.54 632.96 845.531 630.951 845.531 628.473V498.448C845.531 495.97 847.54 493.961 850.018 493.961H887.12C888.922 493.961 890.549 495.039 891.252 496.698L910.296 541.674C912.202 546.177 918.915 544.815 918.915 539.924V498.448C918.915 495.97 920.924 493.961 923.402 493.961H958.785C961.263 493.961 963.272 495.97 963.272 498.448V628.473C963.272 630.951 961.263 632.96 958.785 632.96H921.852C920.068 632.96 918.454 631.903 917.74 630.268L898.693 586.635C896.747 582.178 890.093 583.567 890.093 588.43V628.473C890.093 630.951 888.084 632.96 885.606 632.96H850.018Z" fill="black"/>
<path d="M1018.25 633.777C990.452 633.777 973.895 616.607 973.895 589.012V537.909C973.895 510.518 990.452 493.348 1018.25 493.348H1045.64C1073.65 493.348 1090 510.518 1090 537.909V539.759C1090 542.237 1087.99 544.246 1085.51 544.246H1049.93C1047.45 544.246 1045.44 542.237 1045.44 539.759V538.931C1045.44 532.39 1041.55 528.915 1035.22 528.915H1028.68C1022.34 528.915 1018.46 532.39 1018.46 538.931V588.194C1018.46 594.531 1022.34 598.21 1028.68 598.21H1036.44C1042.78 598.21 1046.05 595.962 1046.05 589.829V589.206C1046.05 586.728 1044.04 584.719 1041.56 584.719H1036.03C1033.55 584.719 1031.54 582.71 1031.54 580.232V558.953C1031.54 556.475 1033.55 554.466 1036.03 554.466H1085.51C1087.99 554.466 1090 556.475 1090 558.953V590.034C1090 617.629 1073.65 633.777 1045.64 633.777H1018.25Z" fill="black"/>
<path d="M73.3568 471.71C70.8786 471.71 68.8697 469.701 68.8697 467.223V337.198C68.8697 334.72 70.8786 332.711 73.3568 332.711H120.977C123.031 332.711 124.822 334.105 125.327 336.096L139.925 393.736C141.069 398.256 147.493 398.248 148.627 393.725L163.069 336.107C163.57 334.111 165.364 332.711 167.422 332.711H215.033C217.511 332.711 219.52 334.72 219.52 337.198V467.223C219.52 469.701 217.511 471.71 215.033 471.71H179.446C176.968 471.71 174.959 469.701 174.959 467.223V425.914C174.959 420.692 167.547 419.681 166.148 424.713L154 468.424C153.46 470.366 151.692 471.71 149.677 471.71H138.713C136.698 471.71 134.93 470.366 134.39 468.424L122.242 424.713C120.843 419.681 113.431 420.692 113.431 425.914V467.223C113.431 469.701 111.422 471.71 108.944 471.71H73.3568Z" fill="black"/>
<path d="M233.283 471.71C230.805 471.71 228.796 469.701 228.796 467.223V337.198C228.796 334.72 230.805 332.711 233.283 332.711H325.083C327.561 332.711 329.57 334.72 329.57 337.198V363.382C329.57 365.86 327.561 367.869 325.083 367.869H277.845C275.367 367.869 273.358 369.878 273.358 372.356V380.144C273.358 382.622 275.367 384.631 277.845 384.631H325.083C327.561 384.631 329.57 386.64 329.57 389.118V414.28C329.57 416.758 327.561 418.767 325.083 418.767H277.845C275.367 418.767 273.358 420.776 273.358 423.254V432.064C273.358 434.542 275.367 436.551 277.845 436.551H325.083C327.561 436.551 329.57 438.56 329.57 441.038V467.223C329.57 469.701 327.561 471.71 325.083 471.71H233.283Z" fill="black"/>
<path d="M382.869 472.323C355.069 472.323 338.103 455.152 338.103 428.17V376.25C338.103 349.268 355.069 332.097 382.869 332.097H410.464C438.264 332.097 455.23 349.268 455.23 376.25V387.298C455.23 389.776 453.221 391.785 450.743 391.785H414.952C412.473 391.785 410.464 389.776 410.464 387.298V377.272C410.464 371.14 406.581 367.665 400.04 367.665H393.294C386.753 367.665 382.869 371.14 382.869 377.272V427.148C382.869 433.281 386.753 436.755 393.294 436.755H400.04C406.581 436.755 410.464 433.281 410.464 427.148V414.26C410.464 411.782 412.473 409.773 414.952 409.773H450.743C453.221 409.773 455.23 411.782 455.23 414.26V428.17C455.23 455.152 438.264 472.323 410.464 472.323H382.869Z" fill="black"/>
<path d="M467.132 471.71C464.654 471.71 462.645 469.701 462.645 467.223V337.198C462.645 334.72 464.654 332.711 467.132 332.711H502.719C505.197 332.711 507.206 334.72 507.206 337.198V378.917C507.206 381.395 509.215 383.404 511.693 383.404H537.878C540.356 383.404 542.365 381.395 542.365 378.917V337.198C542.365 334.72 544.374 332.711 546.852 332.711H582.439C584.917 332.711 586.926 334.72 586.926 337.198V467.223C586.926 469.701 584.917 471.71 582.439 471.71H546.852C544.374 471.71 542.365 469.701 542.365 467.223V423.459C542.365 420.981 540.356 418.972 537.878 418.972H511.693C509.215 418.972 507.206 420.981 507.206 423.459V467.223C507.206 469.701 505.197 471.71 502.719 471.71H467.132Z" fill="black"/>
<path d="M597.865 471.71C595.031 471.71 592.906 469.115 593.466 466.336L619.662 336.312C620.084 334.217 621.925 332.711 624.061 332.711H678.242C680.378 332.711 682.219 334.217 682.641 336.312L708.837 466.336C709.396 469.115 707.272 471.71 704.438 471.71H669.057C666.819 471.71 664.923 470.06 664.613 467.844L663.037 456.565C662.727 454.349 660.831 452.699 658.593 452.699H643.343C641.087 452.699 639.182 454.375 638.893 456.612L637.45 467.797C637.161 470.034 635.256 471.71 633 471.71H597.865ZM644.159 415.939C643.803 418.628 645.895 421.016 648.608 421.016H653.305C656.011 421.016 658.101 418.638 657.755 415.955L655.439 398.002C654.767 392.794 647.231 392.781 646.54 397.987L644.159 415.939Z" fill="black"/>
<path d="M719.232 471.71C716.753 471.71 714.744 469.701 714.744 467.223V337.198C714.744 334.72 716.753 332.711 719.232 332.711H756.333C758.135 332.711 759.762 333.789 760.465 335.448L779.509 380.424C781.415 384.927 788.128 383.564 788.128 378.674V337.198C788.128 334.72 790.137 332.711 792.615 332.711H827.998C830.476 332.711 832.485 334.72 832.485 337.198V467.223C832.485 469.701 830.476 471.71 827.998 471.71H791.065C789.281 471.71 787.666 470.653 786.952 469.018L767.905 425.385C765.96 420.928 759.306 422.317 759.306 427.18V467.223C759.306 469.701 757.297 471.71 754.819 471.71H719.232Z" fill="black"/>
<path d="M850.842 471.71C848.364 471.71 846.355 469.701 846.355 467.223V337.198C846.355 334.72 848.364 332.711 850.842 332.711H886.429C888.907 332.711 890.916 334.72 890.916 337.198V467.223C890.916 469.701 888.907 471.71 886.429 471.71H850.842Z" fill="black"/>
<path d="M946.98 472.323C919.18 472.323 902.215 455.152 902.215 428.17V376.25C902.215 349.268 919.18 332.097 946.98 332.097H974.576C1002.38 332.097 1019.34 349.268 1019.34 376.25V387.298C1019.34 389.776 1017.33 391.785 1014.85 391.785H979.063C976.585 391.785 974.576 389.776 974.576 387.298V377.272C974.576 371.14 970.692 367.665 964.151 367.665H957.405C950.864 367.665 946.98 371.14 946.98 377.272V427.148C946.98 433.281 950.864 436.755 957.405 436.755H964.151C970.692 436.755 974.576 433.281 974.576 427.148V414.26C974.576 411.782 976.585 409.773 979.063 409.773H1014.85C1017.33 409.773 1019.34 411.782 1019.34 414.26V428.17C1019.34 455.152 1002.38 472.323 974.576 472.323H946.98Z" fill="black"/>
</svg>
