<svg width="1101" height="418" viewBox="0 0 1101 418" fill="none" xmlns="http://www.w3.org/2000/svg">
<path fill-rule="evenodd" clip-rule="evenodd" d="M35.3553 407.652C21.4215 407.652 10.126 396.357 10.126 382.423V35.2298C10.126 21.2961 21.4215 10.0005 35.3553 10.0005H1064.9C1078.83 10.0005 1090.13 21.2961 1090.13 35.2298V382.423C1090.13 396.357 1078.83 407.652 1064.9 407.652H35.3553ZM135.378 67.8367C136.596 59.6051 143.66 53.5081 151.982 53.5081H273.237C281.558 53.5081 288.622 59.6051 289.84 67.8367L308.515 194.133C311.34 213.237 338.897 213.237 341.722 194.133L360.397 67.8367C361.614 59.6051 368.679 53.5081 377 53.5081H498.241C506.563 53.5081 513.627 59.6051 514.845 67.8367L533.527 194.179C536.352 213.284 563.908 213.284 566.734 194.179L585.416 67.8367C586.633 59.6051 593.698 53.5081 602.019 53.5081H723.274C731.595 53.5081 738.66 59.6051 739.877 67.8367L758.553 194.133C761.378 213.237 788.934 213.237 791.759 194.133L810.435 67.8367C811.652 59.6051 818.717 53.5081 827.038 53.5081H948.279C956.6 53.5081 963.665 59.6051 964.882 67.8367L1005.85 344.906C1007.35 355.042 999.497 364.145 989.25 364.145H916.504C908.182 364.145 901.118 358.048 899.9 349.816L881.225 223.52C878.4 204.415 850.843 204.415 848.018 223.52L829.343 349.816C828.126 358.048 821.061 364.145 812.74 364.145H737.572C729.251 364.145 722.186 358.048 720.969 349.816L702.287 223.473C699.462 204.368 671.905 204.369 669.08 223.473L650.398 349.816C649.181 358.048 642.116 364.145 633.795 364.145H466.466C458.145 364.145 451.08 358.048 449.863 349.816L431.187 223.52C428.362 204.415 400.806 204.415 397.981 223.52L379.305 349.816C378.088 358.048 371.023 364.145 362.702 364.145H287.535C279.214 364.145 272.149 358.048 270.932 349.816L252.249 223.473C249.424 204.368 221.868 204.368 219.043 223.473L200.36 349.816C199.143 358.048 192.078 364.145 183.757 364.145H111.011C100.764 364.145 92.9088 355.042 94.4077 344.906L135.378 67.8367Z" fill="black"/>
</svg>
