<svg width="1101" height="418" viewBox="0 0 1101 418" fill="none" xmlns="http://www.w3.org/2000/svg">
<path fill-rule="evenodd" clip-rule="evenodd" d="M35.3553 407.718C21.4215 407.718 10.126 396.422 10.126 382.488V35.2955C10.126 21.3617 21.4215 10.0662 35.3553 10.0662H1064.9C1078.83 10.0662 1090.13 21.3617 1090.13 35.2955V382.488C1090.13 396.422 1078.83 407.718 1064.9 407.718H35.3553ZM135.378 67.9024C136.596 59.6707 143.66 53.5738 151.982 53.5738H273.237C281.558 53.5738 288.622 59.6708 289.84 67.9024L308.515 194.198C311.34 213.303 338.897 213.303 341.722 194.198L360.397 67.9024C361.614 59.6708 368.679 53.5738 377 53.5738H498.241C506.563 53.5738 513.627 59.6707 514.845 67.9024L533.527 194.245C536.352 213.35 563.908 213.35 566.734 194.245L585.416 67.9024C586.633 59.6708 593.698 53.5738 602.019 53.5738H723.274C731.595 53.5738 738.66 59.6708 739.877 67.9024L758.553 194.198C761.378 213.303 788.934 213.303 791.759 194.198L810.435 67.9024C811.652 59.6708 818.717 53.5738 827.038 53.5738H948.279C956.6 53.5738 963.665 59.6707 964.882 67.9024L1005.85 344.971C1007.35 355.108 999.497 364.21 989.25 364.21H916.504C908.182 364.21 901.118 358.113 899.9 349.882L881.225 223.586C878.4 204.481 850.843 204.481 848.018 223.586L829.343 349.882C828.126 358.113 821.061 364.21 812.74 364.21H737.572C729.251 364.21 722.186 358.113 720.969 349.882L702.287 223.539C699.462 204.434 671.905 204.434 669.08 223.539L650.398 349.882C649.181 358.113 642.116 364.21 633.795 364.21H466.466C458.145 364.21 451.08 358.113 449.863 349.882L431.187 223.586C428.362 204.481 400.806 204.481 397.981 223.586L379.305 349.882C378.088 358.113 371.023 364.21 362.702 364.21H287.535C279.214 364.21 272.149 358.113 270.932 349.882L252.249 223.539C249.424 204.434 221.868 204.434 219.043 223.539L200.36 349.882C199.143 358.113 192.078 364.21 183.757 364.21H111.011C100.764 364.21 92.9088 355.108 94.4077 344.971L135.378 67.9024Z" fill="#F0F0EC"/>
</svg>
