<svg width="2710" height="192" viewBox="0 0 2710 192" fill="none" xmlns="http://www.w3.org/2000/svg">
<path d="M10.9749 185.271C7.7794 185.271 5.18896 182.68 5.18896 179.485V11.8243C5.18896 8.62885 7.7794 6.03842 10.9749 6.03842H72.3786C75.027 6.03842 77.3372 7.83653 77.9874 10.4038L96.8109 84.7273C98.2869 90.5553 106.57 90.5451 108.032 84.7136L126.655 10.4176C127.3 7.84358 129.613 6.03842 132.267 6.03842H193.659C196.855 6.03842 199.445 8.62886 199.445 11.8243V179.485C199.445 182.68 196.855 185.271 193.659 185.271H147.771C144.576 185.271 141.985 182.68 141.985 179.485V126.22C141.985 119.486 132.428 118.182 130.625 124.67L114.96 181.034C114.264 183.538 111.984 185.271 109.385 185.271H95.2486C92.6498 185.271 90.3698 183.538 89.674 181.034L74.0093 124.67C72.2061 118.182 62.6487 119.486 62.6487 126.22V179.485C62.6487 182.68 60.0583 185.271 56.8628 185.271H10.9749Z" fill="#FF3D02"/>
<path d="M218.717 185.271C215.521 185.271 212.931 182.68 212.931 179.485V11.8243C212.931 8.62885 215.521 6.03842 218.717 6.03842H337.089C340.284 6.03842 342.874 8.62886 342.874 11.8243V45.5877C342.874 48.7832 340.284 51.3736 337.089 51.3736H276.177C272.981 51.3736 270.391 53.9641 270.391 57.1595V67.201C270.391 70.3965 272.981 72.9869 276.177 72.9869H337.089C340.284 72.9869 342.874 75.5774 342.874 78.7728V111.218C342.874 114.414 340.284 117.004 337.089 117.004H276.177C272.981 117.004 270.391 119.595 270.391 122.79V134.15C270.391 137.345 272.981 139.935 276.177 139.935H337.089C340.284 139.935 342.874 142.526 342.874 145.721V179.485C342.874 182.68 340.284 185.271 337.089 185.271H218.717Z" fill="#FF3D02"/>
<path d="M412.675 186.061C376.829 186.061 354.952 163.921 354.952 129.129V62.1803C354.952 27.3881 376.829 5.24768 412.675 5.24768H448.258C484.105 5.24768 505.982 27.3881 505.982 62.1803V76.4262C505.982 79.6217 503.391 82.2121 500.196 82.2121H454.044C450.849 82.2121 448.258 79.6217 448.258 76.4262V63.4982C448.258 55.5909 443.25 51.1101 434.816 51.1101H426.118C417.683 51.1101 412.675 55.5909 412.675 63.4982V127.811C412.675 135.718 417.683 140.199 426.118 140.199H434.816C443.25 140.199 448.258 135.718 448.258 127.811V111.193C448.258 107.997 450.849 105.407 454.044 105.407H500.196C503.391 105.407 505.982 107.997 505.982 111.193V129.129C505.982 163.921 484.105 186.061 448.258 186.061H412.675Z" fill="#FF3D02"/>
<path d="M521.781 185.271C518.585 185.271 515.995 182.68 515.995 179.485V11.8243C515.995 8.62885 518.585 6.03842 521.781 6.03842H567.668C570.864 6.03842 573.454 8.62886 573.454 11.8243V65.6196C573.454 68.815 576.045 71.4055 579.24 71.4055H613.004C616.199 71.4055 618.79 68.815 618.79 65.6196V11.8243C618.79 8.62886 621.38 6.03842 624.576 6.03842H670.464C673.659 6.03842 676.25 8.62886 676.25 11.8243V179.485C676.25 182.68 673.659 185.271 670.464 185.271H624.576C621.38 185.271 618.79 182.68 618.79 179.485V123.054C618.79 119.858 616.199 117.268 613.004 117.268H579.24C576.045 117.268 573.454 119.858 573.454 123.054V179.485C573.454 182.68 570.864 185.271 567.668 185.271H521.781Z" fill="#FF3D02"/>
<path d="M692.014 185.271C688.36 185.271 685.62 181.925 686.342 178.342L720.121 10.6816C720.665 7.9809 723.038 6.03842 725.793 6.03842H795.656C798.411 6.03842 800.784 7.98091 801.328 10.6816L835.106 178.342C835.828 181.925 833.089 185.271 829.435 185.271H783.813C780.927 185.271 778.482 183.144 778.083 180.286L776.05 165.743C775.65 162.885 773.206 160.758 770.32 160.758H750.656C747.747 160.758 745.29 162.918 744.918 165.804L743.057 180.225C742.685 183.11 740.228 185.271 737.319 185.271H692.014ZM751.709 113.357C751.249 116.824 753.947 119.904 757.444 119.904H763.501C766.99 119.904 769.686 116.838 769.239 113.377L766.253 90.2287C765.386 83.5133 755.669 83.4962 754.778 90.2085L751.709 113.357Z" fill="#FF3D02"/>
<path d="M849.868 185.271C846.673 185.271 844.082 182.68 844.082 179.485V11.8243C844.082 8.62885 846.673 6.03842 849.868 6.03842H897.709C900.032 6.03842 902.13 7.42856 903.037 9.56834L927.592 67.5618C930.051 73.3686 938.706 71.6117 938.706 65.3058V11.8243C938.706 8.62886 941.297 6.03842 944.492 6.03842H990.116C993.312 6.03842 995.902 8.62886 995.902 11.8243V179.485C995.902 182.68 993.312 185.271 990.116 185.271H942.494C940.193 185.271 938.111 183.908 937.191 181.8L912.631 125.537C910.122 119.79 901.542 121.581 901.542 127.852V179.485C901.542 182.68 898.952 185.271 895.756 185.271H849.868Z" fill="#FF3D02"/>
<path d="M1019.57 185.271C1016.38 185.271 1013.79 182.68 1013.79 179.485V11.8243C1013.79 8.62885 1016.38 6.03842 1019.57 6.03842H1065.46C1068.66 6.03842 1071.25 8.62886 1071.25 11.8243V179.485C1071.25 182.68 1068.66 185.271 1065.46 185.271H1019.57Z" fill="#FF3D02"/>
<path d="M1143.54 186.061C1107.69 186.061 1085.82 163.921 1085.82 129.129V62.1803C1085.82 27.3881 1107.69 5.24768 1143.54 5.24768H1179.12C1214.97 5.24768 1236.85 27.3881 1236.85 62.1803V76.4262C1236.85 79.6217 1234.26 82.2121 1231.06 82.2121H1184.91C1181.71 82.2121 1179.12 79.6217 1179.12 76.4262V63.4982C1179.12 55.5909 1174.11 51.1101 1165.68 51.1101H1156.98C1148.55 51.1101 1143.54 55.5909 1143.54 63.4982V127.811C1143.54 135.718 1148.55 140.199 1156.98 140.199H1165.68C1174.11 140.199 1179.12 135.718 1179.12 127.811V111.193C1179.12 107.997 1181.71 105.407 1184.91 105.407H1231.06C1234.26 105.407 1236.85 107.997 1236.85 111.193V129.129C1236.85 163.921 1214.97 186.061 1179.12 186.061H1143.54Z" fill="#FF3D02"/>
<path d="M1309.63 186.309C1306.44 186.309 1303.85 183.718 1303.85 180.523V12.8625C1303.85 9.66702 1306.44 7.0766 1309.63 7.0766H1371.04C1373.68 7.0766 1375.99 8.87472 1376.64 11.442L1395.47 85.7655C1396.94 91.5934 1405.23 91.5832 1406.69 85.7517L1425.31 11.4558C1425.96 8.88177 1428.27 7.0766 1430.92 7.0766H1492.32C1495.51 7.0766 1498.1 9.66705 1498.1 12.8625V180.523C1498.1 183.718 1495.51 186.309 1492.32 186.309H1446.43C1443.23 186.309 1440.64 183.718 1440.64 180.523V127.258C1440.64 120.524 1431.08 119.221 1429.28 125.708L1413.62 182.072C1412.92 184.576 1410.64 186.309 1408.04 186.309H1393.91C1391.31 186.309 1389.03 184.576 1388.33 182.072L1372.67 125.709C1370.86 119.221 1361.31 120.524 1361.31 127.258V180.523C1361.31 183.718 1358.72 186.309 1355.52 186.309H1309.63Z" fill="#FF3D02"/>
<path d="M1515.31 185.023C1511.65 185.023 1508.91 181.677 1509.64 178.095L1543.42 10.4341C1543.96 7.73345 1546.33 5.79097 1549.09 5.79097H1618.95C1621.71 5.79097 1624.08 7.73348 1624.62 10.4342L1658.4 178.095C1659.12 181.677 1656.38 185.023 1652.73 185.023H1607.11C1604.22 185.023 1601.78 182.896 1601.38 180.038L1599.34 165.496C1598.94 162.637 1596.5 160.511 1593.61 160.511H1573.95C1571.04 160.511 1568.58 162.671 1568.21 165.556L1566.35 179.978C1565.98 182.863 1563.52 185.023 1560.61 185.023H1515.31ZM1575 113.11C1574.54 116.577 1577.24 119.656 1580.74 119.656H1586.8C1590.29 119.656 1592.98 116.591 1592.53 113.13L1589.55 89.9812C1588.68 83.2659 1578.96 83.2488 1578.07 89.9611L1575 113.11Z" fill="#FF3D02"/>
<path d="M1676.27 185.023C1673.07 185.023 1670.48 182.433 1670.48 179.237V11.5769C1670.48 8.38139 1673.07 5.79097 1676.27 5.79097H1766.42C1795.15 5.79097 1812.81 22.9234 1812.81 50.599V71.1581C1812.81 88.6646 1805.97 100.534 1793.69 107.295C1790.74 108.917 1789.25 112.496 1790.69 115.539L1819.48 176.775C1821.28 180.613 1818.48 185.023 1814.24 185.023H1768.9C1766.6 185.023 1764.51 183.653 1763.59 181.537L1737.4 121.047C1736.62 119.242 1734.84 118.075 1732.87 118.075C1730.15 118.075 1727.94 120.283 1727.94 123.007V179.237C1727.94 182.433 1725.35 185.023 1722.15 185.023H1676.27ZM1727.94 72.7523C1727.94 75.9477 1730.53 78.5382 1733.73 78.5382H1745.34C1752.45 78.5382 1756.93 74.321 1756.93 67.7316V58.5063C1756.93 51.9169 1752.45 47.6996 1745.34 47.6996H1733.73C1730.53 47.6996 1727.94 50.2901 1727.94 53.4856V72.7523Z" fill="#FF3D02"/>
<path d="M1837.77 185.023C1834.58 185.023 1831.99 182.433 1831.99 179.237V11.5769C1831.99 8.38139 1834.58 5.79097 1837.77 5.79097H1883.66C1886.86 5.79097 1889.45 8.38144 1889.45 11.5769V38.0167C1889.45 43.3369 1896.02 45.837 1899.56 41.8606L1929.89 7.73293C1930.99 6.49771 1932.56 5.79097 1934.22 5.79097H1982.33C1987.4 5.79097 1990.02 11.8319 1986.56 15.5289L1945.17 59.7839C1943.52 61.5509 1943.14 64.1596 1944.22 66.3235L1999.39 176.65C2001.31 180.497 1998.51 185.023 1994.21 185.023H1945.03C1942.8 185.023 1940.76 183.735 1939.8 181.715L1906.84 112.16C1905.08 108.443 1900.11 107.699 1897.34 110.738L1890.96 117.736C1889.98 118.802 1889.45 120.192 1889.45 121.635V179.237C1889.45 182.433 1886.86 185.023 1883.66 185.023H1837.77Z" fill="#FF3D02"/>
<path d="M2013.5 185.023C2010.3 185.023 2007.71 182.433 2007.71 179.237V11.5769C2007.71 8.38139 2010.3 5.79097 2013.5 5.79097H2131.87C2135.06 5.79097 2137.65 8.38144 2137.65 11.5769V45.3403C2137.65 48.5357 2135.06 51.1262 2131.87 51.1262H2070.96C2067.76 51.1262 2065.17 53.7166 2065.17 56.9121V66.9535C2065.17 70.149 2067.76 72.7395 2070.96 72.7395H2131.87C2135.06 72.7395 2137.65 75.3299 2137.65 78.5254V110.971C2137.65 114.166 2135.06 116.757 2131.87 116.757H2070.96C2067.76 116.757 2065.17 119.347 2065.17 122.543V133.902C2065.17 137.098 2067.76 139.688 2070.96 139.688H2131.87C2135.06 139.688 2137.65 142.278 2137.65 145.474V179.237C2137.65 182.433 2135.06 185.023 2131.87 185.023H2013.5Z" fill="#FF3D02"/>
<path d="M2203.28 185.023C2200.08 185.023 2197.49 182.433 2197.49 179.237V57.4392C2197.49 54.2438 2194.9 51.6533 2191.71 51.6533H2156.17C2152.97 51.6533 2150.38 49.0629 2150.38 45.8674V11.5769C2150.38 8.38144 2152.97 5.79097 2156.17 5.79097H2296.01C2299.21 5.79097 2301.8 8.38144 2301.8 11.5769V45.8674C2301.8 49.0629 2299.21 51.6533 2296.01 51.6533H2260.74C2257.54 51.6533 2254.95 54.2438 2254.95 57.4392V179.237C2254.95 182.433 2252.36 185.023 2249.17 185.023H2203.28Z" fill="#FF3D02"/>
<path d="M2318.6 185.023C2315.41 185.023 2312.82 182.433 2312.82 179.237V11.5769C2312.82 8.38139 2315.41 5.79097 2318.6 5.79097H2364.49C2367.69 5.79097 2370.28 8.38144 2370.28 11.5769V179.237C2370.28 182.433 2367.69 185.023 2364.49 185.023H2318.6Z" fill="#FF3D02"/>
<path d="M2392.95 185.023C2389.76 185.023 2387.17 182.433 2387.17 179.237V11.5769C2387.17 8.38139 2389.76 5.79097 2392.95 5.79097H2440.79C2443.12 5.79097 2445.22 7.18111 2446.12 9.32089L2470.68 67.3144C2473.14 73.1212 2481.79 71.3643 2481.79 65.0583V11.5769C2481.79 8.38144 2484.38 5.79097 2487.58 5.79097H2533.2C2536.4 5.79097 2538.99 8.38144 2538.99 11.5769V179.237C2538.99 182.433 2536.4 185.023 2533.2 185.023H2485.58C2483.28 185.023 2481.2 183.66 2480.28 181.552L2455.72 125.289C2453.21 119.543 2444.63 121.334 2444.63 127.604V179.237C2444.63 182.433 2442.04 185.023 2438.84 185.023H2392.95Z" fill="#FF3D02"/>
<path d="M2611.86 186.078C2576.02 186.078 2554.67 163.937 2554.67 128.354V62.4599C2554.67 27.1406 2576.02 5.00024 2611.86 5.00024H2647.18C2683.29 5.00024 2704.38 27.1406 2704.38 62.4599V64.845C2704.38 68.0404 2701.79 70.6309 2698.59 70.6309H2652.71C2649.51 70.6309 2646.92 68.0404 2646.92 64.845V63.7779C2646.92 55.3434 2641.91 50.8626 2633.74 50.8626H2625.31C2617.14 50.8626 2612.13 55.3434 2612.13 63.7779V127.3C2612.13 135.471 2617.14 140.215 2625.31 140.215H2635.32C2643.49 140.215 2647.71 137.316 2647.71 129.408V128.605C2647.71 125.41 2645.12 122.819 2641.92 122.819H2634.78C2631.59 122.819 2629 120.229 2629 117.033V89.5956C2629 86.4001 2631.59 83.8097 2634.78 83.8097H2698.59C2701.79 83.8097 2704.38 86.4001 2704.38 89.5956V129.672C2704.38 165.255 2683.29 186.078 2647.18 186.078H2611.86Z" fill="#FF3D02"/>
</svg>
