<svg width="1101" height="317" viewBox="0 0 1101 317" fill="none" xmlns="http://www.w3.org/2000/svg">
<path d="M14.5247 306.066C12.0606 306.066 10.063 304.068 10.063 301.604V172.316C10.063 169.851 12.0606 167.854 14.5247 167.854H61.8753C63.9175 167.854 65.699 169.24 66.2004 171.22L80.7158 228.534C81.854 233.028 88.2417 233.02 89.3688 228.523L103.729 171.231C104.227 169.246 106.011 167.854 108.057 167.854H155.399C157.863 167.854 159.861 169.851 159.861 172.316V301.604C159.861 304.068 157.863 306.066 155.399 306.066H120.013C117.549 306.066 115.551 304.068 115.551 301.604V260.53C115.551 255.337 108.181 254.332 106.791 259.335L94.7113 302.799C94.1747 304.73 92.4165 306.066 90.4125 306.066H79.5111C77.5071 306.066 75.7489 304.73 75.2123 302.799L63.1327 259.335C61.7422 254.332 54.3722 255.337 54.3722 260.53V301.604C54.3722 304.068 52.3746 306.066 49.9105 306.066H14.5247Z" fill="#F0F0EC"/>
<path d="M173.129 305.075C170.311 305.075 168.199 302.494 168.755 299.732L194.803 170.443C195.223 168.36 197.053 166.862 199.177 166.862H253.051C255.176 166.862 257.006 168.36 257.425 170.443L283.473 299.732C284.03 302.494 281.917 305.075 279.099 305.075H243.919C241.693 305.075 239.808 303.435 239.5 301.231L237.932 290.016C237.624 287.812 235.739 286.172 233.513 286.172H218.35C216.107 286.172 214.212 287.838 213.925 290.063L212.49 301.184C212.203 303.409 210.309 305.075 208.065 305.075H173.129ZM219.162 249.62C218.807 252.293 220.888 254.668 223.585 254.668H228.255C230.946 254.668 233.025 252.304 232.68 249.635L230.377 231.784C229.709 226.606 222.215 226.593 221.529 231.769L219.162 249.62Z" fill="#F0F0EC"/>
<path d="M297.25 305.075C294.785 305.075 292.788 303.077 292.788 300.613V171.324C292.788 168.86 294.785 166.862 297.25 166.862H366.772C388.927 166.862 402.545 180.074 402.545 201.415V217.269C402.545 230.769 397.266 239.922 387.796 245.136C385.524 246.387 384.379 249.146 385.482 251.493L407.684 298.714C409.076 301.674 406.916 305.075 403.647 305.075H368.686C366.907 305.075 365.298 304.018 364.591 302.386L344.39 255.74C343.788 254.349 342.417 253.448 340.9 253.448C338.8 253.448 337.097 255.151 337.097 257.252V300.613C337.097 303.077 335.099 305.075 332.635 305.075H297.25ZM337.097 218.499C337.097 220.963 339.095 222.96 341.559 222.96H350.512C356 222.96 359.455 219.708 359.455 214.627V207.513C359.455 202.432 356 199.18 350.512 199.18H341.559C339.095 199.18 337.097 201.177 337.097 203.641V218.499Z" fill="#F0F0EC"/>
<path d="M421.792 305.075C419.328 305.075 417.33 303.077 417.33 300.613V171.324C417.33 168.86 419.328 166.862 421.792 166.862H457.178C459.642 166.862 461.639 168.86 461.639 171.324V191.713C461.639 195.815 466.71 197.743 469.436 194.677L492.829 168.36C493.675 167.407 494.889 166.862 496.163 166.862H533.269C537.172 166.862 539.194 171.521 536.528 174.372L504.613 208.498C503.339 209.861 503.047 211.872 503.881 213.541L546.419 298.618C547.903 301.584 545.746 305.075 542.429 305.075H504.503C502.779 305.075 501.21 304.081 500.471 302.523L475.056 248.887C473.697 246.021 469.865 245.448 467.727 247.791L462.805 253.187C462.055 254.009 461.639 255.081 461.639 256.194V300.613C461.639 303.077 459.642 305.075 457.178 305.075H421.792Z" fill="#F0F0EC"/>
<path d="M557.298 305.075C554.834 305.075 552.837 303.077 552.837 300.613V171.324C552.837 168.86 554.834 166.862 557.298 166.862H648.579C651.043 166.862 653.041 168.86 653.041 171.324V197.36C653.041 199.824 651.043 201.822 648.579 201.822H601.608C599.143 201.822 597.146 203.82 597.146 206.284V214.027C597.146 216.491 599.143 218.489 601.608 218.489H648.579C651.043 218.489 653.041 220.486 653.041 222.95V247.97C653.041 250.434 651.043 252.432 648.579 252.432H601.608C599.143 252.432 597.146 254.43 597.146 256.894V265.653C597.146 268.117 599.143 270.115 601.608 270.115H648.579C651.043 270.115 653.041 272.113 653.041 274.577V300.613C653.041 303.077 651.043 305.075 648.579 305.075H557.298Z" fill="#F0F0EC"/>
<path d="M703.646 305.075C701.182 305.075 699.185 303.077 699.185 300.613V206.69C699.185 204.226 697.187 202.228 694.723 202.228H667.317C664.853 202.228 662.855 200.231 662.855 197.767V171.324C662.855 168.86 664.853 166.862 667.317 166.862H775.158C777.622 166.862 779.62 168.86 779.62 171.324V197.767C779.62 200.231 777.622 202.228 775.158 202.228H747.955C745.491 202.228 743.494 204.226 743.494 206.69V300.613C743.494 303.077 741.496 305.075 739.032 305.075H703.646Z" fill="#F0F0EC"/>
<path d="M792.577 305.075C790.113 305.075 788.115 303.077 788.115 300.613V171.324C788.115 168.86 790.113 166.862 792.577 166.862H827.962C830.427 166.862 832.424 168.86 832.424 171.324V300.613C832.424 303.077 830.427 305.075 827.962 305.075H792.577Z" fill="#F0F0EC"/>
<path d="M849.912 305.075C847.447 305.075 845.45 303.077 845.45 300.613V171.324C845.45 168.86 847.447 166.862 849.912 166.862L886.803 166.862C888.595 166.862 890.213 167.934 890.912 169.584L909.847 214.305C911.743 218.783 918.418 217.428 918.418 212.566V171.324C918.418 168.86 920.415 166.862 922.88 166.862H958.062C960.526 166.862 962.524 168.86 962.524 171.324V300.613C962.524 303.077 960.526 305.075 958.062 305.075H921.338C919.564 305.075 917.959 304.024 917.249 302.398L898.31 259.012C896.375 254.58 889.759 255.962 889.759 260.797V300.613C889.759 303.077 887.762 305.075 885.297 305.075H849.912Z" fill="#F0F0EC"/>
<path d="M1018.72 305.888C991.079 305.888 974.615 288.814 974.615 261.375V210.562C974.615 183.326 991.079 166.253 1018.72 166.253H1045.96C1073.8 166.253 1090.06 183.326 1090.06 210.562V212.401C1090.06 214.865 1088.07 216.863 1085.6 216.863H1050.22C1047.75 216.863 1045.75 214.865 1045.75 212.401V211.578C1045.75 205.074 1041.89 201.619 1035.59 201.619H1029.09C1022.79 201.619 1018.92 205.074 1018.92 211.578V260.562C1018.92 266.863 1022.79 270.522 1029.09 270.522H1036.81C1043.11 270.522 1046.36 268.286 1046.36 262.188V261.569C1046.36 259.104 1044.37 257.107 1041.9 257.107H1036.39C1033.93 257.107 1031.93 255.109 1031.93 252.645V231.487C1031.93 229.023 1033.93 227.025 1036.39 227.025H1085.6C1088.07 227.025 1090.06 229.023 1090.06 231.487V262.391C1090.06 289.831 1073.8 305.888 1045.96 305.888H1018.72Z" fill="#F0F0EC"/>
<path d="M14.5247 148.888C12.0606 148.888 10.063 146.891 10.063 144.426V15.1376C10.063 12.6735 12.0606 10.6759 14.5247 10.6759L61.8753 10.6759C63.9175 10.6759 65.699 12.0625 66.2004 14.0422L80.7158 71.3557C81.854 75.8498 88.2416 75.8419 89.3688 71.345L103.729 14.0529C104.227 12.0679 106.011 10.6759 108.057 10.6759L155.399 10.6759C157.863 10.6759 159.861 12.6735 159.861 15.1376V144.426C159.861 146.891 157.863 148.888 155.399 148.888H120.013C117.549 148.888 115.551 146.891 115.551 144.426V103.352C115.551 98.1591 108.181 97.154 106.791 102.157L94.7113 145.621C94.1746 147.552 92.4165 148.888 90.4125 148.888H79.5111C77.507 148.888 75.7489 147.552 75.2123 145.621L63.1327 102.157C61.7422 97.154 54.3722 98.1591 54.3722 103.352V144.426C54.3722 146.891 52.3746 148.888 49.9105 148.888H14.5247Z" fill="#F0F0EC"/>
<path d="M174.722 148.888C172.258 148.888 170.26 146.891 170.26 144.426V15.1376C170.26 12.6735 172.258 10.6759 174.722 10.6759L266.002 10.6759C268.466 10.6759 270.464 12.6735 270.464 15.1376V41.1737C270.464 43.6379 268.466 45.6355 266.002 45.6355H219.031C216.567 45.6355 214.569 47.633 214.569 50.0972V57.8405C214.569 60.3046 216.567 62.3022 219.031 62.3022H266.002C268.466 62.3022 270.464 64.2998 270.464 66.764V91.7838C270.464 94.2479 268.466 96.2455 266.002 96.2455H219.031C216.567 96.2455 214.569 98.2431 214.569 100.707V109.467C214.569 111.931 216.567 113.929 219.031 113.929H266.002C268.466 113.929 270.464 115.926 270.464 118.39V144.426C270.464 146.891 268.466 148.888 266.002 148.888L174.722 148.888Z" fill="#F0F0EC"/>
<path d="M324.29 149.498C296.647 149.498 279.777 132.425 279.777 105.595V53.9689C279.777 27.1394 296.647 10.0662 324.29 10.0662L351.729 10.0662C379.371 10.0662 396.241 27.1394 396.241 53.9689V64.9544C396.241 67.4185 394.244 69.4161 391.78 69.4161H356.191C353.727 69.4161 351.729 67.4185 351.729 64.9544V54.9851C351.729 48.8875 347.867 45.4322 341.363 45.4322H334.656C328.152 45.4322 324.29 48.8875 324.29 54.9851V104.579C324.29 110.676 328.152 114.132 334.656 114.132H341.363C347.867 114.132 351.729 110.676 351.729 104.579V91.7641C351.729 89.3 353.727 87.3024 356.191 87.3024H391.78C394.244 87.3024 396.241 89.3 396.241 91.7641V105.595C396.241 132.425 379.371 149.498 351.729 149.498H324.29Z" fill="#F0F0EC"/>
<path d="M408.425 148.888C405.96 148.888 403.963 146.891 403.963 144.426V15.1376C403.963 12.6735 405.96 10.6759 408.425 10.6759L443.81 10.6759C446.274 10.6759 448.272 12.6735 448.272 15.1376V56.621C448.272 59.0851 450.27 61.0827 452.734 61.0827H478.77C481.234 61.0827 483.232 59.0851 483.232 56.621V15.1376C483.232 12.6735 485.229 10.6759 487.693 10.6759L523.079 10.6759C525.543 10.6759 527.541 12.6735 527.541 15.1376V144.426C527.541 146.891 525.543 148.888 523.079 148.888H487.693C485.229 148.888 483.232 146.891 483.232 144.426V100.91C483.232 98.4464 481.234 96.4488 478.77 96.4488H452.734C450.27 96.4488 448.272 98.4463 448.272 100.91V144.426C448.272 146.891 446.274 148.888 443.81 148.888H408.425Z" fill="#F0F0EC"/>
<path d="M539.697 148.888C536.879 148.888 534.767 146.308 535.324 143.545L561.371 14.2564C561.791 12.1738 563.621 10.6759 565.745 10.6759L619.619 10.6759C621.744 10.6759 623.574 12.1738 623.993 14.2564L650.041 143.545C650.598 146.308 648.485 148.888 645.667 148.888L610.486 148.888C608.261 148.888 606.376 147.248 606.068 145.044L604.501 133.83C604.192 131.626 602.307 129.986 600.082 129.986H584.918C582.675 129.986 580.78 131.651 580.493 133.876L579.058 144.997C578.771 147.222 576.877 148.888 574.633 148.888H539.697ZM585.73 93.433C585.375 96.1067 587.456 98.4813 590.153 98.4813H594.824C597.514 98.4813 599.593 96.1173 599.249 93.4486L596.945 75.5979C596.277 70.4195 588.784 70.4063 588.097 75.5823L585.73 93.433Z" fill="#F0F0EC"/>
<path d="M661.424 148.888C658.96 148.888 656.962 146.891 656.962 144.426V15.1376C656.962 12.6735 658.96 10.6759 661.424 10.6759L698.316 10.6759C700.108 10.6759 701.726 11.7479 702.424 13.398L721.36 58.1187C723.256 62.5966 729.93 61.2418 729.93 56.3791V15.1376C729.93 12.6735 731.928 10.6759 734.392 10.6759L769.575 10.6759C772.039 10.6759 774.036 12.6735 774.036 15.1376V144.426C774.036 146.891 772.039 148.888 769.575 148.888H732.851C731.077 148.888 729.472 147.837 728.762 146.211L709.823 102.825C707.888 98.3938 701.272 99.775 701.272 104.61V144.426C701.272 146.891 699.274 148.888 696.81 148.888H661.424Z" fill="#F0F0EC"/>
<path d="M792.289 148.888C789.825 148.888 787.828 146.891 787.828 144.426V15.1376C787.828 12.6735 789.825 10.6759 792.289 10.6759L827.675 10.6759C830.139 10.6759 832.137 12.6735 832.137 15.1376V144.426C832.137 146.891 830.139 148.888 827.675 148.888H792.289Z" fill="#F0F0EC"/>
<path d="M887.884 149.498C860.242 149.498 843.372 132.425 843.372 105.595V53.9689C843.372 27.1394 860.242 10.0662 887.884 10.0662L915.323 10.0662C942.966 10.0662 959.836 27.1394 959.836 53.9689V64.9544C959.836 67.4185 957.838 69.4161 955.374 69.4161H919.785C917.321 69.4161 915.323 67.4185 915.323 64.9544V54.9851C915.323 48.8875 911.462 45.4322 904.958 45.4322H898.25C891.746 45.4322 887.884 48.8875 887.884 54.9851V104.579C887.884 110.676 891.746 114.132 898.25 114.132H904.958C911.462 114.132 915.323 110.676 915.323 104.579V91.7641C915.323 89.3 917.321 87.3024 919.785 87.3024H955.374C957.838 87.3024 959.836 89.3 959.836 91.7641V105.595C959.836 132.425 942.966 149.498 915.323 149.498H887.884Z" fill="#F0F0EC"/>
</svg>
