<svg xmlns="http://www.w3.org/2000/svg" width="400" height="137" viewBox="0 0 400 137" fill="none"><path d="M25.3375 0C21.6871 0 18.5879 2.67466 18.0539 6.28573L0.0806717 127.832C-0.576883 132.279 2.86907 136.272 7.36423 136.272H39.2771C42.9275 136.272 46.0264 133.597 46.5605 129.986L54.7561 74.5614C55.9958 66.1802 68.0841 66.1802 69.3233 74.5614L77.5193 129.986C78.053 133.597 81.1523 136.272 84.8027 136.272H117.778C121.428 136.272 124.527 133.597 125.061 129.986L133.254 74.5818C134.493 66.201 146.582 66.201 147.821 74.5818L156.014 129.986C156.548 133.597 159.647 136.272 163.297 136.272H236.702C240.353 136.272 243.452 133.597 243.986 129.986L252.182 74.5614C253.421 66.1802 265.509 66.1802 266.749 74.5614L274.944 129.986C275.478 133.597 278.578 136.272 282.228 136.272H315.203C318.853 136.272 321.953 133.597 322.486 129.986L330.679 74.5818C331.918 66.2006 344.007 66.201 345.246 74.5818L353.439 129.986C353.973 133.597 357.072 136.272 360.723 136.272H392.634C397.13 136.272 400.578 132.279 399.919 127.832L381.945 6.28573C381.411 2.67466 378.311 0 374.663 0H321.475C317.825 0 314.726 2.67466 314.192 6.28577L305.999 61.6902C304.76 70.071 292.671 70.071 291.432 61.6902L283.239 6.28573C282.705 2.67466 279.606 0 275.955 0H222.763C219.112 0 216.013 2.67466 215.479 6.28577L207.283 61.7106C206.044 70.0914 193.955 70.0914 192.716 61.7106L184.52 6.28573C183.986 2.67466 180.887 0 177.237 0H124.05C120.4 0 117.3 2.67466 116.766 6.28577L108.574 61.6902C107.334 70.071 95.2458 70.071 94.0065 61.6902L85.8139 6.28573C85.2798 2.67466 82.1809 0 78.5305 0H25.3375Z" fill="#FF3D02"></path></svg>