<svg width="1100" height="388" viewBox="0 0 1100 388" fill="none" xmlns="http://www.w3.org/2000/svg">
<path d="M78.4113 9.99973C68.5553 9.99973 60.1874 17.2213 58.7456 26.9712L10.2178 355.146C8.4424 367.153 17.7465 377.934 29.8835 377.934H116.048C125.904 377.934 134.272 370.712 135.714 360.962L157.842 211.315C161.188 188.687 193.827 188.687 197.174 211.315L219.302 360.962C220.744 370.712 229.112 377.934 238.968 377.934H328C337.856 377.934 346.224 370.712 347.666 360.962L369.786 211.371C373.132 188.742 405.771 188.742 409.117 211.371L431.238 360.962C432.68 370.712 441.047 377.934 450.903 377.934H649.097C658.953 377.934 667.32 370.712 668.762 360.962L690.891 211.315C694.237 188.687 726.876 188.687 730.222 211.315L752.351 360.962C753.792 370.712 762.16 377.934 772.016 377.934H861.049C870.905 377.934 879.273 370.712 880.714 360.962L902.835 211.371C906.181 188.742 938.82 188.742 942.166 211.371L964.286 360.962C965.728 370.712 974.096 377.934 983.952 377.934H1070.12C1082.25 377.934 1091.56 367.153 1089.78 355.146L1041.25 26.9712C1039.81 17.2213 1031.44 9.99973 1021.59 9.99973H877.984C868.128 9.99973 859.76 17.2213 858.319 26.9712L836.198 176.563C832.852 199.192 800.213 199.192 796.867 176.563L774.746 26.9712C773.305 17.2213 764.937 9.99973 755.081 9.99973H611.46C601.604 9.99973 593.236 17.2213 591.794 26.9712L569.666 176.618C566.32 199.247 533.68 199.247 530.334 176.618L508.206 26.9712C506.764 17.2212 498.396 9.99973 488.54 9.99973H344.936C335.08 9.99973 326.712 17.2213 325.27 26.9712L303.15 176.563C299.803 199.192 267.164 199.192 263.818 176.563L241.698 26.9712C240.256 17.2213 231.888 9.99973 222.032 9.99973H78.4113Z" fill="black"/>
</svg>
