<svg width="2516" height="388" viewBox="0 0 2516 388" fill="none" xmlns="http://www.w3.org/2000/svg">
<path d="M78.4105 10.0002C68.5546 10.0002 60.1868 17.2217 58.7451 26.9715L10.2178 355.143C8.44242 367.149 17.7464 377.93 29.8832 377.93H116.047C125.903 377.93 134.27 370.709 135.712 360.959L157.84 211.314C161.187 188.685 193.825 188.685 197.171 211.314L219.3 360.959C220.741 370.709 229.109 377.93 238.965 377.93H327.996C337.852 377.93 346.22 370.709 347.662 360.959L369.782 211.369C373.128 188.741 405.767 188.741 409.113 211.369L431.233 360.959C432.675 370.709 441.043 377.93 450.898 377.93H649.089C658.945 377.93 667.313 370.709 668.755 360.959L690.883 211.314C694.229 188.685 726.868 188.685 730.214 211.314L752.342 360.959C753.784 370.709 762.152 377.93 772.008 377.93H861.039C870.895 377.93 879.263 370.709 880.704 360.959L902.824 211.369C906.17 188.74 938.809 188.741 942.155 211.369L964.275 360.959C965.717 370.709 974.085 377.93 983.941 377.93H1070.1C1082.24 377.93 1091.55 367.149 1089.77 355.143L1041.24 26.9715C1039.8 17.2217 1031.43 10.0002 1021.58 10.0002H877.974C868.118 10.0002 859.751 17.2217 858.309 26.9716L836.189 176.562C832.843 199.19 800.204 199.19 796.858 176.562L774.738 26.9715C773.296 17.2217 764.928 10.0002 755.072 10.0002H611.453C601.597 10.0002 593.229 17.2217 591.788 26.9716L569.659 176.617C566.313 199.245 533.674 199.245 530.328 176.617L508.2 26.9715C506.758 17.2217 498.391 10.0002 488.535 10.0002H344.932C335.076 10.0002 326.708 17.2217 325.266 26.9716L303.146 176.562C299.8 199.19 267.161 199.19 263.815 176.562L241.695 26.9715C240.253 17.2217 231.886 10.0002 222.03 10.0002H78.4105Z" fill="#FF3D02"/>
<path d="M1169.03 377.93C1165.97 377.93 1163.49 375.447 1163.49 372.384V211.678C1163.49 208.615 1165.97 206.132 1169.03 206.132L1227.89 206.132C1230.43 206.132 1232.64 207.855 1233.27 210.316L1251.31 281.557C1252.73 287.143 1260.67 287.133 1262.07 281.544L1279.92 210.329C1280.54 207.862 1282.75 206.132 1285.3 206.132H1344.14C1347.21 206.132 1349.69 208.615 1349.69 211.678V372.384C1349.69 375.447 1347.21 377.93 1344.14 377.93H1300.16C1297.09 377.93 1294.61 375.447 1294.61 372.384V321.328C1294.61 314.874 1285.45 313.624 1283.72 319.843L1268.71 373.869C1268.04 376.269 1265.85 377.93 1263.36 377.93H1249.81C1247.32 377.93 1245.14 376.269 1244.47 373.869L1229.45 319.843C1227.73 313.624 1218.57 314.874 1218.57 321.328V372.384C1218.57 375.447 1216.08 377.93 1213.02 377.93H1169.03Z" fill="#FF3D02"/>
<path d="M1366.18 376.698C1362.68 376.698 1360.05 373.491 1360.74 370.057L1393.12 209.35C1393.64 206.761 1395.92 204.899 1398.56 204.899H1465.53C1468.17 204.899 1470.44 206.761 1470.96 209.35L1503.34 370.057C1504.03 373.491 1501.41 376.698 1497.9 376.698H1454.17C1451.41 376.698 1449.06 374.66 1448.68 371.92L1446.73 357.98C1446.35 355.241 1444.01 353.202 1441.24 353.202H1422.39C1419.6 353.202 1417.25 355.273 1416.89 358.038L1415.11 371.862C1414.75 374.627 1412.4 376.698 1409.61 376.698H1366.18ZM1423.4 307.767C1422.96 311.09 1425.55 314.042 1428.9 314.042H1434.7C1438.05 314.042 1440.63 311.104 1440.2 307.786L1437.34 285.598C1436.51 279.161 1427.2 279.145 1426.34 285.579L1423.4 307.767Z" fill="#FF3D02"/>
<path d="M1520.46 376.698C1517.4 376.698 1514.92 374.215 1514.92 371.152V210.445C1514.92 207.382 1517.4 204.899 1520.46 204.899H1606.88C1634.42 204.899 1651.35 221.321 1651.35 247.849V267.555C1651.35 284.336 1644.79 295.713 1633.01 302.194C1630.19 303.748 1628.77 307.179 1630.14 310.096L1657.74 368.792C1659.46 372.471 1656.78 376.698 1652.72 376.698H1609.26C1607.05 376.698 1605.05 375.385 1604.17 373.356L1579.06 315.375C1578.31 313.646 1576.61 312.526 1574.72 312.526C1572.11 312.526 1569.99 314.643 1569.99 317.254V371.152C1569.99 374.215 1567.51 376.698 1564.45 376.698H1520.46ZM1569.99 269.083C1569.99 272.146 1572.48 274.629 1575.54 274.629H1586.67C1593.49 274.629 1597.79 270.587 1597.79 264.271V255.428C1597.79 249.112 1593.49 245.07 1586.67 245.07H1575.54C1572.48 245.07 1569.99 247.553 1569.99 250.616V269.083Z" fill="#FF3D02"/>
<path d="M1675.27 376.698C1672.21 376.698 1669.72 374.215 1669.72 371.152V210.445C1669.72 207.382 1672.21 204.899 1675.27 204.899H1719.26C1722.32 204.899 1724.8 207.382 1724.8 210.445V235.788C1724.8 240.888 1731.1 243.284 1734.49 239.473L1763.57 206.761C1764.62 205.577 1766.13 204.899 1767.72 204.899H1813.84C1818.69 204.899 1821.2 210.69 1817.89 214.233L1778.22 256.653C1776.63 258.347 1776.27 260.847 1777.31 262.921L1830.18 368.672C1832.03 372.359 1829.35 376.698 1825.22 376.698H1778.08C1775.94 376.698 1773.99 375.463 1773.07 373.527L1741.48 306.857C1739.79 303.294 1735.03 302.581 1732.37 305.494L1726.25 312.201C1725.32 313.223 1724.8 314.556 1724.8 315.939V371.152C1724.8 374.215 1722.32 376.698 1719.26 376.698H1675.27Z" fill="#FF3D02"/>
<path d="M1843.71 376.698C1840.64 376.698 1838.16 374.215 1838.16 371.152V210.445C1838.16 207.382 1840.64 204.899 1843.71 204.899H1957.17C1960.23 204.899 1962.71 207.382 1962.71 210.445V242.808C1962.71 245.871 1960.23 248.354 1957.17 248.354L1898.78 248.354C1895.72 248.354 1893.24 250.837 1893.24 253.9V263.525C1893.24 266.588 1895.72 269.071 1898.78 269.071H1957.17C1960.23 269.071 1962.71 271.554 1962.71 274.617V305.717C1962.71 308.78 1960.23 311.263 1957.17 311.263H1898.78C1895.72 311.263 1893.24 313.746 1893.24 316.809V327.697C1893.24 330.76 1895.72 333.243 1898.78 333.243H1957.17C1960.23 333.243 1962.71 335.726 1962.71 338.789V371.152C1962.71 374.215 1960.23 376.698 1957.17 376.698H1843.71Z" fill="#FF3D02"/>
<path d="M2025.62 376.698C2022.56 376.698 2020.07 374.215 2020.07 371.152V254.406C2020.07 251.343 2017.59 248.86 2014.53 248.86H1980.46C1977.4 248.86 1974.91 246.377 1974.91 243.314V210.445C1974.91 207.382 1977.4 204.899 1980.46 204.899L2114.51 204.899C2117.57 204.899 2120.05 207.382 2120.05 210.445V243.314C2120.05 246.377 2117.57 248.86 2114.51 248.86H2080.69C2077.63 248.86 2075.15 251.343 2075.15 254.406V371.152C2075.15 374.215 2072.67 376.698 2069.6 376.698H2025.62Z" fill="#FF3D02"/>
<path d="M2136.16 376.698C2133.1 376.698 2130.61 374.215 2130.61 371.152V210.445C2130.61 207.382 2133.1 204.899 2136.16 204.899H2180.14C2183.21 204.899 2185.69 207.382 2185.69 210.445V371.152C2185.69 374.215 2183.21 376.698 2180.14 376.698H2136.16Z" fill="#FF3D02"/>
<path d="M2207.43 376.698C2204.36 376.698 2201.88 374.215 2201.88 371.152V210.445C2201.88 207.382 2204.36 204.899 2207.43 204.899H2253.28C2255.51 204.899 2257.52 206.232 2258.39 208.283L2281.93 263.871C2284.28 269.437 2292.58 267.753 2292.58 261.709V210.445C2292.58 207.382 2295.06 204.899 2298.13 204.899H2341.86C2344.92 204.899 2347.4 207.382 2347.4 210.445V371.152C2347.4 374.215 2344.92 376.698 2341.86 376.698H2296.21C2294.01 376.698 2292.01 375.392 2291.13 373.371L2267.59 319.442C2265.18 313.933 2256.96 315.65 2256.96 321.66V371.152C2256.96 374.215 2254.47 376.698 2251.41 376.698H2207.43Z" fill="#FF3D02"/>
<path d="M2417.26 377.709C2382.9 377.709 2362.43 356.486 2362.43 322.379V259.218C2362.43 225.364 2382.9 204.141 2417.26 204.141L2451.11 204.141C2485.73 204.141 2505.94 225.364 2505.94 259.218V261.504C2505.94 264.567 2503.45 267.05 2500.39 267.05H2456.41C2453.34 267.05 2450.86 264.567 2450.86 261.504V260.481C2450.86 252.397 2446.06 248.102 2438.23 248.102H2430.14C2422.31 248.102 2417.51 252.397 2417.51 260.481V321.369C2417.51 329.201 2422.31 333.748 2430.14 333.748H2439.74C2447.58 333.748 2451.62 330.969 2451.62 323.39V322.62C2451.62 319.557 2449.14 317.074 2446.07 317.074H2439.23C2436.16 317.074 2433.68 314.591 2433.68 311.528V285.228C2433.68 282.165 2436.16 279.682 2439.23 279.682H2500.39C2503.45 279.682 2505.94 282.165 2505.94 285.228V323.643C2505.94 357.75 2485.73 377.709 2451.11 377.709L2417.26 377.709Z" fill="#FF3D02"/>
<path d="M1169.03 182.557C1165.97 182.557 1163.49 180.074 1163.49 177.011V16.3041C1163.49 13.2412 1165.97 10.7582 1169.03 10.7582L1227.89 10.7582C1230.43 10.7582 1232.64 12.4817 1233.27 14.9425L1251.31 86.1836C1252.73 91.7698 1260.67 91.76 1262.07 86.1704L1279.92 14.9557C1280.54 12.4885 1282.75 10.7582 1285.3 10.7582L1344.14 10.7582C1347.21 10.7582 1349.69 13.2412 1349.69 16.3041V177.011C1349.69 180.074 1347.21 182.557 1344.14 182.557H1300.16C1297.09 182.557 1294.61 180.074 1294.61 177.011V125.955C1294.61 119.5 1285.45 118.251 1283.72 124.47L1268.71 178.496C1268.04 180.896 1265.85 182.557 1263.36 182.557H1249.81C1247.32 182.557 1245.14 180.896 1244.47 178.496L1229.45 124.47C1227.73 118.251 1218.57 119.5 1218.57 125.955V177.011C1218.57 180.074 1216.08 182.557 1213.02 182.557H1169.03Z" fill="#FF3D02"/>
<path d="M1368.16 182.557C1365.1 182.557 1362.61 180.074 1362.61 177.011V16.3041C1362.61 13.2412 1365.1 10.7582 1368.16 10.7582L1481.62 10.7582C1484.69 10.7582 1487.17 13.2412 1487.17 16.3041V48.6672C1487.17 51.7301 1484.69 54.2132 1481.62 54.2132L1423.24 54.2132C1420.17 54.2132 1417.69 56.6962 1417.69 59.7591V69.3841C1417.69 72.4471 1420.17 74.9301 1423.24 74.9301L1481.62 74.9301C1484.69 74.9301 1487.17 77.4131 1487.17 80.476V111.576C1487.17 114.639 1484.69 117.122 1481.62 117.122L1423.24 117.122C1420.17 117.122 1417.69 119.605 1417.69 122.668V133.556C1417.69 136.619 1420.17 139.102 1423.24 139.102H1481.62C1484.69 139.102 1487.17 141.585 1487.17 144.648V177.011C1487.17 180.074 1484.69 182.557 1481.62 182.557L1368.16 182.557Z" fill="#FF3D02"/>
<path d="M1554.08 183.315C1519.72 183.315 1498.75 162.093 1498.75 128.743V64.5716C1498.75 31.2224 1519.72 10.0002 1554.08 10.0002L1588.18 10.0002C1622.54 10.0002 1643.51 31.2224 1643.51 64.5716V78.2267C1643.51 81.2896 1641.03 83.7727 1637.97 83.7727H1593.73C1590.67 83.7727 1588.18 81.2896 1588.18 78.2267V65.8348C1588.18 58.2555 1583.38 53.9605 1575.3 53.9605H1566.96C1558.88 53.9605 1554.08 58.2555 1554.08 65.8348V127.48C1554.08 135.06 1558.88 139.355 1566.96 139.355H1575.3C1583.38 139.355 1588.18 135.06 1588.18 127.48V111.551C1588.18 108.488 1590.67 106.005 1593.73 106.005H1637.97C1641.03 106.005 1643.51 108.488 1643.51 111.551V128.743C1643.51 162.093 1622.54 183.315 1588.18 183.315H1554.08Z" fill="#FF3D02"/>
<path d="M1658.66 182.557C1655.59 182.557 1653.11 180.074 1653.11 177.011V16.3041C1653.11 13.2412 1655.59 10.7582 1658.66 10.7582L1702.64 10.7582C1705.7 10.7582 1708.19 13.2412 1708.19 16.3041V67.8682C1708.19 70.9312 1710.67 73.4142 1713.73 73.4142L1746.1 73.4142C1749.16 73.4142 1751.64 70.9312 1751.64 67.8682V16.3041C1751.64 13.2412 1754.12 10.7582 1757.19 10.7582L1801.17 10.7582C1804.23 10.7582 1806.72 13.2412 1806.72 16.3041V177.011C1806.72 180.074 1804.23 182.557 1801.17 182.557L1757.19 182.557C1754.12 182.557 1751.64 180.074 1751.64 177.011V122.92C1751.64 119.857 1749.16 117.374 1746.1 117.374H1713.73C1710.67 117.374 1708.19 119.857 1708.19 122.92V177.011C1708.19 180.074 1705.7 182.557 1702.64 182.557H1658.66Z" fill="#FF3D02"/>
<path d="M1821.83 182.557C1818.33 182.557 1815.7 179.35 1816.39 175.916L1848.77 15.2088C1849.29 12.6201 1851.57 10.7582 1854.21 10.7582L1921.17 10.7582C1923.81 10.7582 1926.09 12.6201 1926.61 15.2088L1958.99 175.916C1959.68 179.35 1957.05 182.557 1953.55 182.557H1909.82C1907.05 182.557 1904.71 180.518 1904.33 177.779L1902.38 163.839C1902 161.099 1899.65 159.061 1896.89 159.061H1878.04C1875.25 159.061 1872.89 161.132 1872.54 163.897L1870.75 177.721C1870.4 180.486 1868.04 182.557 1865.25 182.557H1821.83ZM1879.05 113.626C1878.61 116.949 1881.19 119.901 1884.54 119.901H1890.35C1893.7 119.901 1896.28 116.962 1895.85 113.645L1892.99 91.4567C1892.16 85.0199 1882.84 85.0035 1881.99 91.4374L1879.05 113.626Z" fill="#FF3D02"/>
<path d="M1973.14 182.557C1970.07 182.557 1967.59 180.074 1967.59 177.011V16.3041C1967.59 13.2412 1970.07 10.7582 1973.14 10.7582L2018.99 10.7582C2021.22 10.7582 2023.23 12.0907 2024.1 14.1417L2047.64 69.73C2049.99 75.296 2058.29 73.6119 2058.29 67.5675V16.3041C2058.29 13.2412 2060.77 10.7582 2063.84 10.7582L2107.57 10.7582C2110.63 10.7582 2113.11 13.2412 2113.11 16.3041V177.011C2113.11 180.074 2110.63 182.557 2107.57 182.557H2061.92C2059.71 182.557 2057.72 181.251 2056.84 179.23L2033.3 125.301C2030.89 119.792 2022.67 121.509 2022.67 127.519V177.011C2022.67 180.074 2020.18 182.557 2017.12 182.557H1973.14Z" fill="#FF3D02"/>
<path d="M2135.8 182.557C2132.74 182.557 2130.26 180.074 2130.26 177.011V16.3041C2130.26 13.2412 2132.74 10.7582 2135.8 10.7582L2179.79 10.7582C2182.85 10.7582 2185.33 13.2412 2185.33 16.3041V177.011C2185.33 180.074 2182.85 182.557 2179.79 182.557H2135.8Z" fill="#FF3D02"/>
<path d="M2254.63 183.315C2220.27 183.315 2199.3 162.093 2199.3 128.743V64.5716C2199.3 31.2224 2220.27 10.0002 2254.63 10.0002L2288.73 10.0002C2323.09 10.0002 2344.06 31.2224 2344.06 64.5716V78.2267C2344.06 81.2896 2341.58 83.7727 2338.52 83.7727L2294.28 83.7727C2291.22 83.7727 2288.73 81.2896 2288.73 78.2267V65.8348C2288.73 58.2555 2283.93 53.9605 2275.85 53.9605L2267.51 53.9605C2259.43 53.9605 2254.63 58.2555 2254.63 65.8348V127.48C2254.63 135.06 2259.43 139.355 2267.51 139.355H2275.85C2283.93 139.355 2288.73 135.06 2288.73 127.48V111.551C2288.73 108.488 2291.22 106.005 2294.28 106.005L2338.52 106.005C2341.58 106.005 2344.06 108.488 2344.06 111.551V128.743C2344.06 162.093 2323.09 183.315 2288.73 183.315H2254.63Z" fill="#FF3D02"/>
</svg>
