<svg width="1101" height="418" viewBox="0 0 1101 418" fill="none" xmlns="http://www.w3.org/2000/svg">
<path fill-rule="evenodd" clip-rule="evenodd" d="M35.3553 407.783C21.4215 407.783 10.126 396.488 10.126 382.554V35.3612C10.126 21.4274 21.4215 10.1318 35.3553 10.1318H1064.9C1078.83 10.1318 1090.13 21.4274 1090.13 35.3612V382.554C1090.13 396.488 1078.83 407.783 1064.9 407.783H35.3553ZM135.378 67.968C136.596 59.7364 143.66 53.6395 151.982 53.6395H273.237C281.558 53.6395 288.622 59.7364 289.84 67.968L308.515 194.264C311.34 213.369 338.897 213.369 341.722 194.264L360.397 67.968C361.614 59.7364 368.679 53.6395 377 53.6395H498.241C506.563 53.6395 513.627 59.7364 514.845 67.968L533.527 194.311C536.352 213.416 563.908 213.415 566.734 194.311L585.416 67.968C586.633 59.7364 593.698 53.6395 602.019 53.6395H723.274C731.595 53.6395 738.66 59.7364 739.877 67.968L758.553 194.264C761.378 213.369 788.934 213.369 791.759 194.264L810.435 67.968C811.652 59.7364 818.717 53.6395 827.038 53.6395H948.279C956.6 53.6395 963.665 59.7364 964.882 67.968L1005.85 345.037C1007.35 355.174 999.497 364.276 989.25 364.276H916.504C908.182 364.276 901.118 358.179 899.9 349.947L881.225 223.651C878.4 204.547 850.843 204.547 848.018 223.651L829.343 349.947C828.126 358.179 821.061 364.276 812.74 364.276H737.572C729.251 364.276 722.186 358.179 720.969 349.947L702.287 223.605C699.462 204.5 671.905 204.5 669.08 223.605L650.398 349.947C649.181 358.179 642.116 364.276 633.795 364.276H466.466C458.145 364.276 451.08 358.179 449.863 349.947L431.187 223.651C428.362 204.547 400.806 204.547 397.981 223.651L379.305 349.947C378.088 358.179 371.023 364.276 362.702 364.276H287.535C279.214 364.276 272.149 358.179 270.932 349.947L252.249 223.605C249.424 204.5 221.868 204.5 219.043 223.605L200.36 349.947C199.143 358.179 192.078 364.276 183.757 364.276H111.011C100.764 364.276 92.9088 355.174 94.4077 345.037L135.378 67.968Z" fill="#FF3D02"/>
</svg>
