<svg width="1100" height="317" viewBox="0 0 1100 317" fill="none" xmlns="http://www.w3.org/2000/svg">
<path d="M14.4617 306.132C11.9976 306.132 10 304.134 10 301.67V172.381C10 169.917 11.9976 167.919 14.4617 167.919H61.8123C63.8545 167.919 65.636 169.306 66.1374 171.286L80.6528 228.599C81.791 233.093 88.1787 233.085 89.3059 228.588L103.666 171.296C104.164 169.311 105.948 167.919 107.994 167.919H155.336C157.8 167.919 159.798 169.917 159.798 172.381V301.67C159.798 304.134 157.8 306.132 155.336 306.132H119.95C117.486 306.132 115.488 304.134 115.488 301.67V260.595C115.488 255.403 108.118 254.397 106.728 259.401L94.6483 302.865C94.1117 304.795 92.3535 306.132 90.3495 306.132H79.4481C77.4441 306.132 75.6859 304.795 75.1493 302.865L63.0697 259.401C61.6792 254.397 54.3092 255.403 54.3092 260.595V301.67C54.3092 304.134 52.3116 306.132 49.8475 306.132H14.4617Z" fill="#FF3D02"/>
<path d="M173.066 305.14C170.248 305.14 168.136 302.56 168.692 299.797L194.74 170.509C195.16 168.426 196.99 166.928 199.114 166.928H252.988C255.113 166.928 256.943 168.426 257.362 170.509L283.41 299.797C283.967 302.56 281.854 305.14 279.036 305.14H243.856C241.63 305.14 239.745 303.5 239.437 301.296L237.869 290.082C237.561 287.878 235.676 286.238 233.45 286.238H218.287C216.044 286.238 214.149 287.903 213.862 290.128L212.427 301.249C212.14 303.474 210.246 305.14 208.002 305.14H173.066ZM219.099 249.685C218.744 252.359 220.825 254.733 223.522 254.733H228.192C230.883 254.733 232.962 252.369 232.617 249.701L230.314 231.85C229.646 226.672 222.153 226.658 221.466 231.834L219.099 249.685Z" fill="#FF3D02"/>
<path d="M297.187 305.14C294.722 305.14 292.725 303.143 292.725 300.678V171.39C292.725 168.926 294.722 166.928 297.187 166.928H366.709C388.864 166.928 402.482 180.139 402.482 201.481V217.335C402.482 230.835 397.204 239.988 387.733 245.202C385.461 246.452 384.316 249.212 385.419 251.559L407.621 298.78C409.013 301.739 406.854 305.14 403.584 305.14H368.623C366.844 305.14 365.235 304.084 364.528 302.452L344.327 255.806C343.725 254.414 342.354 253.514 340.837 253.514C338.737 253.514 337.034 255.217 337.034 257.317V300.678C337.034 303.143 335.037 305.14 332.572 305.14H297.187ZM337.034 218.564C337.034 221.028 339.032 223.026 341.496 223.026H350.449C355.937 223.026 359.392 219.774 359.392 214.693V207.579C359.392 202.497 355.937 199.245 350.449 199.245H341.496C339.032 199.245 337.034 201.243 337.034 203.707V218.564Z" fill="#FF3D02"/>
<path d="M421.729 305.14C419.265 305.14 417.267 303.143 417.267 300.678V171.39C417.267 168.926 419.265 166.928 421.729 166.928H457.115C459.579 166.928 461.576 168.926 461.576 171.39V191.778C461.576 195.881 466.647 197.809 469.373 194.743L492.766 168.426C493.612 167.473 494.826 166.928 496.1 166.928H533.206C537.109 166.928 539.131 171.586 536.465 174.437L504.55 208.564C503.276 209.926 502.984 211.938 503.818 213.607L546.356 298.683C547.84 301.65 545.683 305.14 542.366 305.14H504.44C502.716 305.14 501.147 304.147 500.408 302.589L474.993 248.953C473.634 246.086 469.802 245.513 467.664 247.857L462.742 253.253C461.992 254.074 461.576 255.147 461.576 256.26V300.678C461.576 303.143 459.579 305.14 457.115 305.14H421.729Z" fill="#FF3D02"/>
<path d="M557.235 305.14C554.771 305.14 552.774 303.143 552.774 300.678V171.39C552.774 168.926 554.771 166.928 557.235 166.928H648.516C650.98 166.928 652.978 168.926 652.978 171.39V197.426C652.978 199.89 650.98 201.888 648.516 201.888H601.545C599.08 201.888 597.083 203.885 597.083 206.349V214.093C597.083 216.557 599.08 218.554 601.545 218.554H648.516C650.98 218.554 652.978 220.552 652.978 223.016V248.036C652.978 250.5 650.98 252.498 648.516 252.498H601.545C599.08 252.498 597.083 254.495 597.083 256.959V265.719C597.083 268.183 599.08 270.181 601.545 270.181H648.516C650.98 270.181 652.978 272.178 652.978 274.642V300.678C652.978 303.143 650.98 305.14 648.516 305.14H557.235Z" fill="#FF3D02"/>
<path d="M703.583 305.14C701.119 305.14 699.122 303.143 699.122 300.678V206.756C699.122 204.292 697.124 202.294 694.66 202.294H667.254C664.79 202.294 662.792 200.296 662.792 197.832V171.39C662.792 168.926 664.79 166.928 667.254 166.928H775.095C777.559 166.928 779.557 168.926 779.557 171.39V197.832C779.557 200.296 777.559 202.294 775.095 202.294H747.892C745.428 202.294 743.431 204.292 743.431 206.756V300.678C743.431 303.143 741.433 305.14 738.969 305.14H703.583Z" fill="#FF3D02"/>
<path d="M792.514 305.14C790.05 305.14 788.052 303.143 788.052 300.678V171.39C788.052 168.926 790.05 166.928 792.514 166.928H827.899C830.364 166.928 832.361 168.926 832.361 171.39V300.678C832.361 303.143 830.364 305.14 827.899 305.14H792.514Z" fill="#FF3D02"/>
<path d="M849.849 305.14C847.384 305.14 845.387 303.143 845.387 300.678V171.39C845.387 168.926 847.384 166.928 849.849 166.928H886.74C888.532 166.928 890.15 168 890.849 169.65L909.784 214.371C911.681 218.849 918.355 217.494 918.355 212.631V171.39C918.355 168.926 920.352 166.928 922.817 166.928H957.999C960.463 166.928 962.461 168.926 962.461 171.39V300.678C962.461 303.143 960.463 305.14 957.999 305.14H921.275C919.501 305.14 917.896 304.089 917.186 302.463L898.247 259.077C896.313 254.646 889.696 256.027 889.696 260.862V300.678C889.696 303.143 887.699 305.14 885.234 305.14H849.849Z" fill="#FF3D02"/>
<path d="M1018.66 305.953C991.016 305.953 974.552 288.88 974.552 261.441V210.627C974.552 183.391 991.016 166.318 1018.66 166.318H1045.89C1073.74 166.318 1090 183.391 1090 210.627V212.467C1090 214.931 1088 216.928 1085.54 216.928H1050.15C1047.69 216.928 1045.69 214.931 1045.69 212.467V211.644C1045.69 205.14 1041.83 201.684 1035.53 201.684H1029.02C1022.72 201.684 1018.86 205.14 1018.86 211.644V260.628C1018.86 266.929 1022.72 270.587 1029.02 270.587H1036.75C1043.05 270.587 1046.3 268.351 1046.3 262.254V261.634C1046.3 259.17 1044.3 257.172 1041.84 257.172H1036.33C1033.87 257.172 1031.87 255.175 1031.87 252.711V231.553C1031.87 229.089 1033.87 227.091 1036.33 227.091H1085.54C1088 227.091 1090 229.089 1090 231.553V262.457C1090 289.896 1073.74 305.953 1045.89 305.953H1018.66Z" fill="#FF3D02"/>
<path d="M73.2236 148.954C70.7594 148.954 68.7619 146.956 68.7619 144.492V15.2033C68.7619 12.7392 70.7594 10.7416 73.2236 10.7416H120.574C122.616 10.7416 124.398 12.1282 124.899 14.1079L139.415 71.4213C140.553 75.9154 146.941 75.9076 148.068 71.4107L162.428 14.1185C162.926 12.1336 164.71 10.7416 166.756 10.7416H214.098C216.562 10.7416 218.559 12.7392 218.559 15.2033V144.492C218.559 146.956 216.562 148.954 214.098 148.954H178.712C176.248 148.954 174.25 146.956 174.25 144.492V103.417C174.25 98.2247 166.88 97.2196 165.49 102.223L153.41 145.687C152.874 147.618 151.115 148.954 149.111 148.954H138.21C136.206 148.954 134.448 147.618 133.911 145.687L121.832 102.223C120.441 97.2197 113.071 98.2248 113.071 103.417V144.492C113.071 146.956 111.073 148.954 108.609 148.954H73.2236Z" fill="#FF3D02"/>
<path d="M233.421 148.954C230.956 148.954 228.959 146.956 228.959 144.492V15.2033C228.959 12.7392 230.956 10.7416 233.421 10.7416H324.701C327.165 10.7416 329.163 12.7392 329.163 15.2033V41.2394C329.163 43.7035 327.165 45.7011 324.701 45.7011H277.73C275.266 45.7011 273.268 47.6987 273.268 50.1629V57.9062C273.268 60.3703 275.266 62.3679 277.73 62.3679H324.701C327.165 62.3679 329.163 64.3655 329.163 66.8296V91.8494C329.163 94.3136 327.165 96.3112 324.701 96.3112H277.73C275.266 96.3112 273.268 98.3088 273.268 100.773V109.532C273.268 111.997 275.266 113.994 277.73 113.994H324.701C327.165 113.994 329.163 115.992 329.163 118.456V144.492C329.163 146.956 327.165 148.954 324.701 148.954H233.421Z" fill="#FF3D02"/>
<path d="M382.989 149.563C355.346 149.563 338.476 132.49 338.476 105.661V54.0345C338.476 27.2051 355.346 10.1318 382.989 10.1318H410.428C438.07 10.1318 454.94 27.2051 454.94 54.0345V65.02C454.94 67.4842 452.943 69.4818 450.479 69.4818H414.89C412.425 69.4818 410.428 67.4842 410.428 65.02V55.0508C410.428 48.9532 406.566 45.4979 400.062 45.4979H393.355C386.851 45.4979 382.989 48.9532 382.989 55.0508V104.645C382.989 110.742 386.851 114.197 393.355 114.197H400.062C406.566 114.197 410.428 110.742 410.428 104.645V91.8298C410.428 89.3656 412.425 87.368 414.89 87.368H450.479C452.943 87.368 454.94 89.3656 454.94 91.8298V105.661C454.94 132.49 438.07 149.563 410.428 149.563H382.989Z" fill="#FF3D02"/>
<path d="M467.123 148.954C464.659 148.954 462.662 146.956 462.662 144.492V15.2033C462.662 12.7392 464.659 10.7416 467.123 10.7416H502.509C504.973 10.7416 506.971 12.7392 506.971 15.2033V56.6867C506.971 59.1508 508.969 61.1484 511.433 61.1484H537.469C539.933 61.1484 541.931 59.1508 541.931 56.6867V15.2033C541.931 12.7392 543.928 10.7416 546.392 10.7416H581.778C584.242 10.7416 586.24 12.7392 586.24 15.2033V144.492C586.24 146.956 584.242 148.954 581.778 148.954H546.392C543.928 148.954 541.931 146.956 541.931 144.492V100.976C541.931 98.512 539.933 96.5144 537.469 96.5144H511.433C508.969 96.5144 506.971 98.512 506.971 100.976V144.492C506.971 146.956 504.973 148.954 502.509 148.954H467.123Z" fill="#FF3D02"/>
<path d="M598.396 148.954C595.578 148.954 593.466 146.373 594.022 143.611L620.07 14.3221C620.49 12.2395 622.32 10.7416 624.444 10.7416H678.318C680.443 10.7416 682.272 12.2395 682.692 14.3221L708.74 143.611C709.296 146.373 707.184 148.954 704.366 148.954H669.185C666.96 148.954 665.075 147.314 664.767 145.11L663.199 133.895C662.891 131.691 661.006 130.051 658.78 130.051H643.617C641.374 130.051 639.479 131.717 639.192 133.942L637.757 145.063C637.47 147.288 635.576 148.954 633.332 148.954H598.396ZM644.429 93.4987C644.074 96.1724 646.155 98.547 648.852 98.547H653.522C656.213 98.547 658.292 96.183 657.947 93.5143L655.644 75.6636C654.976 70.4851 647.482 70.4719 646.796 75.648L644.429 93.4987Z" fill="#FF3D02"/>
<path d="M720.123 148.954C717.659 148.954 715.661 146.956 715.661 144.492V15.2033C715.661 12.7392 717.659 10.7416 720.123 10.7416H757.015C758.806 10.7416 760.424 11.8136 761.123 13.4636L780.059 58.1844C781.955 62.6622 788.629 61.3074 788.629 56.4447V15.2033C788.629 12.7392 790.627 10.7416 793.091 10.7416H828.273C830.738 10.7416 832.735 12.7392 832.735 15.2033V144.492C832.735 146.956 830.738 148.954 828.273 148.954H791.55C789.776 148.954 788.17 147.903 787.461 146.277L768.521 102.891C766.587 98.4595 759.97 99.8407 759.97 104.676V144.492C759.97 146.956 757.973 148.954 755.509 148.954H720.123Z" fill="#FF3D02"/>
<path d="M850.988 148.954C848.524 148.954 846.527 146.956 846.527 144.492V15.2033C846.527 12.7392 848.524 10.7416 850.988 10.7416H886.374C888.838 10.7416 890.836 12.7392 890.836 15.2033V144.492C890.836 146.956 888.838 148.954 886.374 148.954H850.988Z" fill="#FF3D02"/>
<path d="M946.583 149.563C918.941 149.563 902.071 132.49 902.071 105.661V54.0345C902.071 27.2051 918.941 10.1318 946.583 10.1318H974.022C1001.66 10.1318 1018.53 27.2051 1018.53 54.0345V65.02C1018.53 67.4842 1016.54 69.4818 1014.07 69.4818H978.484C976.02 69.4818 974.022 67.4842 974.022 65.02V55.0508C974.022 48.9532 970.161 45.4979 963.656 45.4979H956.949C950.445 45.4979 946.583 48.9532 946.583 55.0508V104.645C946.583 110.742 950.445 114.197 956.949 114.197H963.656C970.161 114.197 974.022 110.742 974.022 104.645V91.8298C974.022 89.3656 976.02 87.368 978.484 87.368H1014.07C1016.54 87.368 1018.53 89.3656 1018.53 91.8298V105.661C1018.53 132.49 1001.66 149.563 974.022 149.563H946.583Z" fill="#FF3D02"/>
</svg>
