<svg width="1101" height="317" viewBox="0 0 1101 317" fill="none" xmlns="http://www.w3.org/2000/svg">
<path d="M14.5247 306.132C12.0606 306.132 10.063 304.134 10.063 301.67V172.381C10.063 169.917 12.0606 167.92 14.5247 167.92H61.8753C63.9175 167.92 65.699 169.306 66.2004 171.286L80.7158 228.599C81.854 233.093 88.2417 233.085 89.3688 228.589L103.729 171.296C104.227 169.312 106.011 167.92 108.057 167.92H155.399C157.863 167.92 159.861 169.917 159.861 172.381V301.67C159.861 304.134 157.863 306.132 155.399 306.132H120.013C117.549 306.132 115.551 304.134 115.551 301.67V260.595C115.551 255.403 108.181 254.398 106.791 259.401L94.7113 302.865C94.1747 304.795 92.4165 306.132 90.4125 306.132H79.5111C77.5071 306.132 75.7489 304.795 75.2123 302.865L63.1327 259.401C61.7422 254.398 54.3722 255.403 54.3722 260.595V301.67C54.3722 304.134 52.3746 306.132 49.9105 306.132H14.5247Z" fill="#FF3D02"/>
<path d="M173.129 305.14C170.311 305.14 168.199 302.56 168.755 299.797L194.803 170.509C195.223 168.426 197.053 166.928 199.177 166.928H253.051C255.176 166.928 257.006 168.426 257.425 170.509L283.473 299.797C284.03 302.56 281.917 305.14 279.099 305.14H243.919C241.693 305.14 239.808 303.5 239.5 301.296L237.932 290.082C237.624 287.878 235.739 286.238 233.513 286.238H218.35C216.107 286.238 214.212 287.904 213.925 290.128L212.49 301.25C212.203 303.474 210.309 305.14 208.065 305.14H173.129ZM219.162 249.685C218.807 252.359 220.888 254.733 223.585 254.733H228.255C230.946 254.733 233.025 252.369 232.68 249.701L230.377 231.85C229.709 226.672 222.215 226.659 221.529 231.835L219.162 249.685Z" fill="#FF3D02"/>
<path d="M297.25 305.14C294.785 305.14 292.788 303.143 292.788 300.679V171.39C292.788 168.926 294.785 166.928 297.25 166.928H366.772C388.927 166.928 402.545 180.14 402.545 201.481V217.335C402.545 230.835 397.266 239.988 387.796 245.202C385.524 246.452 384.379 249.212 385.482 251.559L407.684 298.78C409.076 301.739 406.916 305.14 403.647 305.14H368.686C366.907 305.14 365.298 304.084 364.591 302.452L344.39 255.806C343.788 254.414 342.417 253.514 340.9 253.514C338.8 253.514 337.097 255.217 337.097 257.317V300.679C337.097 303.143 335.099 305.14 332.635 305.14H297.25ZM337.097 218.564C337.097 221.028 339.095 223.026 341.559 223.026H350.512C356 223.026 359.455 219.774 359.455 214.693V207.579C359.455 202.497 356 199.245 350.512 199.245H341.559C339.095 199.245 337.097 201.243 337.097 203.707V218.564Z" fill="#FF3D02"/>
<path d="M421.792 305.14C419.328 305.14 417.33 303.143 417.33 300.679V171.39C417.33 168.926 419.328 166.928 421.792 166.928H457.178C459.642 166.928 461.639 168.926 461.639 171.39V191.778C461.639 195.881 466.71 197.809 469.436 194.743L492.829 168.426C493.675 167.473 494.889 166.928 496.163 166.928H533.269C537.172 166.928 539.194 171.586 536.528 174.437L504.613 208.564C503.339 209.927 503.047 211.938 503.881 213.607L546.419 298.683C547.903 301.65 545.746 305.14 542.429 305.14H504.503C502.779 305.14 501.21 304.147 500.471 302.589L475.056 248.953C473.697 246.087 469.865 245.513 467.727 247.857L462.805 253.253C462.055 254.075 461.639 255.147 461.639 256.26V300.679C461.639 303.143 459.642 305.14 457.178 305.14H421.792Z" fill="#FF3D02"/>
<path d="M557.298 305.14C554.834 305.14 552.837 303.143 552.837 300.679V171.39C552.837 168.926 554.834 166.928 557.298 166.928H648.579C651.043 166.928 653.041 168.926 653.041 171.39V197.426C653.041 199.89 651.043 201.888 648.579 201.888H601.608C599.143 201.888 597.146 203.885 597.146 206.349V214.093C597.146 216.557 599.143 218.554 601.608 218.554H648.579C651.043 218.554 653.041 220.552 653.041 223.016V248.036C653.041 250.5 651.043 252.498 648.579 252.498H601.608C599.143 252.498 597.146 254.495 597.146 256.959V265.719C597.146 268.183 599.143 270.181 601.608 270.181H648.579C651.043 270.181 653.041 272.178 653.041 274.642V300.679C653.041 303.143 651.043 305.14 648.579 305.14H557.298Z" fill="#FF3D02"/>
<path d="M703.646 305.14C701.182 305.14 699.185 303.143 699.185 300.679V206.756C699.185 204.292 697.187 202.294 694.723 202.294H667.317C664.853 202.294 662.855 200.297 662.855 197.832V171.39C662.855 168.926 664.853 166.928 667.317 166.928H775.158C777.622 166.928 779.62 168.926 779.62 171.39V197.832C779.62 200.297 777.622 202.294 775.158 202.294H747.955C745.491 202.294 743.494 204.292 743.494 206.756V300.679C743.494 303.143 741.496 305.14 739.032 305.14H703.646Z" fill="#FF3D02"/>
<path d="M792.577 305.14C790.113 305.14 788.115 303.143 788.115 300.679V171.39C788.115 168.926 790.113 166.928 792.577 166.928H827.962C830.427 166.928 832.424 168.926 832.424 171.39V300.679C832.424 303.143 830.427 305.14 827.962 305.14H792.577Z" fill="#FF3D02"/>
<path d="M849.912 305.14C847.447 305.14 845.45 303.143 845.45 300.679V171.39C845.45 168.926 847.447 166.928 849.912 166.928L886.803 166.928C888.595 166.928 890.213 168 890.912 169.65L909.847 214.371C911.743 218.849 918.418 217.494 918.418 212.631V171.39C918.418 168.926 920.415 166.928 922.88 166.928H958.062C960.526 166.928 962.524 168.926 962.524 171.39V300.679C962.524 303.143 960.526 305.14 958.062 305.14H921.338C919.564 305.14 917.959 304.089 917.249 302.464L898.31 259.078C896.375 254.646 889.759 256.027 889.759 260.863V300.679C889.759 303.143 887.762 305.14 885.297 305.14H849.912Z" fill="#FF3D02"/>
<path d="M1018.72 305.953C991.079 305.953 974.615 288.88 974.615 261.441V210.628C974.615 183.392 991.079 166.318 1018.72 166.318H1045.96C1073.8 166.318 1090.06 183.392 1090.06 210.628V212.467C1090.06 214.931 1088.07 216.928 1085.6 216.928H1050.22C1047.75 216.928 1045.75 214.931 1045.75 212.467V211.644C1045.75 205.14 1041.89 201.684 1035.59 201.684H1029.09C1022.79 201.684 1018.92 205.14 1018.92 211.644V260.628C1018.92 266.929 1022.79 270.587 1029.09 270.587H1036.81C1043.11 270.587 1046.36 268.351 1046.36 262.254V261.634C1046.36 259.17 1044.37 257.172 1041.9 257.172H1036.39C1033.93 257.172 1031.93 255.175 1031.93 252.711V231.553C1031.93 229.089 1033.93 227.091 1036.39 227.091H1085.6C1088.07 227.091 1090.06 229.089 1090.06 231.553V262.457C1090.06 289.896 1073.8 305.953 1045.96 305.953H1018.72Z" fill="#FF3D02"/>
<path d="M14.5247 148.954C12.0606 148.954 10.063 146.956 10.063 144.492V15.2033C10.063 12.7392 12.0606 10.7416 14.5247 10.7416L61.8753 10.7416C63.9175 10.7416 65.699 12.1282 66.2004 14.1079L80.7158 71.4213C81.854 75.9154 88.2416 75.9076 89.3688 71.4107L103.729 14.1185C104.227 12.1336 106.011 10.7416 108.057 10.7416L155.399 10.7416C157.863 10.7416 159.861 12.7392 159.861 15.2033V144.492C159.861 146.956 157.863 148.954 155.399 148.954H120.013C117.549 148.954 115.551 146.956 115.551 144.492V103.417C115.551 98.2248 108.181 97.2196 106.791 102.223L94.7113 145.687C94.1746 147.618 92.4165 148.954 90.4125 148.954H79.5111C77.507 148.954 75.7489 147.618 75.2123 145.687L63.1327 102.223C61.7422 97.2197 54.3722 98.2248 54.3722 103.417V144.492C54.3722 146.956 52.3746 148.954 49.9105 148.954H14.5247Z" fill="#FF3D02"/>
<path d="M174.722 148.954C172.258 148.954 170.26 146.956 170.26 144.492V15.2033C170.26 12.7392 172.258 10.7416 174.722 10.7416L266.002 10.7416C268.466 10.7416 270.464 12.7392 270.464 15.2033V41.2394C270.464 43.7036 268.466 45.7011 266.002 45.7011H219.031C216.567 45.7011 214.569 47.6987 214.569 50.1629V57.9062C214.569 60.3703 216.567 62.3679 219.031 62.3679H266.002C268.466 62.3679 270.464 64.3655 270.464 66.8296V91.8495C270.464 94.3136 268.466 96.3112 266.002 96.3112H219.031C216.567 96.3112 214.569 98.3088 214.569 100.773V109.532C214.569 111.997 216.567 113.994 219.031 113.994H266.002C268.466 113.994 270.464 115.992 270.464 118.456V144.492C270.464 146.956 268.466 148.954 266.002 148.954L174.722 148.954Z" fill="#FF3D02"/>
<path d="M324.29 149.564C296.647 149.564 279.777 132.49 279.777 105.661V54.0345C279.777 27.2051 296.647 10.1318 324.29 10.1318L351.729 10.1318C379.371 10.1318 396.241 27.2051 396.241 54.0345V65.02C396.241 67.4842 394.244 69.4818 391.78 69.4818H356.191C353.727 69.4818 351.729 67.4842 351.729 65.02V55.0508C351.729 48.9532 347.867 45.4979 341.363 45.4979H334.656C328.152 45.4979 324.29 48.9532 324.29 55.0508V104.645C324.29 110.742 328.152 114.197 334.656 114.197H341.363C347.867 114.197 351.729 110.742 351.729 104.645V91.8298C351.729 89.3656 353.727 87.368 356.191 87.368H391.78C394.244 87.368 396.241 89.3656 396.241 91.8298V105.661C396.241 132.49 379.371 149.564 351.729 149.564H324.29Z" fill="#FF3D02"/>
<path d="M408.425 148.954C405.96 148.954 403.963 146.956 403.963 144.492V15.2033C403.963 12.7392 405.96 10.7416 408.425 10.7416L443.81 10.7416C446.274 10.7416 448.272 12.7392 448.272 15.2033V56.6867C448.272 59.1508 450.27 61.1484 452.734 61.1484H478.77C481.234 61.1484 483.232 59.1508 483.232 56.6867V15.2033C483.232 12.7392 485.229 10.7416 487.693 10.7416L523.079 10.7416C525.543 10.7416 527.541 12.7392 527.541 15.2033V144.492C527.541 146.956 525.543 148.954 523.079 148.954H487.693C485.229 148.954 483.232 146.956 483.232 144.492V100.976C483.232 98.512 481.234 96.5144 478.77 96.5144H452.734C450.27 96.5144 448.272 98.512 448.272 100.976V144.492C448.272 146.956 446.274 148.954 443.81 148.954H408.425Z" fill="#FF3D02"/>
<path d="M539.697 148.954C536.879 148.954 534.767 146.373 535.324 143.611L561.371 14.3221C561.791 12.2395 563.621 10.7416 565.745 10.7416L619.619 10.7416C621.744 10.7416 623.574 12.2395 623.993 14.3221L650.041 143.611C650.598 146.373 648.485 148.954 645.667 148.954L610.486 148.954C608.261 148.954 606.376 147.314 606.068 145.11L604.501 133.895C604.192 131.691 602.307 130.051 600.082 130.051H584.918C582.675 130.051 580.78 131.717 580.493 133.942L579.058 145.063C578.771 147.288 576.877 148.954 574.633 148.954H539.697ZM585.73 93.4987C585.375 96.1724 587.456 98.547 590.153 98.547H594.824C597.514 98.547 599.593 96.183 599.249 93.5143L596.945 75.6636C596.277 70.4851 588.784 70.472 588.097 75.648L585.73 93.4987Z" fill="#FF3D02"/>
<path d="M661.424 148.954C658.96 148.954 656.962 146.956 656.962 144.492V15.2033C656.962 12.7392 658.96 10.7416 661.424 10.7416L698.316 10.7416C700.108 10.7416 701.726 11.8136 702.424 13.4636L721.36 58.1844C723.256 62.6623 729.93 61.3074 729.93 56.4447V15.2033C729.93 12.7392 731.928 10.7416 734.392 10.7416L769.575 10.7416C772.039 10.7416 774.036 12.7392 774.036 15.2033V144.492C774.036 146.956 772.039 148.954 769.575 148.954H732.851C731.077 148.954 729.472 147.903 728.762 146.277L709.823 102.891C707.888 98.4595 701.272 99.8407 701.272 104.676V144.492C701.272 146.956 699.274 148.954 696.81 148.954H661.424Z" fill="#FF3D02"/>
<path d="M792.289 148.954C789.825 148.954 787.828 146.956 787.828 144.492V15.2033C787.828 12.7392 789.825 10.7416 792.289 10.7416L827.675 10.7416C830.139 10.7416 832.137 12.7392 832.137 15.2033V144.492C832.137 146.956 830.139 148.954 827.675 148.954H792.289Z" fill="#FF3D02"/>
<path d="M887.884 149.564C860.242 149.564 843.372 132.49 843.372 105.661V54.0345C843.372 27.2051 860.242 10.1318 887.884 10.1318L915.323 10.1318C942.966 10.1318 959.836 27.2051 959.836 54.0345V65.02C959.836 67.4842 957.838 69.4818 955.374 69.4818H919.785C917.321 69.4818 915.323 67.4842 915.323 65.02V55.0508C915.323 48.9532 911.462 45.4979 904.958 45.4979H898.25C891.746 45.4979 887.884 48.9532 887.884 55.0508V104.645C887.884 110.742 891.746 114.197 898.25 114.197H904.958C911.462 114.197 915.323 110.742 915.323 104.645V91.8298C915.323 89.3656 917.321 87.368 919.785 87.368H955.374C957.838 87.368 959.836 89.3656 959.836 91.8298V105.661C959.836 132.49 942.966 149.564 915.323 149.564H887.884Z" fill="#FF3D02"/>
</svg>
