<svg width="2710" height="192" viewBox="0 0 2710 192" fill="none" xmlns="http://www.w3.org/2000/svg">
<path d="M10.9749 185.27C7.7794 185.27 5.18896 182.679 5.18896 179.484V11.8232C5.18896 8.62772 7.7794 6.03729 10.9749 6.03729H72.3786C75.027 6.03729 77.3372 7.8354 77.9874 10.4027L96.8109 84.7262C98.2869 90.5541 106.57 90.544 108.032 84.7124L126.655 10.4165C127.3 7.84245 129.613 6.03729 132.267 6.03729H193.659C196.855 6.03729 199.445 8.62773 199.445 11.8232V179.484C199.445 182.679 196.855 185.27 193.659 185.27H147.771C144.576 185.27 141.985 182.679 141.985 179.484V126.219C141.985 119.485 132.428 118.181 130.625 124.669L114.96 181.033C114.264 183.537 111.984 185.27 109.385 185.27H95.2486C92.6498 185.27 90.3698 183.537 89.674 181.033L74.0093 124.669C72.2061 118.181 62.6487 119.485 62.6487 126.219V179.484C62.6487 182.679 60.0583 185.27 56.8628 185.27H10.9749Z" fill="black"/>
<path d="M218.717 185.27C215.521 185.27 212.931 182.679 212.931 179.484V11.8232C212.931 8.62772 215.521 6.03729 218.717 6.03729H337.089C340.284 6.03729 342.874 8.62773 342.874 11.8232V45.5866C342.874 48.782 340.284 51.3725 337.089 51.3725H276.177C272.981 51.3725 270.391 53.9629 270.391 57.1584V67.1999C270.391 70.3953 272.981 72.9858 276.177 72.9858H337.089C340.284 72.9858 342.874 75.5762 342.874 78.7717V111.217C342.874 114.413 340.284 117.003 337.089 117.003H276.177C272.981 117.003 270.391 119.594 270.391 122.789V134.148C270.391 137.344 272.981 139.934 276.177 139.934H337.089C340.284 139.934 342.874 142.525 342.874 145.72V179.484C342.874 182.679 340.284 185.27 337.089 185.27H218.717Z" fill="black"/>
<path d="M412.675 186.06C376.829 186.06 354.952 163.92 354.952 129.128V62.1792C354.952 27.387 376.829 5.24655 412.675 5.24655H448.258C484.105 5.24655 505.982 27.387 505.982 62.1792V76.4251C505.982 79.6205 503.391 82.211 500.196 82.211H454.044C450.849 82.211 448.258 79.6205 448.258 76.4251V63.497C448.258 55.5897 443.25 51.1089 434.816 51.1089H426.118C417.683 51.1089 412.675 55.5897 412.675 63.497V127.81C412.675 135.717 417.683 140.198 426.118 140.198H434.816C443.25 140.198 448.258 135.717 448.258 127.81V111.192C448.258 107.996 450.849 105.406 454.044 105.406H500.196C503.391 105.406 505.982 107.996 505.982 111.192V129.128C505.982 163.92 484.105 186.06 448.258 186.06H412.675Z" fill="black"/>
<path d="M521.781 185.27C518.585 185.27 515.995 182.679 515.995 179.484V11.8232C515.995 8.62772 518.585 6.03729 521.781 6.03729H567.668C570.864 6.03729 573.454 8.62773 573.454 11.8232V65.6184C573.454 68.8139 576.045 71.4043 579.24 71.4043H613.004C616.199 71.4043 618.79 68.8139 618.79 65.6184V11.8232C618.79 8.62773 621.38 6.03729 624.576 6.03729H670.464C673.659 6.03729 676.25 8.62773 676.25 11.8232V179.484C676.25 182.679 673.659 185.27 670.464 185.27H624.576C621.38 185.27 618.79 182.679 618.79 179.484V123.053C618.79 119.857 616.199 117.267 613.004 117.267H579.24C576.045 117.267 573.454 119.857 573.454 123.053V179.484C573.454 182.679 570.864 185.27 567.668 185.27H521.781Z" fill="black"/>
<path d="M692.014 185.27C688.36 185.27 685.62 181.923 686.342 178.341L720.121 10.6805C720.665 7.97977 723.038 6.03729 725.793 6.03729H795.656C798.411 6.03729 800.784 7.97978 801.328 10.6805L835.106 178.341C835.828 181.923 833.089 185.27 829.435 185.27H783.813C780.927 185.27 778.482 183.143 778.083 180.285L776.05 165.742C775.65 162.884 773.206 160.757 770.32 160.757H750.656C747.747 160.757 745.29 162.917 744.918 165.802L743.057 180.224C742.685 183.109 740.228 185.27 737.319 185.27H692.014ZM751.709 113.356C751.249 116.823 753.947 119.902 757.444 119.902H763.501C766.99 119.902 769.686 116.837 769.239 113.376L766.253 90.2275C765.386 83.5122 755.669 83.4951 754.778 90.2073L751.709 113.356Z" fill="black"/>
<path d="M849.868 185.27C846.673 185.27 844.082 182.679 844.082 179.484V11.8232C844.082 8.62772 846.673 6.03729 849.868 6.03729H897.709C900.032 6.03729 902.13 7.42744 903.037 9.56721L927.592 67.5607C930.051 73.3675 938.706 71.6106 938.706 65.3047V11.8232C938.706 8.62773 941.297 6.03729 944.492 6.03729H990.116C993.312 6.03729 995.902 8.62773 995.902 11.8232V179.484C995.902 182.679 993.312 185.27 990.116 185.27H942.494C940.193 185.27 938.111 183.907 937.191 181.798L912.631 125.536C910.122 119.789 901.542 121.58 901.542 127.851V179.484C901.542 182.679 898.952 185.27 895.756 185.27H849.868Z" fill="black"/>
<path d="M1019.57 185.27C1016.38 185.27 1013.79 182.679 1013.79 179.484V11.8232C1013.79 8.62772 1016.38 6.03729 1019.57 6.03729H1065.46C1068.66 6.03729 1071.25 8.62773 1071.25 11.8232V179.484C1071.25 182.679 1068.66 185.27 1065.46 185.27H1019.57Z" fill="black"/>
<path d="M1143.54 186.06C1107.69 186.06 1085.82 163.92 1085.82 129.128V62.1792C1085.82 27.387 1107.69 5.24655 1143.54 5.24655H1179.12C1214.97 5.24655 1236.85 27.387 1236.85 62.1792V76.4251C1236.85 79.6205 1234.26 82.211 1231.06 82.211H1184.91C1181.71 82.211 1179.12 79.6205 1179.12 76.4251V63.497C1179.12 55.5897 1174.11 51.1089 1165.68 51.1089H1156.98C1148.55 51.1089 1143.54 55.5897 1143.54 63.497V127.81C1143.54 135.717 1148.55 140.198 1156.98 140.198H1165.68C1174.11 140.198 1179.12 135.717 1179.12 127.81V111.192C1179.12 107.996 1181.71 105.406 1184.91 105.406H1231.06C1234.26 105.406 1236.85 107.996 1236.85 111.192V129.128C1236.85 163.92 1214.97 186.06 1179.12 186.06H1143.54Z" fill="black"/>
<path d="M1309.63 186.308C1306.44 186.308 1303.85 183.717 1303.85 180.522V12.8614C1303.85 9.66589 1306.44 7.07547 1309.63 7.07547H1371.04C1373.68 7.07547 1375.99 8.87359 1376.64 11.4409L1395.47 85.7643C1396.94 91.5922 1405.23 91.5821 1406.69 85.7506L1425.31 11.4547C1425.96 8.88064 1428.27 7.07547 1430.92 7.07547H1492.32C1495.51 7.07547 1498.1 9.66592 1498.1 12.8614V180.522C1498.1 183.717 1495.51 186.308 1492.32 186.308H1446.43C1443.23 186.308 1440.64 183.717 1440.64 180.522V127.257C1440.64 120.523 1431.08 119.219 1429.28 125.707L1413.62 182.071C1412.92 184.575 1410.64 186.308 1408.04 186.308H1393.91C1391.31 186.308 1389.03 184.575 1388.33 182.071L1372.67 125.707C1370.86 119.219 1361.31 120.523 1361.31 127.257V180.522C1361.31 183.717 1358.72 186.308 1355.52 186.308H1309.63Z" fill="black"/>
<path d="M1515.31 185.022C1511.65 185.022 1508.91 181.676 1509.64 178.093L1543.42 10.433C1543.96 7.73232 1546.33 5.78984 1549.09 5.78984H1618.95C1621.71 5.78984 1624.08 7.73235 1624.62 10.4331L1658.4 178.093C1659.12 181.676 1656.38 185.022 1652.73 185.022H1607.11C1604.22 185.022 1601.78 182.895 1601.38 180.037L1599.34 165.494C1598.94 162.636 1596.5 160.509 1593.61 160.509H1573.95C1571.04 160.509 1568.58 162.67 1568.21 165.555L1566.35 179.977C1565.98 182.862 1563.52 185.022 1560.61 185.022H1515.31ZM1575 113.108C1574.54 116.576 1577.24 119.655 1580.74 119.655H1586.8C1590.29 119.655 1592.98 116.589 1592.53 113.129L1589.55 89.9801C1588.68 83.2647 1578.96 83.2476 1578.07 89.9599L1575 113.108Z" fill="black"/>
<path d="M1676.27 185.022C1673.07 185.022 1670.48 182.432 1670.48 179.236V11.5757C1670.48 8.38026 1673.07 5.78984 1676.27 5.78984H1766.42C1795.15 5.78984 1812.81 22.9223 1812.81 50.5979V71.1569C1812.81 88.6635 1805.97 100.533 1793.69 107.294C1790.74 108.916 1789.25 112.495 1790.69 115.538L1819.48 176.774C1821.28 180.612 1818.48 185.022 1814.24 185.022H1768.9C1766.6 185.022 1764.51 183.652 1763.59 181.536L1737.4 121.046C1736.62 119.241 1734.84 118.074 1732.87 118.074C1730.15 118.074 1727.94 120.282 1727.94 123.006V179.236C1727.94 182.432 1725.35 185.022 1722.15 185.022H1676.27ZM1727.94 72.7511C1727.94 75.9466 1730.53 78.537 1733.73 78.537H1745.34C1752.45 78.537 1756.93 74.3199 1756.93 67.7304V58.5052C1756.93 51.9158 1752.45 47.6985 1745.34 47.6985H1733.73C1730.53 47.6985 1727.94 50.289 1727.94 53.4845V72.7511Z" fill="black"/>
<path d="M1837.77 185.022C1834.58 185.022 1831.99 182.432 1831.99 179.236V11.5757C1831.99 8.38026 1834.58 5.78984 1837.77 5.78984H1883.66C1886.86 5.78984 1889.45 8.38031 1889.45 11.5758V38.0155C1889.45 43.3358 1896.02 45.8359 1899.56 41.8595L1929.89 7.7318C1930.99 6.49658 1932.56 5.78984 1934.22 5.78984H1982.33C1987.4 5.78984 1990.02 11.8307 1986.56 15.5278L1945.17 59.7827C1943.52 61.5498 1943.14 64.1584 1944.22 66.3224L1999.39 176.649C2001.31 180.496 1998.51 185.022 1994.21 185.022H1945.03C1942.8 185.022 1940.76 183.734 1939.8 181.714L1906.84 112.159C1905.08 108.442 1900.11 107.698 1897.34 110.737L1890.96 117.735C1889.98 118.801 1889.45 120.191 1889.45 121.634V179.236C1889.45 182.432 1886.86 185.022 1883.66 185.022H1837.77Z" fill="black"/>
<path d="M2013.5 185.022C2010.3 185.022 2007.71 182.432 2007.71 179.236V11.5757C2007.71 8.38026 2010.3 5.78984 2013.5 5.78984H2131.87C2135.06 5.78984 2137.65 8.38031 2137.65 11.5758V45.3391C2137.65 48.5346 2135.06 51.125 2131.87 51.125H2070.96C2067.76 51.125 2065.17 53.7155 2065.17 56.911V66.9524C2065.17 70.1479 2067.76 72.7383 2070.96 72.7383H2131.87C2135.06 72.7383 2137.65 75.3288 2137.65 78.5243V110.97C2137.65 114.165 2135.06 116.756 2131.87 116.756H2070.96C2067.76 116.756 2065.17 119.346 2065.17 122.542V133.901C2065.17 137.096 2067.76 139.687 2070.96 139.687H2131.87C2135.06 139.687 2137.65 142.277 2137.65 145.473V179.236C2137.65 182.432 2135.06 185.022 2131.87 185.022H2013.5Z" fill="black"/>
<path d="M2203.28 185.022C2200.08 185.022 2197.49 182.432 2197.49 179.236V57.4381C2197.49 54.2426 2194.9 51.6522 2191.71 51.6522H2156.17C2152.97 51.6522 2150.38 49.0618 2150.38 45.8663V11.5758C2150.38 8.38031 2152.97 5.78984 2156.17 5.78984H2296.01C2299.21 5.78984 2301.8 8.38031 2301.8 11.5758V45.8663C2301.8 49.0618 2299.21 51.6522 2296.01 51.6522H2260.74C2257.54 51.6522 2254.95 54.2426 2254.95 57.4381V179.236C2254.95 182.432 2252.36 185.022 2249.17 185.022H2203.28Z" fill="black"/>
<path d="M2318.6 185.022C2315.41 185.022 2312.82 182.432 2312.82 179.236V11.5757C2312.82 8.38026 2315.41 5.78984 2318.6 5.78984H2364.49C2367.69 5.78984 2370.28 8.38031 2370.28 11.5758V179.236C2370.28 182.432 2367.69 185.022 2364.49 185.022H2318.6Z" fill="black"/>
<path d="M2392.95 185.022C2389.76 185.022 2387.17 182.432 2387.17 179.236V11.5757C2387.17 8.38026 2389.76 5.78984 2392.95 5.78984H2440.79C2443.12 5.78984 2445.22 7.17998 2446.12 9.31976L2470.68 67.3132C2473.14 73.1201 2481.79 71.3631 2481.79 65.0572V11.5758C2481.79 8.38031 2484.38 5.78984 2487.58 5.78984H2533.2C2536.4 5.78984 2538.99 8.38031 2538.99 11.5758V179.236C2538.99 182.432 2536.4 185.022 2533.2 185.022H2485.58C2483.28 185.022 2481.2 183.659 2480.28 181.551L2455.72 125.288C2453.21 119.542 2444.63 121.333 2444.63 127.603V179.236C2444.63 182.432 2442.04 185.022 2438.84 185.022H2392.95Z" fill="black"/>
<path d="M2611.86 186.076C2576.02 186.076 2554.67 163.936 2554.67 128.353V62.4588C2554.67 27.1395 2576.02 4.99911 2611.86 4.99911H2647.18C2683.29 4.99911 2704.38 27.1395 2704.38 62.4588V64.8438C2704.38 68.0393 2701.79 70.6298 2698.59 70.6298H2652.71C2649.51 70.6298 2646.92 68.0393 2646.92 64.8438V63.7768C2646.92 55.3423 2641.91 50.8614 2633.74 50.8614H2625.31C2617.14 50.8614 2612.13 55.3423 2612.13 63.7768V127.299C2612.13 135.47 2617.14 140.214 2625.31 140.214H2635.32C2643.49 140.214 2647.71 137.315 2647.71 129.407V128.604C2647.71 125.408 2645.12 122.818 2641.92 122.818H2634.78C2631.59 122.818 2629 120.227 2629 117.032V89.5945C2629 86.399 2631.59 83.8085 2634.78 83.8085H2698.59C2701.79 83.8085 2704.38 86.399 2704.38 89.5945V129.671C2704.38 165.254 2683.29 186.076 2647.18 186.076H2611.86Z" fill="black"/>
</svg>
