<svg width="1101" height="316" viewBox="0 0 1101 316" fill="none" xmlns="http://www.w3.org/2000/svg">
<path d="M14.5247 306C12.0606 306 10.063 304.003 10.063 301.539V172.25C10.063 169.786 12.0606 167.788 14.5247 167.788H61.8753C63.9175 167.788 65.699 169.175 66.2004 171.154L80.7158 228.468C81.854 232.962 88.2417 232.954 89.3688 228.457L103.729 171.165C104.227 169.18 106.011 167.788 108.057 167.788H155.399C157.863 167.788 159.861 169.786 159.861 172.25V301.539C159.861 304.003 157.863 306 155.399 306H120.013C117.549 306 115.551 304.003 115.551 301.539V260.464C115.551 255.271 108.181 254.266 106.791 259.269L94.7113 302.733C94.1747 304.664 92.4165 306 90.4125 306H79.5111C77.5071 306 75.7489 304.664 75.2123 302.733L63.1327 259.269C61.7422 254.266 54.3722 255.271 54.3722 260.464V301.539C54.3722 304.003 52.3746 306 49.9105 306H14.5247Z" fill="black"/>
<path d="M173.129 305.009C170.311 305.009 168.199 302.429 168.755 299.666L194.803 170.377C195.223 168.295 197.053 166.797 199.177 166.797H253.051C255.176 166.797 257.006 168.295 257.425 170.377L283.473 299.666C284.03 302.429 281.917 305.009 279.099 305.009H243.919C241.693 305.009 239.808 303.369 239.5 301.165L237.932 289.95C237.624 287.746 235.739 286.106 233.513 286.106H218.35C216.107 286.106 214.212 287.772 213.925 289.997L212.49 301.118C212.203 303.343 210.309 305.009 208.065 305.009H173.129ZM219.162 249.554C218.807 252.228 220.888 254.602 223.585 254.602H228.255C230.946 254.602 233.025 252.238 232.68 249.569L230.377 231.719C229.709 226.54 222.215 226.527 221.529 231.703L219.162 249.554Z" fill="black"/>
<path d="M297.25 305.009C294.785 305.009 292.788 303.011 292.788 300.547V171.258C292.788 168.794 294.785 166.797 297.25 166.797H366.772C388.927 166.797 402.545 180.008 402.545 201.35V217.204C402.545 230.704 397.266 239.857 387.796 245.07C385.524 246.321 384.379 249.081 385.482 251.427L407.684 298.649C409.076 301.608 406.916 305.009 403.647 305.009H368.686C366.907 305.009 365.298 303.953 364.591 302.32L344.39 255.674C343.788 254.283 342.417 253.383 340.9 253.383C338.8 253.383 337.097 255.085 337.097 257.186V300.547C337.097 303.011 335.099 305.009 332.635 305.009H297.25ZM337.097 218.433C337.097 220.897 339.095 222.895 341.559 222.895H350.512C356 222.895 359.455 219.643 359.455 214.561V207.447C359.455 202.366 356 199.114 350.512 199.114H341.559C339.095 199.114 337.097 201.112 337.097 203.576V218.433Z" fill="black"/>
<path d="M421.792 305.009C419.328 305.009 417.33 303.011 417.33 300.547V171.258C417.33 168.794 419.328 166.797 421.792 166.797H457.178C459.642 166.797 461.639 168.794 461.639 171.259V191.647C461.639 195.75 466.71 197.678 469.436 194.611L492.829 168.294C493.675 167.342 494.889 166.797 496.163 166.797H533.269C537.172 166.797 539.194 171.455 536.528 174.306L504.613 208.433C503.339 209.795 503.047 211.807 503.881 213.475L546.419 298.552C547.903 301.518 545.746 305.009 542.429 305.009H504.503C502.779 305.009 501.21 304.016 500.471 302.458L475.056 248.822C473.697 245.955 469.865 245.382 467.727 247.725L462.805 253.121C462.055 253.943 461.639 255.016 461.639 256.128V300.547C461.639 303.011 459.642 305.009 457.178 305.009H421.792Z" fill="black"/>
<path d="M557.298 305.009C554.834 305.009 552.837 303.011 552.837 300.547V171.258C552.837 168.794 554.834 166.797 557.298 166.797H648.579C651.043 166.797 653.041 168.794 653.041 171.259V197.295C653.041 199.759 651.043 201.756 648.579 201.756H601.608C599.143 201.756 597.146 203.754 597.146 206.218V213.961C597.146 216.425 599.143 218.423 601.608 218.423H648.579C651.043 218.423 653.041 220.421 653.041 222.885V247.905C653.041 250.369 651.043 252.366 648.579 252.366H601.608C599.143 252.366 597.146 254.364 597.146 256.828V265.588C597.146 268.052 599.143 270.049 601.608 270.049H648.579C651.043 270.049 653.041 272.047 653.041 274.511V300.547C653.041 303.011 651.043 305.009 648.579 305.009H557.298Z" fill="black"/>
<path d="M703.646 305.009C701.182 305.009 699.185 303.011 699.185 300.547V206.625C699.185 204.16 697.187 202.163 694.723 202.163H667.317C664.853 202.163 662.855 200.165 662.855 197.701V171.259C662.855 168.794 664.853 166.797 667.317 166.797H775.158C777.622 166.797 779.62 168.794 779.62 171.259V197.701C779.62 200.165 777.622 202.163 775.158 202.163H747.955C745.491 202.163 743.494 204.16 743.494 206.625V300.547C743.494 303.011 741.496 305.009 739.032 305.009H703.646Z" fill="black"/>
<path d="M792.577 305.009C790.113 305.009 788.115 303.011 788.115 300.547V171.258C788.115 168.794 790.113 166.797 792.577 166.797H827.962C830.427 166.797 832.424 168.794 832.424 171.259V300.547C832.424 303.011 830.427 305.009 827.962 305.009H792.577Z" fill="black"/>
<path d="M849.912 305.009C847.447 305.009 845.45 303.011 845.45 300.547V171.258C845.45 168.794 847.447 166.797 849.912 166.797L886.803 166.797C888.595 166.797 890.213 167.869 890.912 169.519L909.847 214.24C911.743 218.717 918.418 217.363 918.418 212.5V171.259C918.418 168.794 920.415 166.797 922.88 166.797H958.062C960.526 166.797 962.524 168.794 962.524 171.259V300.547C962.524 303.011 960.526 305.009 958.062 305.009H921.338C919.564 305.009 917.959 303.958 917.249 302.332L898.31 258.946C896.375 254.515 889.759 255.896 889.759 260.731V300.547C889.759 303.011 887.762 305.009 885.297 305.009H849.912Z" fill="black"/>
<path d="M1018.72 305.822C991.079 305.822 974.615 288.749 974.615 261.309V210.496C974.615 183.26 991.079 166.187 1018.72 166.187H1045.96C1073.8 166.187 1090.06 183.26 1090.06 210.496V212.335C1090.06 214.799 1088.07 216.797 1085.6 216.797H1050.22C1047.75 216.797 1045.75 214.799 1045.75 212.335V211.512C1045.75 205.008 1041.89 201.553 1035.59 201.553H1029.09C1022.79 201.553 1018.92 205.008 1018.92 211.512V260.496C1018.92 266.797 1022.79 270.456 1029.09 270.456H1036.81C1043.11 270.456 1046.36 268.22 1046.36 262.122V261.503C1046.36 259.039 1044.37 257.041 1041.9 257.041H1036.39C1033.93 257.041 1031.93 255.044 1031.93 252.579V231.421C1031.93 228.957 1033.93 226.96 1036.39 226.96H1085.6C1088.07 226.96 1090.06 228.957 1090.06 231.421V262.326C1090.06 289.765 1073.8 305.822 1045.96 305.822H1018.72Z" fill="black"/>
<path d="M14.5247 148.822C12.0606 148.822 10.063 146.825 10.063 144.361V15.072C10.063 12.6078 12.0606 10.6103 14.5247 10.6103L61.8753 10.6103C63.9175 10.6103 65.699 11.9968 66.2004 13.9766L80.7158 71.29C81.854 75.7841 88.2416 75.7763 89.3688 71.2794L103.729 13.9872C104.227 12.0023 106.011 10.6103 108.057 10.6103L155.399 10.6103C157.863 10.6103 159.861 12.6078 159.861 15.072V144.361C159.861 146.825 157.863 148.822 155.399 148.822H120.013C117.549 148.822 115.551 146.825 115.551 144.361V103.286C115.551 98.0934 108.181 97.0883 106.791 102.091L94.7113 145.555C94.1746 147.486 92.4165 148.822 90.4125 148.822H79.5111C77.507 148.822 75.7489 147.486 75.2123 145.555L63.1327 102.091C61.7422 97.0883 54.3722 98.0934 54.3722 103.286V144.361C54.3722 146.825 52.3746 148.822 49.9105 148.822H14.5247Z" fill="black"/>
<path d="M174.722 148.822C172.258 148.822 170.26 146.825 170.26 144.361V15.072C170.26 12.6078 172.258 10.6103 174.722 10.6103L266.002 10.6103C268.466 10.6103 270.464 12.6078 270.464 15.072V41.1081C270.464 43.5722 268.466 45.5698 266.002 45.5698H219.031C216.567 45.5698 214.569 47.5674 214.569 50.0315V57.7748C214.569 60.239 216.567 62.2365 219.031 62.2365H266.002C268.466 62.2365 270.464 64.2341 270.464 66.6983V91.7181C270.464 94.1822 268.466 96.1798 266.002 96.1798H219.031C216.567 96.1798 214.569 98.1774 214.569 100.642V109.401C214.569 111.865 216.567 113.863 219.031 113.863H266.002C268.466 113.863 270.464 115.86 270.464 118.325V144.361C270.464 146.825 268.466 148.822 266.002 148.822L174.722 148.822Z" fill="black"/>
<path d="M324.29 149.432C296.647 149.432 279.777 132.359 279.777 105.529V53.9032C279.777 27.0738 296.647 10.0005 324.29 10.0005L351.729 10.0005C379.371 10.0005 396.241 27.0738 396.241 53.9032V64.8887C396.241 67.3528 394.244 69.3504 391.78 69.3504H356.191C353.727 69.3504 351.729 67.3528 351.729 64.8887V54.9194C351.729 48.8218 347.867 45.3665 341.363 45.3665H334.656C328.152 45.3665 324.29 48.8218 324.29 54.9194V104.513C324.29 110.611 328.152 114.066 334.656 114.066H341.363C347.867 114.066 351.729 110.611 351.729 104.513V91.6984C351.729 89.2343 353.727 87.2367 356.191 87.2367H391.78C394.244 87.2367 396.241 89.2343 396.241 91.6984V105.529C396.241 132.359 379.371 149.432 351.729 149.432H324.29Z" fill="black"/>
<path d="M408.425 148.822C405.96 148.822 403.963 146.825 403.963 144.361V15.072C403.963 12.6078 405.96 10.6103 408.425 10.6103L443.81 10.6103C446.274 10.6103 448.272 12.6078 448.272 15.072V56.5553C448.272 59.0195 450.27 61.017 452.734 61.017H478.77C481.234 61.017 483.232 59.0195 483.232 56.5553V15.072C483.232 12.6078 485.229 10.6103 487.693 10.6103L523.079 10.6103C525.543 10.6103 527.541 12.6078 527.541 15.072V144.361C527.541 146.825 525.543 148.822 523.079 148.822H487.693C485.229 148.822 483.232 146.825 483.232 144.361V100.845C483.232 98.3807 481.234 96.3831 478.77 96.3831H452.734C450.27 96.3831 448.272 98.3807 448.272 100.845V144.361C448.272 146.825 446.274 148.822 443.81 148.822H408.425Z" fill="black"/>
<path d="M539.697 148.822C536.879 148.822 534.767 146.242 535.324 143.479L561.371 14.1908C561.791 12.1082 563.621 10.6103 565.745 10.6103L619.619 10.6103C621.744 10.6103 623.574 12.1082 623.993 14.1908L650.041 143.479C650.598 146.242 648.485 148.822 645.667 148.822L610.486 148.822C608.261 148.822 606.376 147.182 606.068 144.978L604.501 133.764C604.192 131.56 602.307 129.92 600.082 129.92H584.918C582.675 129.92 580.78 131.586 580.493 133.811L579.058 144.932C578.771 147.157 576.877 148.822 574.633 148.822H539.697ZM585.73 93.3673C585.375 96.0411 587.456 98.4156 590.153 98.4156H594.824C597.514 98.4156 599.593 96.0516 599.249 93.3829L596.945 75.5323C596.277 70.3538 588.784 70.3406 588.097 75.5167L585.73 93.3673Z" fill="black"/>
<path d="M661.424 148.822C658.96 148.822 656.962 146.825 656.962 144.361V15.072C656.962 12.6078 658.96 10.6103 661.424 10.6103L698.316 10.6103C700.108 10.6103 701.726 11.6822 702.424 13.3323L721.36 58.0531C723.256 62.5309 729.93 61.1761 729.93 56.3134V15.072C729.93 12.6078 731.928 10.6103 734.392 10.6103L769.575 10.6103C772.039 10.6103 774.036 12.6078 774.036 15.072V144.361C774.036 146.825 772.039 148.822 769.575 148.822H732.851C731.077 148.822 729.472 147.771 728.762 146.146L709.823 102.76C707.888 98.3281 701.272 99.7093 701.272 104.545V144.361C701.272 146.825 699.274 148.822 696.81 148.822H661.424Z" fill="black"/>
<path d="M792.289 148.822C789.825 148.822 787.828 146.825 787.828 144.361V15.072C787.828 12.6078 789.825 10.6103 792.289 10.6103L827.675 10.6103C830.139 10.6103 832.137 12.6078 832.137 15.072V144.361C832.137 146.825 830.139 148.822 827.675 148.822H792.289Z" fill="black"/>
<path d="M887.884 149.432C860.242 149.432 843.372 132.359 843.372 105.529V53.9032C843.372 27.0738 860.242 10.0005 887.884 10.0005L915.323 10.0005C942.966 10.0005 959.836 27.0738 959.836 53.9032V64.8887C959.836 67.3528 957.838 69.3504 955.374 69.3504H919.785C917.321 69.3504 915.323 67.3528 915.323 64.8887V54.9194C915.323 48.8218 911.462 45.3665 904.958 45.3665H898.25C891.746 45.3665 887.884 48.8218 887.884 54.9194V104.513C887.884 110.611 891.746 114.066 898.25 114.066H904.958C911.462 114.066 915.323 110.611 915.323 104.513V91.6984C915.323 89.2343 917.321 87.2367 919.785 87.2367H955.374C957.838 87.2367 959.836 89.2343 959.836 91.6984V105.529C959.836 132.359 942.966 149.432 915.323 149.432H887.884Z" fill="black"/>
</svg>
