<svg width="1100" height="316" viewBox="0 0 1100 316" fill="none" xmlns="http://www.w3.org/2000/svg">
<path d="M14.4617 306C11.9976 306 10 304.003 10 301.539V172.25C10 169.786 11.9976 167.788 14.4617 167.788H61.8123C63.8545 167.788 65.636 169.175 66.1374 171.154L80.6528 228.468C81.791 232.962 88.1787 232.954 89.3059 228.457L103.666 171.165C104.164 169.18 105.948 167.788 107.994 167.788H155.336C157.8 167.788 159.798 169.786 159.798 172.25V301.539C159.798 304.003 157.8 306 155.336 306H119.95C117.486 306 115.488 304.003 115.488 301.539V260.464C115.488 255.271 108.118 254.266 106.728 259.269L94.6483 302.733C94.1117 304.664 92.3535 306 90.3495 306H79.4481C77.4441 306 75.6859 304.664 75.1493 302.733L63.0697 259.269C61.6792 254.266 54.3092 255.271 54.3092 260.464V301.539C54.3092 304.003 52.3116 306 49.8475 306H14.4617Z" fill="black"/>
<path d="M173.066 305.009C170.248 305.009 168.136 302.428 168.692 299.666L194.74 170.377C195.16 168.295 196.99 166.797 199.114 166.797H252.988C255.113 166.797 256.943 168.295 257.362 170.377L283.41 299.666C283.967 302.428 281.854 305.009 279.036 305.009H243.856C241.63 305.009 239.745 303.369 239.437 301.165L237.869 289.95C237.561 287.746 235.676 286.106 233.45 286.106H218.287C216.044 286.106 214.149 287.772 213.862 289.997L212.427 301.118C212.14 303.343 210.246 305.009 208.002 305.009H173.066ZM219.099 249.554C218.744 252.228 220.825 254.602 223.522 254.602H228.192C230.883 254.602 232.962 252.238 232.617 249.569L230.314 231.719C229.646 226.54 222.153 226.527 221.466 231.703L219.099 249.554Z" fill="black"/>
<path d="M297.187 305.009C294.722 305.009 292.725 303.011 292.725 300.547V171.258C292.725 168.794 294.722 166.797 297.187 166.797H366.709C388.864 166.797 402.482 180.008 402.482 201.35V217.203C402.482 230.703 397.204 239.857 387.733 245.07C385.461 246.321 384.316 249.081 385.419 251.427L407.621 298.649C409.013 301.608 406.854 305.009 403.584 305.009H368.623C366.844 305.009 365.235 303.952 364.528 302.32L344.327 255.674C343.725 254.283 342.354 253.383 340.837 253.383C338.737 253.383 337.034 255.085 337.034 257.186V300.547C337.034 303.011 335.037 305.009 332.572 305.009H297.187ZM337.034 218.433C337.034 220.897 339.032 222.895 341.496 222.895H350.449C355.937 222.895 359.392 219.643 359.392 214.561V207.447C359.392 202.366 355.937 199.114 350.449 199.114H341.496C339.032 199.114 337.034 201.112 337.034 203.576V218.433Z" fill="black"/>
<path d="M421.729 305.009C419.265 305.009 417.267 303.011 417.267 300.547V171.258C417.267 168.794 419.265 166.797 421.729 166.797H457.115C459.579 166.797 461.576 168.794 461.576 171.258V191.647C461.576 195.75 466.647 197.678 469.373 194.611L492.766 168.294C493.612 167.342 494.826 166.797 496.1 166.797H533.206C537.109 166.797 539.131 171.455 536.465 174.306L504.55 208.432C503.276 209.795 502.984 211.807 503.818 213.475L546.356 298.552C547.84 301.518 545.683 305.009 542.366 305.009H504.44C502.716 305.009 501.147 304.016 500.408 302.458L474.993 248.822C473.634 245.955 469.802 245.382 467.664 247.725L462.742 253.121C461.992 253.943 461.576 255.016 461.576 256.128V300.547C461.576 303.011 459.579 305.009 457.115 305.009H421.729Z" fill="black"/>
<path d="M557.235 305.009C554.771 305.009 552.774 303.011 552.774 300.547V171.258C552.774 168.794 554.771 166.797 557.235 166.797H648.516C650.98 166.797 652.978 168.794 652.978 171.258V197.294C652.978 199.759 650.98 201.756 648.516 201.756H601.545C599.08 201.756 597.083 203.754 597.083 206.218V213.961C597.083 216.425 599.08 218.423 601.545 218.423H648.516C650.98 218.423 652.978 220.421 652.978 222.885V247.904C652.978 250.369 650.98 252.366 648.516 252.366H601.545C599.08 252.366 597.083 254.364 597.083 256.828V265.588C597.083 268.052 599.08 270.049 601.545 270.049H648.516C650.98 270.049 652.978 272.047 652.978 274.511V300.547C652.978 303.011 650.98 305.009 648.516 305.009H557.235Z" fill="black"/>
<path d="M703.583 305.009C701.119 305.009 699.122 303.011 699.122 300.547V206.624C699.122 204.16 697.124 202.163 694.66 202.163H667.254C664.79 202.163 662.792 200.165 662.792 197.701V171.258C662.792 168.794 664.79 166.797 667.254 166.797H775.095C777.559 166.797 779.557 168.794 779.557 171.258V197.701C779.557 200.165 777.559 202.163 775.095 202.163H747.892C745.428 202.163 743.431 204.16 743.431 206.624V300.547C743.431 303.011 741.433 305.009 738.969 305.009H703.583Z" fill="black"/>
<path d="M792.514 305.009C790.05 305.009 788.052 303.011 788.052 300.547V171.258C788.052 168.794 790.05 166.797 792.514 166.797H827.899C830.364 166.797 832.361 168.794 832.361 171.258V300.547C832.361 303.011 830.364 305.009 827.899 305.009H792.514Z" fill="black"/>
<path d="M849.849 305.009C847.384 305.009 845.387 303.011 845.387 300.547V171.258C845.387 168.794 847.384 166.797 849.849 166.797H886.74C888.532 166.797 890.15 167.869 890.849 169.519L909.784 214.239C911.681 218.717 918.355 217.363 918.355 212.5V171.258C918.355 168.794 920.352 166.797 922.817 166.797H957.999C960.463 166.797 962.461 168.794 962.461 171.258V300.547C962.461 303.011 960.463 305.009 957.999 305.009H921.275C919.501 305.009 917.896 303.958 917.186 302.332L898.247 258.946C896.313 254.515 889.696 255.896 889.696 260.731V300.547C889.696 303.011 887.699 305.009 885.234 305.009H849.849Z" fill="black"/>
<path d="M1018.66 305.822C991.016 305.822 974.552 288.749 974.552 261.309V210.496C974.552 183.26 991.016 166.187 1018.66 166.187H1045.89C1073.74 166.187 1090 183.26 1090 210.496V212.335C1090 214.799 1088 216.797 1085.54 216.797H1050.15C1047.69 216.797 1045.69 214.799 1045.69 212.335V211.512C1045.69 205.008 1041.83 201.553 1035.53 201.553H1029.02C1022.72 201.553 1018.86 205.008 1018.86 211.512V260.496C1018.86 266.797 1022.72 270.456 1029.02 270.456H1036.75C1043.05 270.456 1046.3 268.22 1046.3 262.122V261.503C1046.3 259.039 1044.3 257.041 1041.84 257.041H1036.33C1033.87 257.041 1031.87 255.043 1031.87 252.579V231.421C1031.87 228.957 1033.87 226.96 1036.33 226.96H1085.54C1088 226.96 1090 228.957 1090 231.421V262.326C1090 289.765 1073.74 305.822 1045.89 305.822H1018.66Z" fill="black"/>
<path d="M73.2236 148.822C70.7594 148.822 68.7619 146.825 68.7619 144.361V15.072C68.7619 12.6078 70.7594 10.6103 73.2236 10.6103H120.574C122.616 10.6103 124.398 11.9968 124.899 13.9766L139.415 71.29C140.553 75.7841 146.941 75.7762 148.068 71.2794L162.428 13.9872C162.926 12.0023 164.71 10.6103 166.756 10.6103H214.098C216.562 10.6103 218.559 12.6078 218.559 15.072V144.361C218.559 146.825 216.562 148.822 214.098 148.822H178.712C176.248 148.822 174.25 146.825 174.25 144.361V103.286C174.25 98.0934 166.88 97.0883 165.49 102.091L153.41 145.555C152.874 147.486 151.115 148.822 149.111 148.822H138.21C136.206 148.822 134.448 147.486 133.911 145.555L121.832 102.091C120.441 97.0883 113.071 98.0934 113.071 103.286V144.361C113.071 146.825 111.073 148.822 108.609 148.822H73.2236Z" fill="black"/>
<path d="M233.421 148.822C230.956 148.822 228.959 146.825 228.959 144.361V15.072C228.959 12.6078 230.956 10.6103 233.421 10.6103H324.701C327.165 10.6103 329.163 12.6078 329.163 15.072V41.1081C329.163 43.5722 327.165 45.5698 324.701 45.5698H277.73C275.266 45.5698 273.268 47.5674 273.268 50.0315V57.7748C273.268 60.239 275.266 62.2365 277.73 62.2365H324.701C327.165 62.2365 329.163 64.2341 329.163 66.6983V91.7181C329.163 94.1822 327.165 96.1798 324.701 96.1798H277.73C275.266 96.1798 273.268 98.1774 273.268 100.642V109.401C273.268 111.865 275.266 113.863 277.73 113.863H324.701C327.165 113.863 329.163 115.86 329.163 118.325V144.361C329.163 146.825 327.165 148.822 324.701 148.822H233.421Z" fill="black"/>
<path d="M382.989 149.432C355.346 149.432 338.476 132.359 338.476 105.529V53.9032C338.476 27.0738 355.346 10.0005 382.989 10.0005H410.428C438.07 10.0005 454.94 27.0738 454.94 53.9032V64.8887C454.94 67.3528 452.943 69.3504 450.479 69.3504H414.89C412.425 69.3504 410.428 67.3528 410.428 64.8887V54.9194C410.428 48.8218 406.566 45.3665 400.062 45.3665H393.355C386.851 45.3665 382.989 48.8218 382.989 54.9194V104.513C382.989 110.611 386.851 114.066 393.355 114.066H400.062C406.566 114.066 410.428 110.611 410.428 104.513V91.6984C410.428 89.2343 412.425 87.2367 414.89 87.2367H450.479C452.943 87.2367 454.94 89.2343 454.94 91.6984V105.529C454.94 132.359 438.07 149.432 410.428 149.432H382.989Z" fill="black"/>
<path d="M467.123 148.822C464.659 148.822 462.662 146.825 462.662 144.361V15.072C462.662 12.6078 464.659 10.6103 467.123 10.6103H502.509C504.973 10.6103 506.971 12.6078 506.971 15.072V56.5553C506.971 59.0195 508.969 61.017 511.433 61.017H537.469C539.933 61.017 541.931 59.0195 541.931 56.5553V15.072C541.931 12.6078 543.928 10.6103 546.392 10.6103H581.778C584.242 10.6103 586.24 12.6078 586.24 15.072V144.361C586.24 146.825 584.242 148.822 581.778 148.822H546.392C543.928 148.822 541.931 146.825 541.931 144.361V100.845C541.931 98.3807 539.933 96.3831 537.469 96.3831H511.433C508.969 96.3831 506.971 98.3807 506.971 100.845V144.361C506.971 146.825 504.973 148.822 502.509 148.822H467.123Z" fill="black"/>
<path d="M598.396 148.822C595.578 148.822 593.466 146.242 594.022 143.479L620.07 14.1908C620.49 12.1082 622.32 10.6103 624.444 10.6103H678.318C680.443 10.6103 682.272 12.1082 682.692 14.1908L708.74 143.479C709.296 146.242 707.184 148.822 704.366 148.822H669.185C666.96 148.822 665.075 147.182 664.767 144.978L663.199 133.764C662.891 131.56 661.006 129.92 658.78 129.92H643.617C641.374 129.92 639.479 131.586 639.192 133.811L637.757 144.932C637.47 147.157 635.576 148.822 633.332 148.822H598.396ZM644.429 93.3673C644.074 96.0411 646.155 98.4156 648.852 98.4156H653.522C656.213 98.4156 658.292 96.0516 657.947 93.3829L655.644 75.5323C654.976 70.3538 647.482 70.3406 646.796 75.5167L644.429 93.3673Z" fill="black"/>
<path d="M720.123 148.822C717.659 148.822 715.661 146.825 715.661 144.361V15.072C715.661 12.6078 717.659 10.6103 720.123 10.6103H757.015C758.806 10.6103 760.424 11.6822 761.123 13.3323L780.059 58.0531C781.955 62.5309 788.629 61.1761 788.629 56.3134V15.072C788.629 12.6078 790.627 10.6103 793.091 10.6103H828.273C830.738 10.6103 832.735 12.6078 832.735 15.072V144.361C832.735 146.825 830.738 148.822 828.273 148.822H791.55C789.776 148.822 788.17 147.771 787.461 146.146L768.521 102.76C766.587 98.3281 759.97 99.7093 759.97 104.545V144.361C759.97 146.825 757.973 148.822 755.509 148.822H720.123Z" fill="black"/>
<path d="M850.988 148.822C848.524 148.822 846.527 146.825 846.527 144.361V15.072C846.527 12.6078 848.524 10.6103 850.988 10.6103H886.374C888.838 10.6103 890.836 12.6078 890.836 15.072V144.361C890.836 146.825 888.838 148.822 886.374 148.822H850.988Z" fill="black"/>
<path d="M946.583 149.432C918.941 149.432 902.071 132.359 902.071 105.529V53.9032C902.071 27.0738 918.941 10.0005 946.583 10.0005H974.022C1001.66 10.0005 1018.53 27.0738 1018.53 53.9032V64.8887C1018.53 67.3528 1016.54 69.3504 1014.07 69.3504H978.484C976.02 69.3504 974.022 67.3528 974.022 64.8887V54.9194C974.022 48.8218 970.161 45.3665 963.656 45.3665H956.949C950.445 45.3665 946.583 48.8218 946.583 54.9194V104.513C946.583 110.611 950.445 114.066 956.949 114.066H963.656C970.161 114.066 974.022 110.611 974.022 104.513V91.6984C974.022 89.2343 976.02 87.2367 978.484 87.2367H1014.07C1016.54 87.2367 1018.53 89.2343 1018.53 91.6984V105.529C1018.53 132.359 1001.66 149.432 974.022 149.432H946.583Z" fill="black"/>
</svg>
