<svg width="1100" height="317" viewBox="0 0 1100 317" fill="none" xmlns="http://www.w3.org/2000/svg">
<path d="M14.4617 306.066C11.9976 306.066 10 304.068 10 301.604V172.315C10 169.851 11.9976 167.854 14.4617 167.854H61.8123C63.8545 167.854 65.636 169.24 66.1374 171.22L80.6528 228.533C81.791 233.028 88.1787 233.02 89.3059 228.523L103.666 171.231C104.164 169.246 105.948 167.854 107.994 167.854H155.336C157.8 167.854 159.798 169.851 159.798 172.315V301.604C159.798 304.068 157.8 306.066 155.336 306.066H119.95C117.486 306.066 115.488 304.068 115.488 301.604V260.53C115.488 255.337 108.118 254.332 106.728 259.335L94.6483 302.799C94.1117 304.73 92.3535 306.066 90.3495 306.066H79.4481C77.4441 306.066 75.6859 304.73 75.1493 302.799L63.0697 259.335C61.6792 254.332 54.3092 255.337 54.3092 260.53V301.604C54.3092 304.068 52.3116 306.066 49.8475 306.066H14.4617Z" fill="#F0F0EC"/>
<path d="M173.066 305.074C170.248 305.074 168.136 302.494 168.692 299.732L194.74 170.443C195.16 168.36 196.99 166.862 199.114 166.862H252.988C255.113 166.862 256.943 168.36 257.362 170.443L283.41 299.732C283.967 302.494 281.854 305.074 279.036 305.074H243.856C241.63 305.074 239.745 303.435 239.437 301.23L237.869 290.016C237.561 287.812 235.676 286.172 233.45 286.172H218.287C216.044 286.172 214.149 287.838 213.862 290.063L212.427 301.184C212.14 303.409 210.246 305.074 208.002 305.074H173.066ZM219.099 249.619C218.744 252.293 220.825 254.668 223.522 254.668H228.192C230.883 254.668 232.962 252.304 232.617 249.635L230.314 231.784C229.646 226.606 222.153 226.593 221.466 231.769L219.099 249.619Z" fill="#F0F0EC"/>
<path d="M297.187 305.074C294.722 305.074 292.725 303.077 292.725 300.613V171.324C292.725 168.86 294.722 166.862 297.187 166.862H366.709C388.864 166.862 402.482 180.074 402.482 201.415V217.269C402.482 230.769 397.204 239.922 387.733 245.136C385.461 246.386 384.316 249.146 385.419 251.493L407.621 298.714C409.013 301.673 406.854 305.074 403.584 305.074H368.623C366.844 305.074 365.235 304.018 364.528 302.386L344.327 255.74C343.725 254.349 342.354 253.448 340.837 253.448C338.737 253.448 337.034 255.151 337.034 257.251V300.613C337.034 303.077 335.037 305.074 332.572 305.074H297.187ZM337.034 218.499C337.034 220.963 339.032 222.96 341.496 222.96H350.449C355.937 222.96 359.392 219.708 359.392 214.627V207.513C359.392 202.432 355.937 199.18 350.449 199.18H341.496C339.032 199.18 337.034 201.177 337.034 203.641V218.499Z" fill="#F0F0EC"/>
<path d="M421.729 305.074C419.265 305.074 417.267 303.077 417.267 300.613V171.324C417.267 168.86 419.265 166.862 421.729 166.862H457.115C459.579 166.862 461.576 168.86 461.576 171.324V191.713C461.576 195.815 466.647 197.743 469.373 194.677L492.766 168.36C493.612 167.407 494.826 166.862 496.1 166.862H533.206C537.109 166.862 539.131 171.521 536.465 174.372L504.55 208.498C503.276 209.861 502.984 211.872 503.818 213.541L546.356 298.617C547.84 301.584 545.683 305.074 542.366 305.074H504.44C502.716 305.074 501.147 304.081 500.408 302.523L474.993 248.887C473.634 246.021 469.802 245.447 467.664 247.791L462.742 253.187C461.992 254.009 461.576 255.081 461.576 256.194V300.613C461.576 303.077 459.579 305.074 457.115 305.074H421.729Z" fill="#F0F0EC"/>
<path d="M557.235 305.074C554.771 305.074 552.774 303.077 552.774 300.613V171.324C552.774 168.86 554.771 166.862 557.235 166.862H648.516C650.98 166.862 652.978 168.86 652.978 171.324V197.36C652.978 199.824 650.98 201.822 648.516 201.822H601.545C599.08 201.822 597.083 203.819 597.083 206.284V214.027C597.083 216.491 599.08 218.489 601.545 218.489H648.516C650.98 218.489 652.978 220.486 652.978 222.95V247.97C652.978 250.434 650.98 252.432 648.516 252.432H601.545C599.08 252.432 597.083 254.43 597.083 256.894V265.653C597.083 268.117 599.08 270.115 601.545 270.115H648.516C650.98 270.115 652.978 272.113 652.978 274.577V300.613C652.978 303.077 650.98 305.074 648.516 305.074H557.235Z" fill="#F0F0EC"/>
<path d="M703.583 305.074C701.119 305.074 699.122 303.077 699.122 300.613V206.69C699.122 204.226 697.124 202.228 694.66 202.228H667.254C664.79 202.228 662.792 200.231 662.792 197.767V171.324C662.792 168.86 664.79 166.862 667.254 166.862H775.095C777.559 166.862 779.557 168.86 779.557 171.324V197.767C779.557 200.231 777.559 202.228 775.095 202.228H747.892C745.428 202.228 743.431 204.226 743.431 206.69V300.613C743.431 303.077 741.433 305.074 738.969 305.074H703.583Z" fill="#F0F0EC"/>
<path d="M792.514 305.074C790.05 305.074 788.052 303.077 788.052 300.613V171.324C788.052 168.86 790.05 166.862 792.514 166.862H827.899C830.364 166.862 832.361 168.86 832.361 171.324V300.613C832.361 303.077 830.364 305.074 827.899 305.074H792.514Z" fill="#F0F0EC"/>
<path d="M849.849 305.074C847.384 305.074 845.387 303.077 845.387 300.613V171.324C845.387 168.86 847.384 166.862 849.849 166.862H886.74C888.532 166.862 890.15 167.934 890.849 169.584L909.784 214.305C911.681 218.783 918.355 217.428 918.355 212.565V171.324C918.355 168.86 920.352 166.862 922.817 166.862H957.999C960.463 166.862 962.461 168.86 962.461 171.324V300.613C962.461 303.077 960.463 305.074 957.999 305.074H921.275C919.501 305.074 917.896 304.024 917.186 302.398L898.247 259.012C896.313 254.58 889.696 255.961 889.696 260.797V300.613C889.696 303.077 887.699 305.074 885.234 305.074H849.849Z" fill="#F0F0EC"/>
<path d="M1018.66 305.888C991.016 305.888 974.552 288.814 974.552 261.375V210.562C974.552 183.326 991.016 166.253 1018.66 166.253H1045.89C1073.74 166.253 1090 183.326 1090 210.562V212.401C1090 214.865 1088 216.863 1085.54 216.863H1050.15C1047.69 216.863 1045.69 214.865 1045.69 212.401V211.578C1045.69 205.074 1041.83 201.619 1035.53 201.619H1029.02C1022.72 201.619 1018.86 205.074 1018.86 211.578V260.562C1018.86 266.863 1022.72 270.521 1029.02 270.521H1036.75C1043.05 270.521 1046.3 268.286 1046.3 262.188V261.568C1046.3 259.104 1044.3 257.107 1041.84 257.107H1036.33C1033.87 257.107 1031.87 255.109 1031.87 252.645V231.487C1031.87 229.023 1033.87 227.025 1036.33 227.025H1085.54C1088 227.025 1090 229.023 1090 231.487V262.391C1090 289.831 1073.74 305.888 1045.89 305.888H1018.66Z" fill="#F0F0EC"/>
<path d="M73.2236 148.888C70.7594 148.888 68.7619 146.89 68.7619 144.426V15.1376C68.7619 12.6735 70.7594 10.6759 73.2236 10.6759H120.574C122.616 10.6759 124.398 12.0625 124.899 14.0422L139.415 71.3557C140.553 75.8498 146.941 75.8419 148.068 71.345L162.428 14.0529C162.926 12.0679 164.71 10.6759 166.756 10.6759H214.098C216.562 10.6759 218.559 12.6735 218.559 15.1376V144.426C218.559 146.891 216.562 148.888 214.098 148.888H178.712C176.248 148.888 174.25 146.89 174.25 144.426V103.352C174.25 98.1591 166.88 97.154 165.49 102.157L153.41 145.621C152.874 147.552 151.115 148.888 149.111 148.888H138.21C136.206 148.888 134.448 147.552 133.911 145.621L121.832 102.157C120.441 97.154 113.071 98.1591 113.071 103.352V144.426C113.071 146.89 111.073 148.888 108.609 148.888H73.2236Z" fill="#F0F0EC"/>
<path d="M233.421 148.888C230.956 148.888 228.959 146.89 228.959 144.426V15.1376C228.959 12.6735 230.956 10.6759 233.421 10.6759H324.701C327.165 10.6759 329.163 12.6735 329.163 15.1376V41.1737C329.163 43.6379 327.165 45.6355 324.701 45.6355H277.73C275.266 45.6355 273.268 47.633 273.268 50.0972V57.8405C273.268 60.3046 275.266 62.3022 277.73 62.3022H324.701C327.165 62.3022 329.163 64.2998 329.163 66.7639V91.7838C329.163 94.2479 327.165 96.2455 324.701 96.2455H277.73C275.266 96.2455 273.268 98.2431 273.268 100.707V109.467C273.268 111.931 275.266 113.929 277.73 113.929H324.701C327.165 113.929 329.163 115.926 329.163 118.39V144.426C329.163 146.89 327.165 148.888 324.701 148.888H233.421Z" fill="#F0F0EC"/>
<path d="M382.989 149.498C355.346 149.498 338.476 132.425 338.476 105.595V53.9688C338.476 27.1394 355.346 10.0662 382.989 10.0662H410.428C438.07 10.0662 454.94 27.1394 454.94 53.9688V64.9544C454.94 67.4185 452.943 69.4161 450.479 69.4161H414.89C412.425 69.4161 410.428 67.4185 410.428 64.9544V54.9851C410.428 48.8875 406.566 45.4322 400.062 45.4322H393.355C386.851 45.4322 382.989 48.8875 382.989 54.9851V104.579C382.989 110.676 386.851 114.132 393.355 114.132H400.062C406.566 114.132 410.428 110.676 410.428 104.579V91.7641C410.428 89.2999 412.425 87.3024 414.89 87.3024H450.479C452.943 87.3024 454.94 89.2999 454.94 91.7641V105.595C454.94 132.425 438.07 149.498 410.428 149.498H382.989Z" fill="#F0F0EC"/>
<path d="M467.123 148.888C464.659 148.888 462.662 146.89 462.662 144.426V15.1376C462.662 12.6735 464.659 10.6759 467.123 10.6759H502.509C504.973 10.6759 506.971 12.6735 506.971 15.1376V56.621C506.971 59.0851 508.969 61.0827 511.433 61.0827H537.469C539.933 61.0827 541.931 59.0851 541.931 56.621V15.1376C541.931 12.6735 543.928 10.6759 546.392 10.6759H581.778C584.242 10.6759 586.24 12.6735 586.24 15.1376V144.426C586.24 146.891 584.242 148.888 581.778 148.888H546.392C543.928 148.888 541.931 146.89 541.931 144.426V100.91C541.931 98.4463 539.933 96.4487 537.469 96.4487H511.433C508.969 96.4487 506.971 98.4463 506.971 100.91V144.426C506.971 146.89 504.973 148.888 502.509 148.888H467.123Z" fill="#F0F0EC"/>
<path d="M598.396 148.888C595.578 148.888 593.466 146.308 594.022 143.545L620.07 14.2564C620.49 12.1738 622.32 10.6759 624.444 10.6759H678.318C680.443 10.6759 682.272 12.1738 682.692 14.2564L708.74 143.545C709.296 146.308 707.184 148.888 704.366 148.888H669.185C666.96 148.888 665.075 147.248 664.767 145.044L663.199 133.83C662.891 131.626 661.006 129.986 658.78 129.986H643.617C641.374 129.986 639.479 131.651 639.192 133.876L637.757 144.997C637.47 147.222 635.576 148.888 633.332 148.888H598.396ZM644.429 93.433C644.074 96.1067 646.155 98.4813 648.852 98.4813H653.522C656.213 98.4813 658.292 96.1173 657.947 93.4486L655.644 75.5979C654.976 70.4195 647.482 70.4063 646.796 75.5823L644.429 93.433Z" fill="#F0F0EC"/>
<path d="M720.123 148.888C717.659 148.888 715.661 146.89 715.661 144.426V15.1376C715.661 12.6735 717.659 10.6759 720.123 10.6759H757.015C758.806 10.6759 760.424 11.7479 761.123 13.398L780.059 58.1187C781.955 62.5966 788.629 61.2418 788.629 56.3791V15.1376C788.629 12.6735 790.627 10.6759 793.091 10.6759H828.273C830.738 10.6759 832.735 12.6735 832.735 15.1376V144.426C832.735 146.891 830.738 148.888 828.273 148.888H791.55C789.776 148.888 788.17 147.837 787.461 146.211L768.521 102.825C766.587 98.3938 759.97 99.775 759.97 104.61V144.426C759.97 146.89 757.973 148.888 755.509 148.888H720.123Z" fill="#F0F0EC"/>
<path d="M850.988 148.888C848.524 148.888 846.527 146.89 846.527 144.426V15.1376C846.527 12.6735 848.524 10.6759 850.988 10.6759H886.374C888.838 10.6759 890.836 12.6735 890.836 15.1376V144.426C890.836 146.891 888.838 148.888 886.374 148.888H850.988Z" fill="#F0F0EC"/>
<path d="M946.583 149.498C918.941 149.498 902.071 132.425 902.071 105.595V53.9688C902.071 27.1394 918.941 10.0662 946.583 10.0662H974.022C1001.66 10.0662 1018.53 27.1394 1018.53 53.9688V64.9544C1018.53 67.4185 1016.54 69.4161 1014.07 69.4161H978.484C976.02 69.4161 974.022 67.4185 974.022 64.9544V54.9851C974.022 48.8875 970.161 45.4322 963.656 45.4322H956.949C950.445 45.4322 946.583 48.8875 946.583 54.9851V104.579C946.583 110.676 950.445 114.132 956.949 114.132H963.656C970.161 114.132 974.022 110.676 974.022 104.579V91.7641C974.022 89.2999 976.02 87.3024 978.484 87.3024H1014.07C1016.54 87.3024 1018.53 89.2999 1018.53 91.7641V105.595C1018.53 132.425 1001.66 149.498 974.022 149.498H946.583Z" fill="#F0F0EC"/>
</svg>
